<?xml version="1.0" encoding="UTF-8" standalone="no"?>
<!DOCTYPE svg PUBLIC "-//W3C//DTD SVG 1.1//EN"
 "http://www.w3.org/Graphics/SVG/1.1/DTD/svg11.dtd">
<!-- Generated by graphviz version 2.43.0 (0)
 -->
<!-- Title: DepositManagerV1_1&#45;DepositManagerV1_1&#45;DEFAULT_ADMIN_ROLE Pages: 1 -->
<svg width="708pt" height="228pt"
 viewBox="0.00 0.00 708.00 228.00" xmlns="http://www.w3.org/2000/svg" xmlns:xlink="http://www.w3.org/1999/xlink">
<g id="graph0" class="graph" transform="scale(1 1) rotate(0) translate(4 224)">
<title>DepositManagerV1_1&#45;DepositManagerV1_1&#45;DEFAULT_ADMIN_ROLE</title>
<polygon fill="white" stroke="transparent" points="-4,4 -4,-224 704,-224 704,4 -4,4"/>
<g id="clust1" class="cluster">
<title>cluster_1</title>
<path fill="aliceblue" stroke="aliceblue" d="M302,-111C302,-111 419,-111 419,-111 425,-111 431,-117 431,-123 431,-123 431,-192 431,-192 431,-198 425,-204 419,-204 419,-204 302,-204 302,-204 296,-204 290,-198 290,-192 290,-192 290,-123 290,-123 290,-117 296,-111 302,-111"/>
<text text-anchor="middle" x="360.5" y="-188.8" font-family="Helvetica,sans-Serif" font-size="14.00">Function</text>
</g>
<g id="clust2" class="cluster">
<title>cluster_function_1_state_vars</title>
<path fill="aliceblue" stroke="aliceblue" d="M528.5,-109C528.5,-109 668.5,-109 668.5,-109 674.5,-109 680.5,-115 680.5,-121 680.5,-121 680.5,-200 680.5,-200 680.5,-206 674.5,-212 668.5,-212 668.5,-212 528.5,-212 528.5,-212 522.5,-212 516.5,-206 516.5,-200 516.5,-200 516.5,-121 516.5,-121 516.5,-115 522.5,-109 528.5,-109"/>
<text text-anchor="middle" x="598.5" y="-196.8" font-family="Helvetica,sans-Serif" font-size="14.00">State Variables</text>
</g>
<g id="clust3" class="cluster">
<title>cluster_3</title>
<path fill="aliceblue" stroke="aliceblue" d="M20,-67C20,-67 204,-67 204,-67 210,-67 216,-73 216,-79 216,-79 216,-148 216,-148 216,-154 210,-160 204,-160 204,-160 20,-160 20,-160 14,-160 8,-154 8,-148 8,-148 8,-79 8,-79 8,-73 14,-67 20,-67"/>
<text text-anchor="middle" x="112" y="-144.8" font-family="Helvetica,sans-Serif" font-size="14.00">Authenticated Role</text>
</g>
<g id="clust4" class="cluster">
<title>cluster_4</title>
<path fill="aliceblue" stroke="aliceblue" d="M269,-8C269,-8 452,-8 452,-8 458,-8 464,-14 464,-20 464,-20 464,-89 464,-89 464,-95 458,-101 452,-101 452,-101 269,-101 269,-101 263,-101 257,-95 257,-89 257,-89 257,-20 257,-20 257,-14 263,-8 269,-8"/>
<text text-anchor="middle" x="360.5" y="-85.8" font-family="Helvetica,sans-Serif" font-size="14.00">Function</text>
</g>
<g id="clust5" class="cluster">
<title>cluster_function_4_state_vars</title>
<path fill="aliceblue" stroke="aliceblue" d="M517,-8C517,-8 680,-8 680,-8 686,-8 692,-14 692,-20 692,-20 692,-89 692,-89 692,-95 686,-101 680,-101 680,-101 517,-101 517,-101 511,-101 505,-95 505,-89 505,-89 505,-20 505,-20 505,-14 511,-8 517,-8"/>
<text text-anchor="middle" x="598.5" y="-85.8" font-family="Helvetica,sans-Serif" font-size="14.00">State Variables</text>
</g>
<!-- setAddresses -->
<g id="node1" class="node">
<title>setAddresses</title>
<path fill="#bfefff" stroke="#bfefff" d="M318,-128C318,-128 403,-128 403,-128 409,-128 415,-134 415,-140 415,-140 415,-152 415,-152 415,-158 409,-164 403,-164 403,-164 318,-164 318,-164 312,-164 306,-158 306,-152 306,-152 306,-140 306,-140 306,-134 312,-128 318,-128"/>
<text text-anchor="middle" x="360.5" y="-142.3" font-family="Helvetica,sans-Serif" font-size="14.00">setAddresses</text>
</g>
<!-- function_1_state_vars_node -->
<g id="node2" class="node">
<title>function_1_state_vars_node</title>
<path fill="#d1eeee" stroke="#d1eeee" d="M544.5,-126C544.5,-126 652.5,-126 652.5,-126 658.5,-126 664.5,-132 664.5,-138 664.5,-138 664.5,-160 664.5,-160 664.5,-166 658.5,-172 652.5,-172 652.5,-172 544.5,-172 544.5,-172 538.5,-172 532.5,-166 532.5,-160 532.5,-160 532.5,-138 532.5,-138 532.5,-132 538.5,-126 544.5,-126"/>
<text text-anchor="start" x="540.5" y="-156.8" font-family="Helvetica,sans-Serif" font-size="14.00">l1BridgeRegistry</text>
<polyline fill="none" stroke="#d1eeee" points="532.5,-149 664.5,-149 "/>
<text text-anchor="start" x="540.5" y="-133.8" font-family="Helvetica,sans-Serif" font-size="14.00">layer2Manager</text>
</g>
<!-- setAddresses&#45;&gt;function_1_state_vars_node -->
<g id="edge1" class="edge">
<title>setAddresses&#45;&gt;function_1_state_vars_node</title>
<path fill="none" stroke="lightskyblue" d="M439.13,-146.99C460.64,-147.26 484.18,-147.56 506.38,-147.84"/>
<ellipse fill="none" stroke="lightskyblue" cx="435" cy="-146.93" rx="4" ry="4"/>
<polygon fill="lightskyblue" stroke="lightskyblue" points="506.46,-151.34 516.5,-147.97 506.55,-144.34 506.46,-151.34"/>
</g>
<!-- DEFAULT_ADMIN_ROLE -->
<g id="node3" class="node">
<title>DEFAULT_ADMIN_ROLE</title>
<path fill="lightgrey" stroke="lightgrey" d="M36,-84C36,-84 188,-84 188,-84 194,-84 200,-90 200,-96 200,-96 200,-108 200,-108 200,-114 194,-120 188,-120 188,-120 36,-120 36,-120 30,-120 24,-114 24,-108 24,-108 24,-96 24,-96 24,-90 30,-84 36,-84"/>
<text text-anchor="middle" x="112" y="-98.3" font-family="Helvetica,sans-Serif" font-size="14.00">DEFAULT_ADMIN_ROLE</text>
</g>
<!-- DEFAULT_ADMIN_ROLE&#45;&gt;setAddresses -->
<g id="edge4" class="edge">
<title>DEFAULT_ADMIN_ROLE&#45;&gt;setAddresses</title>
<path fill="none" stroke="lightskyblue" d="M224.05,-121.82C242.92,-125.19 262.16,-128.63 280,-131.81"/>
<ellipse fill="none" stroke="lightskyblue" cx="219.94" cy="-121.09" rx="4" ry="4"/>
<polygon fill="lightskyblue" stroke="lightskyblue" points="279.54,-135.28 290,-133.59 280.77,-128.39 279.54,-135.28"/>
</g>
<!-- setMinDepositGasLimit -->
<g id="node4" class="node">
<title>setMinDepositGasLimit</title>
<path fill="#bfefff" stroke="#bfefff" d="M285,-25C285,-25 436,-25 436,-25 442,-25 448,-31 448,-37 448,-37 448,-49 448,-49 448,-55 442,-61 436,-61 436,-61 285,-61 285,-61 279,-61 273,-55 273,-49 273,-49 273,-37 273,-37 273,-31 279,-25 285,-25"/>
<text text-anchor="middle" x="360.5" y="-39.3" font-family="Helvetica,sans-Serif" font-size="14.00">setMinDepositGasLimit</text>
</g>
<!-- DEFAULT_ADMIN_ROLE&#45;&gt;setMinDepositGasLimit -->
<g id="edge2" class="edge">
<title>DEFAULT_ADMIN_ROLE&#45;&gt;setMinDepositGasLimit</title>
<path fill="none" stroke="lightskyblue" d="M224.19,-75.39C231.77,-73.57 239.41,-71.74 246.99,-69.93"/>
<ellipse fill="none" stroke="lightskyblue" cx="219.89" cy="-76.42" rx="4" ry="4"/>
<polygon fill="lightskyblue" stroke="lightskyblue" points="248.09,-73.26 257,-67.53 246.46,-66.46 248.09,-73.26"/>
</g>
<!-- function_4_state_vars_node -->
<g id="node5" class="node">
<title>function_4_state_vars_node</title>
<path fill="#d1eeee" stroke="#d1eeee" d="M533,-25C533,-25 664,-25 664,-25 670,-25 676,-31 676,-37 676,-37 676,-49 676,-49 676,-55 670,-61 664,-61 664,-61 533,-61 533,-61 527,-61 521,-55 521,-49 521,-49 521,-37 521,-37 521,-31 527,-25 533,-25"/>
<text text-anchor="start" x="529" y="-39.3" font-family="Helvetica,sans-Serif" font-size="14.00">minDepositGasLimit</text>
</g>
<!-- setMinDepositGasLimit&#45;&gt;function_4_state_vars_node -->
<g id="edge3" class="edge">
<title>setMinDepositGasLimit&#45;&gt;function_4_state_vars_node</title>
<path fill="none" stroke="lightskyblue" d="M472.16,-43C479.7,-43 487.28,-43 494.78,-43"/>
<ellipse fill="none" stroke="lightskyblue" cx="468" cy="-43" rx="4" ry="4"/>
<polygon fill="lightskyblue" stroke="lightskyblue" points="495,-46.5 505,-43 495,-39.5 495,-46.5"/>
</g>
</g>
</svg>
