<?xml version="1.0" encoding="UTF-8" standalone="no"?>
<!DOCTYPE svg PUBLIC "-//W3C//DTD SVG 1.1//EN"
 "http://www.w3.org/Graphics/SVG/1.1/DTD/svg11.dtd">
<!-- Generated by graphviz version 2.43.0 (0)
 -->
<!-- Title: Layer2ManagerV1_1&#45;Layer2ManagerV1_1&#45;_l1bridgeregistry Pages: 1 -->
<svg width="721pt" height="521pt"
 viewBox="0.00 0.00 721.00 521.00" xmlns="http://www.w3.org/2000/svg" xmlns:xlink="http://www.w3.org/1999/xlink">
<g id="graph0" class="graph" transform="scale(1 1) rotate(0) translate(4 517)">
<title>Layer2ManagerV1_1&#45;Layer2ManagerV1_1&#45;_l1bridgeregistry</title>
<polygon fill="white" stroke="transparent" points="-4,4 -4,-517 717,-517 717,4 -4,4"/>
<g id="clust1" class="cluster">
<title>cluster_1</title>
<path fill="aliceblue" stroke="aliceblue" d="M236,-210C236,-210 420,-210 420,-210 426,-210 432,-216 432,-222 432,-222 432,-291 432,-291 432,-297 426,-303 420,-303 420,-303 236,-303 236,-303 230,-303 224,-297 224,-291 224,-291 224,-222 224,-222 224,-216 230,-210 236,-210"/>
<text text-anchor="middle" x="328" y="-287.8" font-family="Helvetica,sans-Serif" font-size="14.00">Function</text>
</g>
<g id="clust2" class="cluster">
<title>cluster_function_1_state_vars</title>
<path fill="aliceblue" stroke="aliceblue" d="M525.5,-412C525.5,-412 661.5,-412 661.5,-412 667.5,-412 673.5,-418 673.5,-424 673.5,-424 673.5,-493 673.5,-493 673.5,-499 667.5,-505 661.5,-505 661.5,-505 525.5,-505 525.5,-505 519.5,-505 513.5,-499 513.5,-493 513.5,-493 513.5,-424 513.5,-424 513.5,-418 519.5,-412 525.5,-412"/>
<text text-anchor="middle" x="593.5" y="-489.8" font-family="Helvetica,sans-Serif" font-size="14.00">State Variables</text>
</g>
<g id="clust3" class="cluster">
<title>cluster_2</title>
<path fill="aliceblue" stroke="aliceblue" d="M521,-311C521,-311 666,-311 666,-311 672,-311 678,-317 678,-323 678,-323 678,-392 678,-392 678,-398 672,-404 666,-404 666,-404 521,-404 521,-404 515,-404 509,-398 509,-392 509,-392 509,-323 509,-323 509,-317 515,-311 521,-311"/>
<text text-anchor="middle" x="593.5" y="-388.8" font-family="Helvetica,sans-Serif" font-size="14.00">Internal Calls</text>
</g>
<g id="clust4" class="cluster">
<title>cluster_3</title>
<path fill="aliceblue" stroke="aliceblue" d="M227,-39C227,-39 429,-39 429,-39 435,-39 441,-45 441,-51 441,-51 441,-120 441,-120 441,-126 435,-132 429,-132 429,-132 227,-132 227,-132 221,-132 215,-126 215,-120 215,-120 215,-51 215,-51 215,-45 221,-39 227,-39"/>
<text text-anchor="middle" x="328" y="-116.8" font-family="Helvetica,sans-Serif" font-size="14.00">Function</text>
</g>
<g id="clust5" class="cluster">
<title>cluster_function_3_state_vars</title>
<path fill="aliceblue" stroke="aliceblue" d="M525.5,-8C525.5,-8 661.5,-8 661.5,-8 667.5,-8 673.5,-14 673.5,-20 673.5,-20 673.5,-89 673.5,-89 673.5,-95 667.5,-101 661.5,-101 661.5,-101 525.5,-101 525.5,-101 519.5,-101 513.5,-95 513.5,-89 513.5,-89 513.5,-20 513.5,-20 513.5,-14 519.5,-8 525.5,-8"/>
<text text-anchor="middle" x="593.5" y="-85.8" font-family="Helvetica,sans-Serif" font-size="14.00">State Variables</text>
</g>
<g id="clust6" class="cluster">
<title>cluster_5</title>
<path fill="aliceblue" stroke="aliceblue" d="M494,-210C494,-210 693,-210 693,-210 699,-210 705,-216 705,-222 705,-222 705,-291 705,-291 705,-297 699,-303 693,-303 693,-303 494,-303 494,-303 488,-303 482,-297 482,-291 482,-291 482,-222 482,-222 482,-216 488,-210 494,-210"/>
<text text-anchor="middle" x="593.5" y="-287.8" font-family="Helvetica,sans-Serif" font-size="14.00">External Calls</text>
</g>
<g id="clust7" class="cluster">
<title>cluster_6</title>
<path fill="aliceblue" stroke="aliceblue" d="M20,-141C20,-141 162,-141 162,-141 168,-141 174,-147 174,-153 174,-153 174,-222 174,-222 174,-228 168,-234 162,-234 162,-234 20,-234 20,-234 14,-234 8,-228 8,-222 8,-222 8,-153 8,-153 8,-147 14,-141 20,-141"/>
<text text-anchor="middle" x="91" y="-218.8" font-family="Helvetica,sans-Serif" font-size="14.00">Authenticated Role</text>
</g>
<g id="clust8" class="cluster">
<title>cluster_7</title>
<path fill="aliceblue" stroke="aliceblue" d="M523.5,-109C523.5,-109 663.5,-109 663.5,-109 669.5,-109 675.5,-115 675.5,-121 675.5,-121 675.5,-190 675.5,-190 675.5,-196 669.5,-202 663.5,-202 663.5,-202 523.5,-202 523.5,-202 517.5,-202 511.5,-196 511.5,-190 511.5,-190 511.5,-121 511.5,-121 511.5,-115 517.5,-109 523.5,-109"/>
<text text-anchor="middle" x="593.5" y="-186.8" font-family="Helvetica,sans-Serif" font-size="14.00">External Calls</text>
</g>
<!-- pauseCandidateAddOn -->
<g id="node1" class="node">
<title>pauseCandidateAddOn</title>
<path fill="#bfefff" stroke="#bfefff" d="M252,-227C252,-227 404,-227 404,-227 410,-227 416,-233 416,-239 416,-239 416,-251 416,-251 416,-257 410,-263 404,-263 404,-263 252,-263 252,-263 246,-263 240,-257 240,-251 240,-251 240,-239 240,-239 240,-233 246,-227 252,-227"/>
<text text-anchor="middle" x="328" y="-241.3" font-family="Helvetica,sans-Serif" font-size="14.00">pauseCandidateAddOn</text>
</g>
<!-- function_1_state_vars_node -->
<g id="node2" class="node">
<title>function_1_state_vars_node</title>
<path fill="#d1eeee" stroke="#d1eeee" d="M541.5,-429C541.5,-429 645.5,-429 645.5,-429 651.5,-429 657.5,-435 657.5,-441 657.5,-441 657.5,-453 657.5,-453 657.5,-459 651.5,-465 645.5,-465 645.5,-465 541.5,-465 541.5,-465 535.5,-465 529.5,-459 529.5,-453 529.5,-453 529.5,-441 529.5,-441 529.5,-435 535.5,-429 541.5,-429"/>
<text text-anchor="start" x="537.5" y="-443.3" font-family="Helvetica,sans-Serif" font-size="14.00">rollupConfigInfo</text>
</g>
<!-- pauseCandidateAddOn&#45;&gt;function_1_state_vars_node -->
<g id="edge5" class="edge">
<title>pauseCandidateAddOn&#45;&gt;function_1_state_vars_node</title>
<path fill="none" stroke="lightskyblue" d="M377.12,-309.57C404.71,-342.81 441.79,-381.76 482,-408 488.96,-412.54 496.51,-416.63 504.29,-420.29"/>
<ellipse fill="none" stroke="lightskyblue" cx="374.27" cy="-306.09" rx="4" ry="4"/>
<polygon fill="lightskyblue" stroke="lightskyblue" points="502.94,-423.52 513.5,-424.39 505.79,-417.12 502.94,-423.52"/>
</g>
<!-- _nonZeroAddress -->
<g id="node3" class="node">
<title>_nonZeroAddress</title>
<path fill="#d1eeee" stroke="#d1eeee" d="M537,-328C537,-328 650,-328 650,-328 656,-328 662,-334 662,-340 662,-340 662,-352 662,-352 662,-358 656,-364 650,-364 650,-364 537,-364 537,-364 531,-364 525,-358 525,-352 525,-352 525,-340 525,-340 525,-334 531,-328 537,-328"/>
<text text-anchor="middle" x="593.5" y="-342.3" font-family="Helvetica,sans-Serif" font-size="14.00">_nonZeroAddress</text>
</g>
<!-- pauseCandidateAddOn&#45;&gt;_nonZeroAddress -->
<g id="edge1" class="edge">
<title>pauseCandidateAddOn&#45;&gt;_nonZeroAddress</title>
<path fill="none" stroke="lightskyblue" d="M439.45,-290.45C453.72,-296.12 468.18,-301.77 482,-307 487.73,-309.17 493.63,-311.37 499.6,-313.56"/>
<ellipse fill="none" stroke="lightskyblue" cx="435.71" cy="-288.97" rx="4" ry="4"/>
<polygon fill="lightskyblue" stroke="lightskyblue" points="498.41,-316.85 509,-316.99 500.81,-310.27 498.41,-316.85"/>
</g>
<!-- abi.encodeWithSignature -->
<g id="node6" class="node">
<title>abi.encodeWithSignature</title>
<path fill="#d1eeee" stroke="#d1eeee" d="M510,-227C510,-227 677,-227 677,-227 683,-227 689,-233 689,-239 689,-239 689,-251 689,-251 689,-257 683,-263 677,-263 677,-263 510,-263 510,-263 504,-263 498,-257 498,-251 498,-251 498,-239 498,-239 498,-233 504,-227 510,-227"/>
<text text-anchor="middle" x="593.5" y="-241.3" font-family="Helvetica,sans-Serif" font-size="14.00">abi.encodeWithSignature</text>
</g>
<!-- pauseCandidateAddOn&#45;&gt;abi.encodeWithSignature -->
<g id="edge3" class="edge">
<title>pauseCandidateAddOn&#45;&gt;abi.encodeWithSignature</title>
<path fill="none" stroke="lightskyblue" d="M440.26,-245C450.61,-245 461.14,-245 471.57,-245"/>
<ellipse fill="none" stroke="lightskyblue" cx="436" cy="-245" rx="4" ry="4"/>
<polygon fill="lightskyblue" stroke="lightskyblue" points="472,-248.5 482,-245 472,-241.5 472,-248.5"/>
</g>
<!-- seigManager.call -->
<g id="node8" class="node">
<title>seigManager.call</title>
<path fill="#d1eeee" stroke="#d1eeee" d="M539.5,-126C539.5,-126 647.5,-126 647.5,-126 653.5,-126 659.5,-132 659.5,-138 659.5,-138 659.5,-150 659.5,-150 659.5,-156 653.5,-162 647.5,-162 647.5,-162 539.5,-162 539.5,-162 533.5,-162 527.5,-156 527.5,-150 527.5,-150 527.5,-138 527.5,-138 527.5,-132 533.5,-126 539.5,-126"/>
<text text-anchor="middle" x="593.5" y="-140.3" font-family="Helvetica,sans-Serif" font-size="14.00">seigManager.call</text>
</g>
<!-- pauseCandidateAddOn&#45;&gt;seigManager.call -->
<g id="edge7" class="edge">
<title>pauseCandidateAddOn&#45;&gt;seigManager.call</title>
<path fill="none" stroke="lightskyblue" d="M427.81,-207.12C452.19,-197.78 478.18,-187.82 502.13,-178.64"/>
<ellipse fill="none" stroke="lightskyblue" cx="424.04" cy="-208.57" rx="4" ry="4"/>
<polygon fill="lightskyblue" stroke="lightskyblue" points="503.42,-181.89 511.5,-175.05 500.91,-175.36 503.42,-181.89"/>
</g>
<!-- unpauseCandidateAddOn -->
<g id="node4" class="node">
<title>unpauseCandidateAddOn</title>
<path fill="#bfefff" stroke="#bfefff" d="M243,-56C243,-56 413,-56 413,-56 419,-56 425,-62 425,-68 425,-68 425,-80 425,-80 425,-86 419,-92 413,-92 413,-92 243,-92 243,-92 237,-92 231,-86 231,-80 231,-80 231,-68 231,-68 231,-62 237,-56 243,-56"/>
<text text-anchor="middle" x="328" y="-70.3" font-family="Helvetica,sans-Serif" font-size="14.00">unpauseCandidateAddOn</text>
</g>
<!-- function_3_state_vars_node -->
<g id="node5" class="node">
<title>function_3_state_vars_node</title>
<path fill="#d1eeee" stroke="#d1eeee" d="M541.5,-25C541.5,-25 645.5,-25 645.5,-25 651.5,-25 657.5,-31 657.5,-37 657.5,-37 657.5,-49 657.5,-49 657.5,-55 651.5,-61 645.5,-61 645.5,-61 541.5,-61 541.5,-61 535.5,-61 529.5,-55 529.5,-49 529.5,-49 529.5,-37 529.5,-37 529.5,-31 535.5,-25 541.5,-25"/>
<text text-anchor="start" x="537.5" y="-39.3" font-family="Helvetica,sans-Serif" font-size="14.00">rollupConfigInfo</text>
</g>
<!-- unpauseCandidateAddOn&#45;&gt;function_3_state_vars_node -->
<g id="edge2" class="edge">
<title>unpauseCandidateAddOn&#45;&gt;function_3_state_vars_node</title>
<path fill="none" stroke="lightskyblue" d="M449.32,-59.84C467.5,-57.71 485.97,-55.53 503.33,-53.49"/>
<ellipse fill="none" stroke="lightskyblue" cx="444.97" cy="-60.36" rx="4" ry="4"/>
<polygon fill="lightskyblue" stroke="lightskyblue" points="503.98,-56.94 513.5,-52.29 503.16,-49.99 503.98,-56.94"/>
</g>
<!-- _l1bridgeregistry -->
<g id="node7" class="node">
<title>_l1bridgeregistry</title>
<path fill="lightgrey" stroke="lightgrey" d="M36,-158C36,-158 146,-158 146,-158 152,-158 158,-164 158,-170 158,-170 158,-182 158,-182 158,-188 152,-194 146,-194 146,-194 36,-194 36,-194 30,-194 24,-188 24,-182 24,-182 24,-170 24,-170 24,-164 30,-158 36,-158"/>
<text text-anchor="middle" x="91" y="-172.3" font-family="Helvetica,sans-Serif" font-size="14.00">_l1bridgeregistry</text>
</g>
<!-- _l1bridgeregistry&#45;&gt;pauseCandidateAddOn -->
<g id="edge4" class="edge">
<title>_l1bridgeregistry&#45;&gt;pauseCandidateAddOn</title>
<path fill="none" stroke="lightskyblue" d="M181.7,-202.34C192.36,-205.47 203.34,-208.69 214.27,-211.9"/>
<ellipse fill="none" stroke="lightskyblue" cx="177.83" cy="-201.2" rx="4" ry="4"/>
<polygon fill="lightskyblue" stroke="lightskyblue" points="213.42,-215.3 224,-214.76 215.4,-208.58 213.42,-215.3"/>
</g>
<!-- _l1bridgeregistry&#45;&gt;unpauseCandidateAddOn -->
<g id="edge6" class="edge">
<title>_l1bridgeregistry&#45;&gt;unpauseCandidateAddOn</title>
<path fill="none" stroke="lightskyblue" d="M180.19,-137.72C188.49,-134.12 197,-130.42 205.54,-126.72"/>
<ellipse fill="none" stroke="lightskyblue" cx="176.3" cy="-139.41" rx="4" ry="4"/>
<polygon fill="lightskyblue" stroke="lightskyblue" points="207.22,-129.8 215,-122.61 204.44,-123.38 207.22,-129.8"/>
</g>
</g>
</svg>
