<?xml version="1.0" encoding="UTF-8" standalone="no"?>
<!DOCTYPE svg PUBLIC "-//W3C//DTD SVG 1.1//EN"
 "http://www.w3.org/Graphics/SVG/1.1/DTD/svg11.dtd">
<!-- Generated by graphviz version 2.43.0 (0)
 -->
<!-- Title: CandidateAddOnV1_1&#45;CandidateAddOnV1_1&#45;candidate Pages: 1 -->
<svg width="736pt" height="420pt"
 viewBox="0.00 0.00 736.00 420.00" xmlns="http://www.w3.org/2000/svg" xmlns:xlink="http://www.w3.org/1999/xlink">
<g id="graph0" class="graph" transform="scale(1 1) rotate(0) translate(4 416)">
<title>CandidateAddOnV1_1&#45;CandidateAddOnV1_1&#45;candidate</title>
<polygon fill="white" stroke="transparent" points="-4,4 -4,-416 732,-416 732,4 -4,4"/>
<g id="clust1" class="cluster">
<title>cluster_1</title>
<path fill="aliceblue" stroke="aliceblue" d="M12,-159C12,-159 136,-159 136,-159 142,-159 148,-165 148,-171 148,-171 148,-240 148,-240 148,-246 142,-252 136,-252 136,-252 12,-252 12,-252 6,-252 0,-246 0,-240 0,-240 0,-171 0,-171 0,-165 6,-159 12,-159"/>
<text text-anchor="middle" x="74" y="-236.8" font-family="Helvetica,sans-Serif" font-size="14.00">Authenticated Role</text>
</g>
<g id="clust2" class="cluster">
<title>cluster_2</title>
<path fill="aliceblue" stroke="aliceblue" d="M216,-311C216,-311 349,-311 349,-311 355,-311 361,-317 361,-323 361,-323 361,-392 361,-392 361,-398 355,-404 349,-404 349,-404 216,-404 216,-404 210,-404 204,-398 204,-392 204,-392 204,-323 204,-323 204,-317 210,-311 216,-311"/>
<text text-anchor="middle" x="282.5" y="-388.8" font-family="Helvetica,sans-Serif" font-size="14.00">Function</text>
</g>
<g id="clust3" class="cluster">
<title>cluster_3</title>
<path fill="aliceblue" stroke="aliceblue" d="M241,-210C241,-210 324,-210 324,-210 330,-210 336,-216 336,-222 336,-222 336,-291 336,-291 336,-297 330,-303 324,-303 324,-303 241,-303 241,-303 235,-303 229,-297 229,-291 229,-291 229,-222 229,-222 229,-216 235,-210 241,-210"/>
<text text-anchor="middle" x="282.5" y="-287.8" font-family="Helvetica,sans-Serif" font-size="14.00">Function</text>
</g>
<g id="clust4" class="cluster">
<title>cluster_4</title>
<path fill="aliceblue" stroke="aliceblue" d="M469,-210C469,-210 668,-210 668,-210 674,-210 680,-216 680,-222 680,-222 680,-291 680,-291 680,-297 674,-303 668,-303 668,-303 469,-303 469,-303 463,-303 457,-297 457,-291 457,-291 457,-222 457,-222 457,-216 463,-210 469,-210"/>
<text text-anchor="middle" x="568.5" y="-287.8" font-family="Helvetica,sans-Serif" font-size="14.00">External Calls</text>
</g>
<g id="clust5" class="cluster">
<title>cluster_5</title>
<path fill="aliceblue" stroke="aliceblue" d="M444.5,-311C444.5,-311 692.5,-311 692.5,-311 698.5,-311 704.5,-317 704.5,-323 704.5,-323 704.5,-392 704.5,-392 704.5,-398 698.5,-404 692.5,-404 692.5,-404 444.5,-404 444.5,-404 438.5,-404 432.5,-398 432.5,-392 432.5,-392 432.5,-323 432.5,-323 432.5,-317 438.5,-311 444.5,-311"/>
<text text-anchor="middle" x="568.5" y="-388.8" font-family="Helvetica,sans-Serif" font-size="14.00">External Calls</text>
</g>
<g id="clust6" class="cluster">
<title>cluster_6</title>
<path fill="aliceblue" stroke="aliceblue" d="M201,-109C201,-109 364,-109 364,-109 370,-109 376,-115 376,-121 376,-121 376,-190 376,-190 376,-196 370,-202 364,-202 364,-202 201,-202 201,-202 195,-202 189,-196 189,-190 189,-190 189,-121 189,-121 189,-115 195,-109 201,-109"/>
<text text-anchor="middle" x="282.5" y="-186.8" font-family="Helvetica,sans-Serif" font-size="14.00">Function</text>
</g>
<g id="clust7" class="cluster">
<title>cluster_7</title>
<path fill="aliceblue" stroke="aliceblue" d="M223.5,-8C223.5,-8 341.5,-8 341.5,-8 347.5,-8 353.5,-14 353.5,-20 353.5,-20 353.5,-89 353.5,-89 353.5,-95 347.5,-101 341.5,-101 341.5,-101 223.5,-101 223.5,-101 217.5,-101 211.5,-95 211.5,-89 211.5,-89 211.5,-20 211.5,-20 211.5,-14 217.5,-8 223.5,-8"/>
<text text-anchor="middle" x="282.5" y="-85.8" font-family="Helvetica,sans-Serif" font-size="14.00">Function</text>
</g>
<g id="clust8" class="cluster">
<title>cluster_8</title>
<path fill="aliceblue" stroke="aliceblue" d="M452,-8C452,-8 685,-8 685,-8 691,-8 697,-14 697,-20 697,-20 697,-89 697,-89 697,-95 691,-101 685,-101 685,-101 452,-101 452,-101 446,-101 440,-95 440,-89 440,-89 440,-20 440,-20 440,-14 446,-8 452,-8"/>
<text text-anchor="middle" x="568.5" y="-85.8" font-family="Helvetica,sans-Serif" font-size="14.00">External Calls</text>
</g>
<g id="clust9" class="cluster">
<title>cluster_9</title>
<path fill="aliceblue" stroke="aliceblue" d="M429,-109C429,-109 708,-109 708,-109 714,-109 720,-115 720,-121 720,-121 720,-190 720,-190 720,-196 714,-202 708,-202 708,-202 429,-202 429,-202 423,-202 417,-196 417,-190 417,-190 417,-121 417,-121 417,-115 423,-109 429,-109"/>
<text text-anchor="middle" x="568.5" y="-186.8" font-family="Helvetica,sans-Serif" font-size="14.00">External Calls</text>
</g>
<!-- candidate -->
<g id="node1" class="node">
<title>candidate</title>
<path fill="lightgrey" stroke="lightgrey" d="M43,-176C43,-176 104,-176 104,-176 110,-176 116,-182 116,-188 116,-188 116,-200 116,-200 116,-206 110,-212 104,-212 104,-212 43,-212 43,-212 37,-212 31,-206 31,-200 31,-200 31,-188 31,-188 31,-182 37,-176 43,-176"/>
<text text-anchor="middle" x="73.5" y="-190.3" font-family="Helvetica,sans-Serif" font-size="14.00">candidate</text>
</g>
<!-- changeMember -->
<g id="node2" class="node">
<title>changeMember</title>
<path fill="#bfefff" stroke="#bfefff" d="M232,-328C232,-328 333,-328 333,-328 339,-328 345,-334 345,-340 345,-340 345,-352 345,-352 345,-358 339,-364 333,-364 333,-364 232,-364 232,-364 226,-364 220,-358 220,-352 220,-352 220,-340 220,-340 220,-334 226,-328 232,-328"/>
<text text-anchor="middle" x="282.5" y="-342.3" font-family="Helvetica,sans-Serif" font-size="14.00">changeMember</text>
</g>
<!-- candidate&#45;&gt;changeMember -->
<g id="edge1" class="edge">
<title>candidate&#45;&gt;changeMember</title>
<path fill="none" stroke="lightskyblue" d="M130.71,-257.88C148.18,-275.32 168.33,-293.19 189,-307 190.93,-308.29 192.91,-309.55 194.93,-310.78"/>
<ellipse fill="none" stroke="lightskyblue" cx="127.7" cy="-254.84" rx="4" ry="4"/>
<polygon fill="lightskyblue" stroke="lightskyblue" points="193.59,-314.05 204,-316 197.08,-307.98 193.59,-314.05"/>
</g>
<!-- castVote -->
<g id="node3" class="node">
<title>castVote</title>
<path fill="#bfefff" stroke="#bfefff" d="M257,-227C257,-227 308,-227 308,-227 314,-227 320,-233 320,-239 320,-239 320,-251 320,-251 320,-257 314,-263 308,-263 308,-263 257,-263 257,-263 251,-263 245,-257 245,-251 245,-251 245,-239 245,-239 245,-233 251,-227 257,-227"/>
<text text-anchor="middle" x="282.5" y="-241.3" font-family="Helvetica,sans-Serif" font-size="14.00">castVote</text>
</g>
<!-- candidate&#45;&gt;castVote -->
<g id="edge4" class="edge">
<title>candidate&#45;&gt;castVote</title>
<path fill="none" stroke="lightskyblue" d="M155.96,-214.07C176.92,-219.23 199.15,-224.71 218.99,-229.6"/>
<ellipse fill="none" stroke="lightskyblue" cx="151.88" cy="-213.06" rx="4" ry="4"/>
<polygon fill="lightskyblue" stroke="lightskyblue" points="218.46,-233.07 229,-232.07 220.13,-226.28 218.46,-233.07"/>
</g>
<!-- claimActivityReward -->
<g id="node6" class="node">
<title>claimActivityReward</title>
<path fill="#bfefff" stroke="#bfefff" d="M217,-126C217,-126 348,-126 348,-126 354,-126 360,-132 360,-138 360,-138 360,-150 360,-150 360,-156 354,-162 348,-162 348,-162 217,-162 217,-162 211,-162 205,-156 205,-150 205,-150 205,-138 205,-138 205,-132 211,-126 217,-126"/>
<text text-anchor="middle" x="282.5" y="-140.3" font-family="Helvetica,sans-Serif" font-size="14.00">claimActivityReward</text>
</g>
<!-- candidate&#45;&gt;claimActivityReward -->
<g id="edge5" class="edge">
<title>candidate&#45;&gt;claimActivityReward</title>
<path fill="none" stroke="lightskyblue" d="M156.1,-174.29C163.64,-172.47 171.34,-170.61 179.03,-168.75"/>
<ellipse fill="none" stroke="lightskyblue" cx="151.88" cy="-175.31" rx="4" ry="4"/>
<polygon fill="lightskyblue" stroke="lightskyblue" points="180.1,-172.09 189,-166.34 178.46,-165.29 180.1,-172.09"/>
</g>
<!-- retireMember -->
<g id="node7" class="node">
<title>retireMember</title>
<path fill="#bfefff" stroke="#bfefff" d="M239.5,-25C239.5,-25 325.5,-25 325.5,-25 331.5,-25 337.5,-31 337.5,-37 337.5,-37 337.5,-49 337.5,-49 337.5,-55 331.5,-61 325.5,-61 325.5,-61 239.5,-61 239.5,-61 233.5,-61 227.5,-55 227.5,-49 227.5,-49 227.5,-37 227.5,-37 227.5,-31 233.5,-25 239.5,-25"/>
<text text-anchor="middle" x="282.5" y="-39.3" font-family="Helvetica,sans-Serif" font-size="14.00">retireMember</text>
</g>
<!-- candidate&#45;&gt;retireMember -->
<g id="edge7" class="edge">
<title>candidate&#45;&gt;retireMember</title>
<path fill="none" stroke="lightskyblue" d="M124.36,-154.02C144.24,-138.41 167.47,-120.56 189,-105 193.63,-101.65 198.43,-98.26 203.28,-94.86"/>
<ellipse fill="none" stroke="lightskyblue" cx="121.18" cy="-156.53" rx="4" ry="4"/>
<polygon fill="lightskyblue" stroke="lightskyblue" points="205.28,-97.73 211.5,-89.16 201.29,-91.98 205.28,-97.73"/>
</g>
<!-- IDAOCommittee.changeMember -->
<g id="node5" class="node">
<title>IDAOCommittee.changeMember</title>
<path fill="#d1eeee" stroke="#d1eeee" d="M460.5,-328C460.5,-328 676.5,-328 676.5,-328 682.5,-328 688.5,-334 688.5,-340 688.5,-340 688.5,-352 688.5,-352 688.5,-358 682.5,-364 676.5,-364 676.5,-364 460.5,-364 460.5,-364 454.5,-364 448.5,-358 448.5,-352 448.5,-352 448.5,-340 448.5,-340 448.5,-334 454.5,-328 460.5,-328"/>
<text text-anchor="middle" x="568.5" y="-342.3" font-family="Helvetica,sans-Serif" font-size="14.00">IDAOCommittee.changeMember</text>
</g>
<!-- changeMember&#45;&gt;IDAOCommittee.changeMember -->
<g id="edge3" class="edge">
<title>changeMember&#45;&gt;IDAOCommittee.changeMember</title>
<path fill="none" stroke="lightskyblue" d="M369.15,-346C385.98,-346 404.07,-346 422.24,-346"/>
<ellipse fill="none" stroke="lightskyblue" cx="365" cy="-346" rx="4" ry="4"/>
<polygon fill="lightskyblue" stroke="lightskyblue" points="422.51,-349.5 432.5,-346 422.5,-342.5 422.51,-349.5"/>
</g>
<!-- IDAOCommittee.castVote -->
<g id="node4" class="node">
<title>IDAOCommittee.castVote</title>
<path fill="#d1eeee" stroke="#d1eeee" d="M485,-227C485,-227 652,-227 652,-227 658,-227 664,-233 664,-239 664,-239 664,-251 664,-251 664,-257 658,-263 652,-263 652,-263 485,-263 485,-263 479,-263 473,-257 473,-251 473,-251 473,-239 473,-239 473,-233 479,-227 485,-227"/>
<text text-anchor="middle" x="568.5" y="-241.3" font-family="Helvetica,sans-Serif" font-size="14.00">IDAOCommittee.castVote</text>
</g>
<!-- castVote&#45;&gt;IDAOCommittee.castVote -->
<g id="edge2" class="edge">
<title>castVote&#45;&gt;IDAOCommittee.castVote</title>
<path fill="none" stroke="lightskyblue" d="M344.25,-245C374.24,-245 411.52,-245 446.97,-245"/>
<ellipse fill="none" stroke="lightskyblue" cx="340" cy="-245" rx="4" ry="4"/>
<polygon fill="lightskyblue" stroke="lightskyblue" points="447,-248.5 457,-245 447,-241.5 447,-248.5"/>
</g>
<!-- IDAOCommittee.claimActivityReward -->
<g id="node9" class="node">
<title>IDAOCommittee.claimActivityReward</title>
<path fill="#d1eeee" stroke="#d1eeee" d="M445,-126C445,-126 692,-126 692,-126 698,-126 704,-132 704,-138 704,-138 704,-150 704,-150 704,-156 698,-162 692,-162 692,-162 445,-162 445,-162 439,-162 433,-156 433,-150 433,-150 433,-138 433,-138 433,-132 439,-126 445,-126"/>
<text text-anchor="middle" x="568.5" y="-140.3" font-family="Helvetica,sans-Serif" font-size="14.00">IDAOCommittee.claimActivityReward</text>
</g>
<!-- claimActivityReward&#45;&gt;IDAOCommittee.claimActivityReward -->
<g id="edge8" class="edge">
<title>claimActivityReward&#45;&gt;IDAOCommittee.claimActivityReward</title>
<path fill="none" stroke="lightskyblue" d="M384.05,-144C391.54,-144 399.19,-144 406.92,-144"/>
<ellipse fill="none" stroke="lightskyblue" cx="380" cy="-144" rx="4" ry="4"/>
<polygon fill="lightskyblue" stroke="lightskyblue" points="407,-147.5 417,-144 407,-140.5 407,-147.5"/>
</g>
<!-- IDAOCommittee.retireMember -->
<g id="node8" class="node">
<title>IDAOCommittee.retireMember</title>
<path fill="#d1eeee" stroke="#d1eeee" d="M468,-25C468,-25 669,-25 669,-25 675,-25 681,-31 681,-37 681,-37 681,-49 681,-49 681,-55 675,-61 669,-61 669,-61 468,-61 468,-61 462,-61 456,-55 456,-49 456,-49 456,-37 456,-37 456,-31 462,-25 468,-25"/>
<text text-anchor="middle" x="568.5" y="-39.3" font-family="Helvetica,sans-Serif" font-size="14.00">IDAOCommittee.retireMember</text>
</g>
<!-- retireMember&#45;&gt;IDAOCommittee.retireMember -->
<g id="edge6" class="edge">
<title>retireMember&#45;&gt;IDAOCommittee.retireMember</title>
<path fill="none" stroke="lightskyblue" d="M361.52,-43C382.79,-43 406.47,-43 429.99,-43"/>
<ellipse fill="none" stroke="lightskyblue" cx="357.5" cy="-43" rx="4" ry="4"/>
<polygon fill="lightskyblue" stroke="lightskyblue" points="430,-46.5 440,-43 430,-39.5 430,-46.5"/>
</g>
</g>
</svg>
