<?xml version="1.0" encoding="UTF-8" standalone="no"?>
<!DOCTYPE svg PUBLIC "-//W3C//DTD SVG 1.1//EN"
 "http://www.w3.org/Graphics/SVG/1.1/DTD/svg11.dtd">
<!-- Generated by graphviz version 2.43.0 (0)
 -->
<!-- Title: OperatorManagerV1_1&#45;OperatorManagerV1_1&#45;_candidateaddon Pages: 1 -->
<svg width="689pt" height="420pt"
 viewBox="0.00 0.00 689.00 420.00" xmlns="http://www.w3.org/2000/svg" xmlns:xlink="http://www.w3.org/1999/xlink">
<g id="graph0" class="graph" transform="scale(1 1) rotate(0) translate(4 416)">
<title>OperatorManagerV1_1&#45;OperatorManagerV1_1&#45;_candidateaddon</title>
<polygon fill="white" stroke="transparent" points="-4,4 -4,-416 685,-416 685,4 -4,4"/>
<g id="clust1" class="cluster">
<title>cluster_1</title>
<path fill="aliceblue" stroke="aliceblue" d="M20,-173C20,-173 163,-173 163,-173 169,-173 175,-179 175,-185 175,-185 175,-254 175,-254 175,-260 169,-266 163,-266 163,-266 20,-266 20,-266 14,-266 8,-260 8,-254 8,-254 8,-185 8,-185 8,-179 14,-173 20,-173"/>
<text text-anchor="middle" x="91.5" y="-250.8" font-family="Helvetica,sans-Serif" font-size="14.00">Authenticated Role</text>
</g>
<g id="clust2" class="cluster">
<title>cluster_2</title>
<path fill="aliceblue" stroke="aliceblue" d="M235,-173C235,-173 432,-173 432,-173 438,-173 444,-179 444,-185 444,-185 444,-272 444,-272 444,-278 438,-284 432,-284 432,-284 235,-284 235,-284 229,-284 223,-278 223,-272 223,-272 223,-185 223,-185 223,-179 229,-173 235,-173"/>
<text text-anchor="middle" x="333.5" y="-268.8" font-family="Helvetica,sans-Serif" font-size="14.00">Function</text>
</g>
<g id="clust3" class="cluster">
<title>cluster_3</title>
<path fill="aliceblue" stroke="aliceblue" d="M228,-53C228,-53 439,-53 439,-53 445,-53 451,-59 451,-65 451,-65 451,-134 451,-134 451,-140 445,-146 439,-146 439,-146 228,-146 228,-146 222,-146 216,-140 216,-134 216,-134 216,-65 216,-65 216,-59 222,-53 228,-53"/>
<text text-anchor="middle" x="333.5" y="-130.8" font-family="Helvetica,sans-Serif" font-size="14.00">Function</text>
</g>
<g id="clust5" class="cluster">
<title>cluster_5</title>
<path fill="aliceblue" stroke="aliceblue" d="M507.5,-311C507.5,-311 657.5,-311 657.5,-311 663.5,-311 669.5,-317 669.5,-323 669.5,-323 669.5,-392 669.5,-392 669.5,-398 663.5,-404 657.5,-404 657.5,-404 507.5,-404 507.5,-404 501.5,-404 495.5,-398 495.5,-392 495.5,-392 495.5,-323 495.5,-323 495.5,-317 501.5,-311 507.5,-311"/>
<text text-anchor="middle" x="582.5" y="-388.8" font-family="Helvetica,sans-Serif" font-size="14.00">External Calls</text>
</g>
<g id="clust6" class="cluster">
<title>cluster_6</title>
<path fill="aliceblue" stroke="aliceblue" d="M504,-210C504,-210 661,-210 661,-210 667,-210 673,-216 673,-222 673,-222 673,-291 673,-291 673,-297 667,-303 661,-303 661,-303 504,-303 504,-303 498,-303 492,-297 492,-291 492,-291 492,-222 492,-222 492,-216 498,-210 504,-210"/>
<text text-anchor="middle" x="582.5" y="-287.8" font-family="Helvetica,sans-Serif" font-size="14.00">External Calls</text>
</g>
<g id="clust8" class="cluster">
<title>cluster_8</title>
<path fill="aliceblue" stroke="aliceblue" d="M541.5,-109C541.5,-109 624.5,-109 624.5,-109 630.5,-109 636.5,-115 636.5,-121 636.5,-121 636.5,-190 636.5,-190 636.5,-196 630.5,-202 624.5,-202 624.5,-202 541.5,-202 541.5,-202 535.5,-202 529.5,-196 529.5,-190 529.5,-190 529.5,-121 529.5,-121 529.5,-115 535.5,-109 541.5,-109"/>
<text text-anchor="middle" x="583" y="-186.8" font-family="Helvetica,sans-Serif" font-size="14.00">Internal Calls</text>
</g>
<g id="clust9" class="cluster">
<title>cluster_9</title>
<path fill="aliceblue" stroke="aliceblue" d="M534,-8C534,-8 631,-8 631,-8 637,-8 643,-14 643,-20 643,-20 643,-89 643,-89 643,-95 637,-101 631,-101 631,-101 534,-101 534,-101 528,-101 522,-95 522,-89 522,-89 522,-20 522,-20 522,-14 528,-8 534,-8"/>
<text text-anchor="middle" x="582.5" y="-85.8" font-family="Helvetica,sans-Serif" font-size="14.00">Internal Calls</text>
</g>
<!-- _candidateaddon -->
<g id="node1" class="node">
<title>_candidateaddon</title>
<path fill="lightgrey" stroke="lightgrey" d="M36,-190C36,-190 147,-190 147,-190 153,-190 159,-196 159,-202 159,-202 159,-214 159,-214 159,-220 153,-226 147,-226 147,-226 36,-226 36,-226 30,-226 24,-220 24,-214 24,-214 24,-202 24,-202 24,-196 30,-190 36,-190"/>
<text text-anchor="middle" x="91.5" y="-204.3" font-family="Helvetica,sans-Serif" font-size="14.00">_candidateaddon</text>
</g>
<!-- claimByCandidateAddOn -->
<g id="node2" class="node">
<title>claimByCandidateAddOn</title>
<path fill="#d1eeee" stroke="#d1eeee" d="M251,-190C251,-190 416,-190 416,-190 422,-190 428,-196 428,-202 428,-202 428,-214 428,-214 428,-220 422,-226 416,-226 416,-226 251,-226 251,-226 245,-226 239,-220 239,-214 239,-214 239,-202 239,-202 239,-196 245,-190 251,-190"/>
<text text-anchor="middle" x="333.5" y="-204.3" font-family="Helvetica,sans-Serif" font-size="14.00">claimByCandidateAddOn</text>
</g>
<!-- _candidateaddon&#45;&gt;claimByCandidateAddOn -->
<g id="edge1" class="edge">
<title>_candidateaddon&#45;&gt;claimByCandidateAddOn</title>
<path fill="none" stroke="lightskyblue" d="M183.09,-201.43C192.82,-201.31 202.82,-201.25 212.81,-201.25"/>
<ellipse fill="none" stroke="lightskyblue" cx="178.99" cy="-201.49" rx="4" ry="4"/>
<polygon fill="lightskyblue" stroke="lightskyblue" points="212.99,-204.75 223,-201.27 213.01,-197.75 212.99,-204.75"/>
</g>
<!-- _candidateaddon&#45;&gt;claimByCandidateAddOn -->
<g id="edge3" class="edge">
<title>_candidateaddon&#45;&gt;claimByCandidateAddOn</title>
<path fill="none" stroke="lightskyblue" d="M183.2,-214.57C198.08,-214.76 213.61,-214.8 228.79,-214.69"/>
<ellipse fill="none" stroke="lightskyblue" cx="179" cy="-214.51" rx="4" ry="4"/>
<polygon fill="lightskyblue" stroke="lightskyblue" points="228.91,-218.19 238.88,-214.6 228.85,-211.19 228.91,-218.19"/>
</g>
<!-- depositByCandidateAddOn -->
<g id="node3" class="node">
<title>depositByCandidateAddOn</title>
<path fill="#bfefff" stroke="#bfefff" d="M244,-70C244,-70 423,-70 423,-70 429,-70 435,-76 435,-82 435,-82 435,-94 435,-94 435,-100 429,-106 423,-106 423,-106 244,-106 244,-106 238,-106 232,-100 232,-94 232,-94 232,-82 232,-82 232,-76 238,-70 244,-70"/>
<text text-anchor="middle" x="333.5" y="-84.3" font-family="Helvetica,sans-Serif" font-size="14.00">depositByCandidateAddOn</text>
</g>
<!-- _candidateaddon&#45;&gt;depositByCandidateAddOn -->
<g id="edge2" class="edge">
<title>_candidateaddon&#45;&gt;depositByCandidateAddOn</title>
<path fill="none" stroke="lightskyblue" d="M169.9,-169.3C181.95,-163.28 194.65,-156.92 207.43,-150.53"/>
<ellipse fill="none" stroke="lightskyblue" cx="166.07" cy="-171.21" rx="4" ry="4"/>
<polygon fill="lightskyblue" stroke="lightskyblue" points="209.13,-153.6 216.51,-146 206,-147.34 209.13,-153.6"/>
</g>
<!-- claimByCandidateAddOn&#45;&gt;claimByCandidateAddOn -->
<g id="edge6" class="edge">
<title>claimByCandidateAddOn&#45;&gt;claimByCandidateAddOn</title>
<path fill="none" stroke="lightskyblue" d="M308.24,-234.2C310.49,-240.15 318.91,-244.5 333.5,-244.5 346.47,-244.5 354.57,-241.06 357.78,-236.12"/>
<ellipse fill="none" stroke="lightskyblue" cx="308.47" cy="-230.02" rx="4" ry="4"/>
<polygon fill="lightskyblue" stroke="lightskyblue" points="361.28,-236.2 358.31,-226.03 354.29,-235.83 361.28,-236.2"/>
</g>
<!-- IERC20.balanceOf -->
<g id="node4" class="node">
<title>IERC20.balanceOf</title>
<path fill="#d1eeee" stroke="#d1eeee" d="M523.5,-328C523.5,-328 641.5,-328 641.5,-328 647.5,-328 653.5,-334 653.5,-340 653.5,-340 653.5,-352 653.5,-352 653.5,-358 647.5,-364 641.5,-364 641.5,-364 523.5,-364 523.5,-364 517.5,-364 511.5,-358 511.5,-352 511.5,-352 511.5,-340 511.5,-340 511.5,-334 517.5,-328 523.5,-328"/>
<text text-anchor="middle" x="582.5" y="-342.3" font-family="Helvetica,sans-Serif" font-size="14.00">IERC20.balanceOf</text>
</g>
<!-- claimByCandidateAddOn&#45;&gt;IERC20.balanceOf -->
<g id="edge4" class="edge">
<title>claimByCandidateAddOn&#45;&gt;IERC20.balanceOf</title>
<path fill="none" stroke="lightskyblue" d="M451.06,-283.77C463.87,-291.32 477.24,-298.91 490.91,-306.28"/>
<ellipse fill="none" stroke="lightskyblue" cx="447.44" cy="-281.62" rx="4" ry="4"/>
<polygon fill="lightskyblue" stroke="lightskyblue" points="489.3,-309.39 499.77,-311 492.59,-303.21 489.3,-309.39"/>
</g>
<!-- IWTON.swapToTON -->
<g id="node5" class="node">
<title>IWTON.swapToTON</title>
<path fill="#d1eeee" stroke="#d1eeee" d="M520,-227C520,-227 645,-227 645,-227 651,-227 657,-233 657,-239 657,-239 657,-251 657,-251 657,-257 651,-263 645,-263 645,-263 520,-263 520,-263 514,-263 508,-257 508,-251 508,-251 508,-239 508,-239 508,-233 514,-227 520,-227"/>
<text text-anchor="middle" x="582.5" y="-241.3" font-family="Helvetica,sans-Serif" font-size="14.00">IWTON.swapToTON</text>
</g>
<!-- claimByCandidateAddOn&#45;&gt;IWTON.swapToTON -->
<g id="edge5" class="edge">
<title>claimByCandidateAddOn&#45;&gt;IWTON.swapToTON</title>
<path fill="none" stroke="lightskyblue" d="M451.96,-225.6C461.92,-227.09 471.93,-228.59 481.73,-230.05"/>
<ellipse fill="none" stroke="lightskyblue" cx="447.95" cy="-224.99" rx="4" ry="4"/>
<polygon fill="lightskyblue" stroke="lightskyblue" points="481.59,-233.57 492,-231.59 482.63,-226.65 481.59,-233.57"/>
</g>
<!-- _claim -->
<g id="node6" class="node">
<title>_claim</title>
<path fill="#d1eeee" stroke="#d1eeee" d="M564.5,-126C564.5,-126 600.5,-126 600.5,-126 606.5,-126 612.5,-132 612.5,-138 612.5,-138 612.5,-150 612.5,-150 612.5,-156 606.5,-162 600.5,-162 600.5,-162 564.5,-162 564.5,-162 558.5,-162 552.5,-156 552.5,-150 552.5,-150 552.5,-138 552.5,-138 552.5,-132 558.5,-126 564.5,-126"/>
<text text-anchor="middle" x="582.5" y="-140.3" font-family="Helvetica,sans-Serif" font-size="14.00">_claim</text>
</g>
<!-- claimByCandidateAddOn&#45;&gt;_claim -->
<g id="edge7" class="edge">
<title>claimByCandidateAddOn&#45;&gt;_claim</title>
<path fill="none" stroke="lightskyblue" d="M451.92,-177.58C475.33,-171.51 499.03,-165.37 519.65,-160.03"/>
<ellipse fill="none" stroke="lightskyblue" cx="447.87" cy="-178.62" rx="4" ry="4"/>
<polygon fill="lightskyblue" stroke="lightskyblue" points="520.7,-163.37 529.5,-157.47 518.94,-156.59 520.7,-163.37"/>
</g>
<!-- _depositTo -->
<g id="node7" class="node">
<title>_depositTo</title>
<path fill="#d1eeee" stroke="#d1eeee" d="M550,-25C550,-25 615,-25 615,-25 621,-25 627,-31 627,-37 627,-37 627,-49 627,-49 627,-55 621,-61 615,-61 615,-61 550,-61 550,-61 544,-61 538,-55 538,-49 538,-49 538,-37 538,-37 538,-31 544,-25 550,-25"/>
<text text-anchor="middle" x="582.5" y="-39.3" font-family="Helvetica,sans-Serif" font-size="14.00">_depositTo</text>
</g>
<!-- depositByCandidateAddOn&#45;&gt;_depositTo -->
<g id="edge8" class="edge">
<title>depositByCandidateAddOn&#45;&gt;_depositTo</title>
<path fill="none" stroke="lightskyblue" d="M459.34,-65.26C477.51,-61.95 495.64,-58.64 512.16,-55.63"/>
<ellipse fill="none" stroke="lightskyblue" cx="454.93" cy="-66.06" rx="4" ry="4"/>
<polygon fill="lightskyblue" stroke="lightskyblue" points="512.79,-59.08 522,-53.84 511.54,-52.19 512.79,-59.08"/>
</g>
</g>
</svg>
