<?xml version="1.0" encoding="UTF-8" standalone="no"?>
<!DOCTYPE svg PUBLIC "-//W3C//DTD SVG 1.1//EN"
 "http://www.w3.org/Graphics/SVG/1.1/DTD/svg11.dtd">
<!-- Generated by graphviz version 2.43.0 (0)
 -->
<!-- Title: L1BridgeRegistryV1_1&#45;L1BridgeRegistryV1_1&#45;MANAGER_ROLE Pages: 1 -->
<svg width="733pt" height="218pt"
 viewBox="0.00 0.00 733.00 218.00" xmlns="http://www.w3.org/2000/svg" xmlns:xlink="http://www.w3.org/1999/xlink">
<g id="graph0" class="graph" transform="scale(1 1) rotate(0) translate(4 214)">
<title>L1BridgeRegistryV1_1&#45;L1BridgeRegistryV1_1&#45;MANAGER_ROLE</title>
<polygon fill="white" stroke="transparent" points="-4,4 -4,-214 729,-214 729,4 -4,4"/>
<g id="clust1" class="cluster">
<title>cluster_1</title>
<path fill="aliceblue" stroke="aliceblue" d="M224,-36C224,-36 468,-36 468,-36 474,-36 480,-42 480,-48 480,-48 480,-117 480,-117 480,-123 474,-129 468,-129 468,-129 224,-129 224,-129 218,-129 212,-123 212,-117 212,-117 212,-48 212,-48 212,-42 218,-36 224,-36"/>
<text text-anchor="middle" x="346" y="-113.8" font-family="Helvetica,sans-Serif" font-size="14.00">Function</text>
</g>
<g id="clust2" class="cluster">
<title>cluster_2</title>
<path fill="aliceblue" stroke="aliceblue" d="M533,-109C533,-109 705,-109 705,-109 711,-109 717,-115 717,-121 717,-121 717,-190 717,-190 717,-196 711,-202 705,-202 705,-202 533,-202 533,-202 527,-202 521,-196 521,-190 521,-190 521,-121 521,-121 521,-115 527,-109 533,-109"/>
<text text-anchor="middle" x="619" y="-186.8" font-family="Helvetica,sans-Serif" font-size="14.00">Internal Calls</text>
</g>
<g id="clust3" class="cluster">
<title>cluster_3</title>
<path fill="aliceblue" stroke="aliceblue" d="M20,-36C20,-36 159,-36 159,-36 165,-36 171,-42 171,-48 171,-48 171,-117 171,-117 171,-123 165,-129 159,-129 159,-129 20,-129 20,-129 14,-129 8,-123 8,-117 8,-117 8,-48 8,-48 8,-42 14,-36 20,-36"/>
<text text-anchor="middle" x="89.5" y="-113.8" font-family="Helvetica,sans-Serif" font-size="14.00">Authenticated Role</text>
</g>
<g id="clust5" class="cluster">
<title>cluster_5</title>
<path fill="aliceblue" stroke="aliceblue" d="M560.5,-8C560.5,-8 677.5,-8 677.5,-8 683.5,-8 689.5,-14 689.5,-20 689.5,-20 689.5,-89 689.5,-89 689.5,-95 683.5,-101 677.5,-101 677.5,-101 560.5,-101 560.5,-101 554.5,-101 548.5,-95 548.5,-89 548.5,-89 548.5,-20 548.5,-20 548.5,-14 554.5,-8 560.5,-8"/>
<text text-anchor="middle" x="619" y="-85.8" font-family="Helvetica,sans-Serif" font-size="14.00">Internal Calls</text>
</g>
<!-- registerRollupConfigByManager -->
<g id="node1" class="node">
<title>registerRollupConfigByManager</title>
<path fill="#bfefff" stroke="#bfefff" d="M240,-53C240,-53 452,-53 452,-53 458,-53 464,-59 464,-65 464,-65 464,-77 464,-77 464,-83 458,-89 452,-89 452,-89 240,-89 240,-89 234,-89 228,-83 228,-77 228,-77 228,-65 228,-65 228,-59 234,-53 240,-53"/>
<text text-anchor="middle" x="346" y="-67.3" font-family="Helvetica,sans-Serif" font-size="14.00">registerRollupConfigByManager</text>
</g>
<!-- _registerRollupConfig -->
<g id="node2" class="node">
<title>_registerRollupConfig</title>
<path fill="#d1eeee" stroke="#d1eeee" d="M549,-126C549,-126 689,-126 689,-126 695,-126 701,-132 701,-138 701,-138 701,-150 701,-150 701,-156 695,-162 689,-162 689,-162 549,-162 549,-162 543,-162 537,-156 537,-150 537,-150 537,-138 537,-138 537,-132 543,-126 549,-126"/>
<text text-anchor="middle" x="619" y="-140.3" font-family="Helvetica,sans-Serif" font-size="14.00">_registerRollupConfig</text>
</g>
<!-- registerRollupConfigByManager&#45;&gt;_registerRollupConfig -->
<g id="edge1" class="edge">
<title>registerRollupConfigByManager&#45;&gt;_registerRollupConfig</title>
<path fill="none" stroke="lightskyblue" d="M487.84,-102.19C495.69,-104.32 503.5,-106.47 511.19,-108.62"/>
<ellipse fill="none" stroke="lightskyblue" cx="483.86" cy="-101.12" rx="4" ry="4"/>
<polygon fill="lightskyblue" stroke="lightskyblue" points="510.43,-112.04 521,-111.37 512.32,-105.3 510.43,-112.04"/>
</g>
<!-- registerRollupConfigByManager&#45;&gt;_registerRollupConfig -->
<g id="edge5" class="edge">
<title>registerRollupConfigByManager&#45;&gt;_registerRollupConfig</title>
<path fill="none" stroke="lightskyblue" d="M402.55,-91.54C433.84,-101.02 473.99,-112.18 511.13,-121.83"/>
<ellipse fill="none" stroke="lightskyblue" cx="398.34" cy="-90.25" rx="4" ry="4"/>
<polygon fill="lightskyblue" stroke="lightskyblue" points="510.44,-125.26 521,-124.37 512.19,-118.49 510.44,-125.26"/>
</g>
<!-- _nonRejected -->
<g id="node4" class="node">
<title>_nonRejected</title>
<path fill="#d1eeee" stroke="#d1eeee" d="M576.5,-25C576.5,-25 661.5,-25 661.5,-25 667.5,-25 673.5,-31 673.5,-37 673.5,-37 673.5,-49 673.5,-49 673.5,-55 667.5,-61 661.5,-61 661.5,-61 576.5,-61 576.5,-61 570.5,-61 564.5,-55 564.5,-49 564.5,-49 564.5,-37 564.5,-37 564.5,-31 570.5,-25 576.5,-25"/>
<text text-anchor="middle" x="619" y="-39.3" font-family="Helvetica,sans-Serif" font-size="14.00">_nonRejected</text>
</g>
<!-- registerRollupConfigByManager&#45;&gt;_nonRejected -->
<g id="edge3" class="edge">
<title>registerRollupConfigByManager&#45;&gt;_nonRejected</title>
<path fill="none" stroke="lightskyblue" d="M487.97,-49.69C505.33,-47.93 522.56,-46.33 538.53,-45"/>
<ellipse fill="none" stroke="lightskyblue" cx="483.98" cy="-50.1" rx="4" ry="4"/>
<polygon fill="lightskyblue" stroke="lightskyblue" points="538.82,-48.49 548.5,-44.2 538.26,-41.51 538.82,-48.49"/>
</g>
<!-- registerRollupConfigByManager&#45;&gt;_nonRejected -->
<g id="edge6" class="edge">
<title>registerRollupConfigByManager&#45;&gt;_nonRejected</title>
<path fill="none" stroke="lightskyblue" d="M472.49,-64.77C494.96,-62.52 517.8,-59.99 538.52,-57.42"/>
<ellipse fill="none" stroke="lightskyblue" cx="468.27" cy="-65.18" rx="4" ry="4"/>
<polygon fill="lightskyblue" stroke="lightskyblue" points="539.02,-60.89 548.5,-56.16 538.15,-53.94 539.02,-60.89"/>
</g>
<!-- MANAGER_ROLE -->
<g id="node3" class="node">
<title>MANAGER_ROLE</title>
<path fill="lightgrey" stroke="lightgrey" d="M36,-53C36,-53 143,-53 143,-53 149,-53 155,-59 155,-65 155,-65 155,-77 155,-77 155,-83 149,-89 143,-89 143,-89 36,-89 36,-89 30,-89 24,-83 24,-77 24,-77 24,-65 24,-65 24,-59 30,-53 36,-53"/>
<text text-anchor="middle" x="89.5" y="-67.3" font-family="Helvetica,sans-Serif" font-size="14.00">MANAGER_ROLE</text>
</g>
<!-- MANAGER_ROLE&#45;&gt;registerRollupConfigByManager -->
<g id="edge2" class="edge">
<title>MANAGER_ROLE&#45;&gt;registerRollupConfigByManager</title>
<path fill="none" stroke="lightskyblue" d="M179.09,-64.53C191.53,-64.35 204.51,-64.25 217.5,-64.25"/>
<ellipse fill="none" stroke="lightskyblue" cx="175" cy="-64.6" rx="4" ry="4"/>
<polygon fill="lightskyblue" stroke="lightskyblue" points="217.53,-67.75 227.53,-64.27 217.54,-60.75 217.53,-67.75"/>
</g>
<!-- MANAGER_ROLE&#45;&gt;registerRollupConfigByManager -->
<g id="edge4" class="edge">
<title>MANAGER_ROLE&#45;&gt;registerRollupConfigByManager</title>
<path fill="none" stroke="lightskyblue" d="M179.47,-77.47C186.76,-77.58 194.24,-77.66 201.8,-77.7"/>
<ellipse fill="none" stroke="lightskyblue" cx="175" cy="-77.4" rx="4" ry="4"/>
<polygon fill="lightskyblue" stroke="lightskyblue" points="201.99,-81.2 212,-77.74 202.02,-74.2 201.99,-81.2"/>
</g>
</g>
</svg>
