<?xml version="1.0" encoding="UTF-8" standalone="no"?>
<!DOCTYPE svg PUBLIC "-//W3C//DTD SVG 1.1//EN"
 "http://www.w3.org/Graphics/SVG/1.1/DTD/svg11.dtd">
<!-- Generated by graphviz version 2.43.0 (0)
 -->
<!-- Title: CandidateAddOnV1_1&#45;CandidateAddOnV1_1&#45;DEFAULT_ADMIN_ROLE Pages: 1 -->
<svg width="683pt" height="544pt"
 viewBox="0.00 0.00 683.00 544.00" xmlns="http://www.w3.org/2000/svg" xmlns:xlink="http://www.w3.org/1999/xlink">
<g id="graph0" class="graph" transform="scale(1 1) rotate(0) translate(4 540)">
<title>CandidateAddOnV1_1&#45;CandidateAddOnV1_1&#45;DEFAULT_ADMIN_ROLE</title>
<polygon fill="white" stroke="transparent" points="-4,4 -4,-540 679,-540 679,4 -4,4"/>
<g id="clust1" class="cluster">
<title>cluster_1</title>
<path fill="aliceblue" stroke="aliceblue" d="M272,-180C272,-180 354,-180 354,-180 360,-180 366,-186 366,-192 366,-192 366,-261 366,-261 366,-267 360,-273 354,-273 354,-273 272,-273 272,-273 266,-273 260,-267 260,-261 260,-261 260,-192 260,-192 260,-186 266,-180 272,-180"/>
<text text-anchor="middle" x="313" y="-257.8" font-family="Helvetica,sans-Serif" font-size="14.00">Function</text>
</g>
<g id="clust2" class="cluster">
<title>cluster_function_1_state_vars</title>
<path fill="aliceblue" stroke="aliceblue" d="M461.5,-311C461.5,-311 615.5,-311 615.5,-311 621.5,-311 627.5,-317 627.5,-323 627.5,-323 627.5,-516 627.5,-516 627.5,-522 621.5,-528 615.5,-528 615.5,-528 461.5,-528 461.5,-528 455.5,-528 449.5,-522 449.5,-516 449.5,-516 449.5,-323 449.5,-323 449.5,-317 455.5,-311 461.5,-311"/>
<text text-anchor="middle" x="538.5" y="-512.8" font-family="Helvetica,sans-Serif" font-size="14.00">State Variables</text>
</g>
<g id="clust3" class="cluster">
<title>cluster_3</title>
<path fill="aliceblue" stroke="aliceblue" d="M269,-27C269,-27 357,-27 357,-27 363,-27 369,-33 369,-39 369,-39 369,-108 369,-108 369,-114 363,-120 357,-120 357,-120 269,-120 269,-120 263,-120 257,-114 257,-108 257,-108 257,-39 257,-39 257,-33 263,-27 269,-27"/>
<text text-anchor="middle" x="313" y="-104.8" font-family="Helvetica,sans-Serif" font-size="14.00">Function</text>
</g>
<g id="clust4" class="cluster">
<title>cluster_function_3_state_vars</title>
<path fill="aliceblue" stroke="aliceblue" d="M490.5,-8C490.5,-8 586.5,-8 586.5,-8 592.5,-8 598.5,-14 598.5,-20 598.5,-20 598.5,-89 598.5,-89 598.5,-95 592.5,-101 586.5,-101 586.5,-101 490.5,-101 490.5,-101 484.5,-101 478.5,-95 478.5,-89 478.5,-89 478.5,-20 478.5,-20 478.5,-14 484.5,-8 490.5,-8"/>
<text text-anchor="middle" x="538.5" y="-85.8" font-family="Helvetica,sans-Serif" font-size="14.00">State Variables</text>
</g>
<g id="clust5" class="cluster">
<title>cluster_5</title>
<path fill="aliceblue" stroke="aliceblue" d="M422,-210C422,-210 655,-210 655,-210 661,-210 667,-216 667,-222 667,-222 667,-291 667,-291 667,-297 661,-303 655,-303 655,-303 422,-303 422,-303 416,-303 410,-297 410,-291 410,-291 410,-222 410,-222 410,-216 416,-210 422,-210"/>
<text text-anchor="middle" x="538.5" y="-287.8" font-family="Helvetica,sans-Serif" font-size="14.00">External Calls</text>
</g>
<g id="clust6" class="cluster">
<title>cluster_8</title>
<path fill="aliceblue" stroke="aliceblue" d="M20,-116C20,-116 204,-116 204,-116 210,-116 216,-122 216,-128 216,-128 216,-197 216,-197 216,-203 210,-209 204,-209 204,-209 20,-209 20,-209 14,-209 8,-203 8,-197 8,-197 8,-128 8,-128 8,-122 14,-116 20,-116"/>
<text text-anchor="middle" x="112" y="-193.8" font-family="Helvetica,sans-Serif" font-size="14.00">Authenticated Role</text>
</g>
<g id="clust7" class="cluster">
<title>cluster_10</title>
<path fill="aliceblue" stroke="aliceblue" d="M465,-109C465,-109 612,-109 612,-109 618,-109 624,-115 624,-121 624,-121 624,-190 624,-190 624,-196 618,-202 612,-202 612,-202 465,-202 465,-202 459,-202 453,-196 453,-190 453,-190 453,-121 453,-121 453,-115 459,-109 465,-109"/>
<text text-anchor="middle" x="538.5" y="-186.8" font-family="Helvetica,sans-Serif" font-size="14.00">Internal Calls</text>
</g>
<!-- initialize -->
<g id="node1" class="node">
<title>initialize</title>
<path fill="#bfefff" stroke="#bfefff" d="M288,-197C288,-197 338,-197 338,-197 344,-197 350,-203 350,-209 350,-209 350,-221 350,-221 350,-227 344,-233 338,-233 338,-233 288,-233 288,-233 282,-233 276,-227 276,-221 276,-221 276,-209 276,-209 276,-203 282,-197 288,-197"/>
<text text-anchor="middle" x="313" y="-211.3" font-family="Helvetica,sans-Serif" font-size="14.00">initialize</text>
</g>
<!-- function_1_state_vars_node -->
<g id="node2" class="node">
<title>function_1_state_vars_node</title>
<path fill="#d1eeee" stroke="#d1eeee" d="M477.5,-327.5C477.5,-327.5 599.5,-327.5 599.5,-327.5 605.5,-327.5 611.5,-333.5 611.5,-339.5 611.5,-339.5 611.5,-476.5 611.5,-476.5 611.5,-482.5 605.5,-488.5 599.5,-488.5 599.5,-488.5 477.5,-488.5 477.5,-488.5 471.5,-488.5 465.5,-482.5 465.5,-476.5 465.5,-476.5 465.5,-339.5 465.5,-339.5 465.5,-333.5 471.5,-327.5 477.5,-327.5"/>
<text text-anchor="start" x="473.5" y="-473.3" font-family="Helvetica,sans-Serif" font-size="14.00">committee</text>
<polyline fill="none" stroke="#d1eeee" points="465.5,-465.5 611.5,-465.5 "/>
<text text-anchor="start" x="473.5" y="-450.3" font-family="Helvetica,sans-Serif" font-size="14.00">memo</text>
<polyline fill="none" stroke="#d1eeee" points="465.5,-442.5 611.5,-442.5 "/>
<text text-anchor="start" x="473.5" y="-427.3" font-family="Helvetica,sans-Serif" font-size="14.00">isLayer2Candidate</text>
<polyline fill="none" stroke="#d1eeee" points="465.5,-419.5 611.5,-419.5 "/>
<text text-anchor="start" x="473.5" y="-404.3" font-family="Helvetica,sans-Serif" font-size="14.00">seigManager</text>
<polyline fill="none" stroke="#d1eeee" points="465.5,-396.5 611.5,-396.5 "/>
<text text-anchor="start" x="473.5" y="-381.3" font-family="Helvetica,sans-Serif" font-size="14.00">wton</text>
<polyline fill="none" stroke="#d1eeee" points="465.5,-373.5 611.5,-373.5 "/>
<text text-anchor="start" x="473.5" y="-358.3" font-family="Helvetica,sans-Serif" font-size="14.00">ton</text>
<polyline fill="none" stroke="#d1eeee" points="465.5,-350.5 611.5,-350.5 "/>
<text text-anchor="start" x="473.5" y="-335.3" font-family="Helvetica,sans-Serif" font-size="14.00">candidate</text>
</g>
<!-- initialize&#45;&gt;function_1_state_vars_node -->
<g id="edge1" class="edge">
<title>initialize&#45;&gt;function_1_state_vars_node</title>
<path fill="none" stroke="lightskyblue" d="M371.99,-272.26C384.34,-283.97 397.44,-296.05 410,-307 420.1,-315.81 430.85,-324.82 441.64,-333.67"/>
<ellipse fill="none" stroke="lightskyblue" cx="368.89" cy="-269.3" rx="4" ry="4"/>
<polygon fill="lightskyblue" stroke="lightskyblue" points="439.54,-336.47 449.5,-340.07 443.96,-331.04 439.54,-336.47"/>
</g>
<!-- IOperateContract.rollupConfig -->
<g id="node5" class="node">
<title>IOperateContract.rollupConfig</title>
<path fill="#d1eeee" stroke="#d1eeee" d="M438,-227C438,-227 639,-227 639,-227 645,-227 651,-233 651,-239 651,-239 651,-251 651,-251 651,-257 645,-263 639,-263 639,-263 438,-263 438,-263 432,-263 426,-257 426,-251 426,-251 426,-239 426,-239 426,-233 432,-227 438,-227"/>
<text text-anchor="middle" x="538.5" y="-241.3" font-family="Helvetica,sans-Serif" font-size="14.00">IOperateContract.rollupConfig</text>
</g>
<!-- initialize&#45;&gt;IOperateContract.rollupConfig -->
<g id="edge3" class="edge">
<title>initialize&#45;&gt;IOperateContract.rollupConfig</title>
<path fill="none" stroke="lightskyblue" d="M374,-223.05C382.18,-224.15 390.82,-225.31 399.7,-226.5"/>
<ellipse fill="none" stroke="lightskyblue" cx="369.96" cy="-222.51" rx="4" ry="4"/>
<polygon fill="lightskyblue" stroke="lightskyblue" points="399.62,-230.02 410,-227.89 400.56,-223.09 399.62,-230.02"/>
</g>
<!-- _registerInterface -->
<g id="node7" class="node">
<title>_registerInterface</title>
<path fill="#d1eeee" stroke="#d1eeee" d="M481,-126C481,-126 596,-126 596,-126 602,-126 608,-132 608,-138 608,-138 608,-150 608,-150 608,-156 602,-162 596,-162 596,-162 481,-162 481,-162 475,-162 469,-156 469,-150 469,-150 469,-138 469,-138 469,-132 475,-126 481,-126"/>
<text text-anchor="middle" x="538.5" y="-140.3" font-family="Helvetica,sans-Serif" font-size="14.00">_registerInterface</text>
</g>
<!-- initialize&#45;&gt;_registerInterface -->
<g id="edge6" class="edge">
<title>initialize&#45;&gt;_registerInterface</title>
<path fill="none" stroke="lightskyblue" d="M373.73,-196.03C395.15,-189.22 419.84,-181.38 443.46,-173.87"/>
<ellipse fill="none" stroke="lightskyblue" cx="369.81" cy="-197.27" rx="4" ry="4"/>
<polygon fill="lightskyblue" stroke="lightskyblue" points="444.53,-177.21 453,-170.84 442.41,-170.53 444.53,-177.21"/>
</g>
<!-- setMemo -->
<g id="node3" class="node">
<title>setMemo</title>
<path fill="#bfefff" stroke="#bfefff" d="M285,-44C285,-44 341,-44 341,-44 347,-44 353,-50 353,-56 353,-56 353,-68 353,-68 353,-74 347,-80 341,-80 341,-80 285,-80 285,-80 279,-80 273,-74 273,-68 273,-68 273,-56 273,-56 273,-50 279,-44 285,-44"/>
<text text-anchor="middle" x="313" y="-58.3" font-family="Helvetica,sans-Serif" font-size="14.00">setMemo</text>
</g>
<!-- function_3_state_vars_node -->
<g id="node4" class="node">
<title>function_3_state_vars_node</title>
<path fill="#d1eeee" stroke="#d1eeee" d="M520.5,-25C520.5,-25 556.5,-25 556.5,-25 562.5,-25 568.5,-31 568.5,-37 568.5,-37 568.5,-49 568.5,-49 568.5,-55 562.5,-61 556.5,-61 556.5,-61 520.5,-61 520.5,-61 514.5,-61 508.5,-55 508.5,-49 508.5,-49 508.5,-37 508.5,-37 508.5,-31 514.5,-25 520.5,-25"/>
<text text-anchor="start" x="516.5" y="-39.3" font-family="Helvetica,sans-Serif" font-size="14.00">memo</text>
</g>
<!-- setMemo&#45;&gt;function_3_state_vars_node -->
<g id="edge2" class="edge">
<title>setMemo&#45;&gt;function_3_state_vars_node</title>
<path fill="none" stroke="lightskyblue" d="M377.26,-56.62C405.69,-54.21 439.32,-51.35 468.41,-48.87"/>
<ellipse fill="none" stroke="lightskyblue" cx="372.99" cy="-56.99" rx="4" ry="4"/>
<polygon fill="lightskyblue" stroke="lightskyblue" points="468.84,-52.35 478.5,-48.02 468.24,-45.38 468.84,-52.35"/>
</g>
<!-- DEFAULT_ADMIN_ROLE -->
<g id="node6" class="node">
<title>DEFAULT_ADMIN_ROLE</title>
<path fill="lightgrey" stroke="lightgrey" d="M36,-133C36,-133 188,-133 188,-133 194,-133 200,-139 200,-145 200,-145 200,-157 200,-157 200,-163 194,-169 188,-169 188,-169 36,-169 36,-169 30,-169 24,-163 24,-157 24,-157 24,-145 24,-145 24,-139 30,-133 36,-133"/>
<text text-anchor="middle" x="112" y="-147.3" font-family="Helvetica,sans-Serif" font-size="14.00">DEFAULT_ADMIN_ROLE</text>
</g>
<!-- DEFAULT_ADMIN_ROLE&#45;&gt;initialize -->
<g id="edge4" class="edge">
<title>DEFAULT_ADMIN_ROLE&#45;&gt;initialize</title>
<path fill="none" stroke="lightskyblue" d="M223.66,-186.59C232.75,-189.51 241.71,-192.4 250.24,-195.14"/>
<ellipse fill="none" stroke="lightskyblue" cx="219.81" cy="-185.35" rx="4" ry="4"/>
<polygon fill="lightskyblue" stroke="lightskyblue" points="249.41,-198.55 260,-198.28 251.55,-191.88 249.41,-198.55"/>
</g>
<!-- DEFAULT_ADMIN_ROLE&#45;&gt;setMemo -->
<g id="edge5" class="edge">
<title>DEFAULT_ADMIN_ROLE&#45;&gt;setMemo</title>
<path fill="none" stroke="lightskyblue" d="M198.75,-112.65C215.14,-105.32 232.03,-97.76 247.61,-90.8"/>
<ellipse fill="none" stroke="lightskyblue" cx="194.91" cy="-114.37" rx="4" ry="4"/>
<polygon fill="lightskyblue" stroke="lightskyblue" points="249.3,-93.88 257,-86.6 246.44,-87.49 249.3,-93.88"/>
</g>
</g>
</svg>
