<?xml version="1.0" encoding="UTF-8" standalone="no"?>
<!DOCTYPE svg PUBLIC "-//W3C//DTD SVG 1.1//EN"
 "http://www.w3.org/Graphics/SVG/1.1/DTD/svg11.dtd">
<!-- Generated by graphviz version 2.43.0 (0)
 -->
<!-- Title: OperatorManagerV1_1&#45;OperatorManagerV1_1&#45;_ownerormanager Pages: 1 -->
<svg width="816pt" height="676pt"
 viewBox="0.00 0.00 816.00 676.00" xmlns="http://www.w3.org/2000/svg" xmlns:xlink="http://www.w3.org/1999/xlink">
<g id="graph0" class="graph" transform="scale(1 1) rotate(0) translate(4 672)">
<title>OperatorManagerV1_1&#45;OperatorManagerV1_1&#45;_ownerormanager</title>
<polygon fill="white" stroke="transparent" points="-4,4 -4,-672 812,-672 812,4 -4,4"/>
<g id="clust1" class="cluster">
<title>cluster_1</title>
<path fill="aliceblue" stroke="aliceblue" d="M244.5,-513C244.5,-513 378.5,-513 378.5,-513 384.5,-513 390.5,-519 390.5,-525 390.5,-525 390.5,-594 390.5,-594 390.5,-600 384.5,-606 378.5,-606 378.5,-606 244.5,-606 244.5,-606 238.5,-606 232.5,-600 232.5,-594 232.5,-594 232.5,-525 232.5,-525 232.5,-519 238.5,-513 244.5,-513"/>
<text text-anchor="middle" x="311.5" y="-590.8" font-family="Helvetica,sans-Serif" font-size="14.00">Function</text>
</g>
<g id="clust2" class="cluster">
<title>cluster_2</title>
<path fill="aliceblue" stroke="aliceblue" d="M454,-466C454,-466 788,-466 788,-466 794,-466 800,-472 800,-478 800,-478 800,-547 800,-547 800,-553 794,-559 788,-559 788,-559 454,-559 454,-559 448,-559 442,-553 442,-547 442,-547 442,-478 442,-478 442,-472 448,-466 454,-466"/>
<text text-anchor="middle" x="621" y="-543.8" font-family="Helvetica,sans-Serif" font-size="14.00">External Calls</text>
</g>
<g id="clust3" class="cluster">
<title>cluster_3</title>
<path fill="aliceblue" stroke="aliceblue" d="M234,-412C234,-412 389,-412 389,-412 395,-412 401,-418 401,-424 401,-424 401,-493 401,-493 401,-499 395,-505 389,-505 389,-505 234,-505 234,-505 228,-505 222,-499 222,-493 222,-493 222,-424 222,-424 222,-418 228,-412 234,-412"/>
<text text-anchor="middle" x="311.5" y="-489.8" font-family="Helvetica,sans-Serif" font-size="14.00">Function</text>
</g>
<g id="clust4" class="cluster">
<title>cluster_4</title>
<path fill="aliceblue" stroke="aliceblue" d="M20,-260C20,-260 169,-260 169,-260 175,-260 181,-266 181,-272 181,-272 181,-341 181,-341 181,-347 175,-353 169,-353 169,-353 20,-353 20,-353 14,-353 8,-347 8,-341 8,-341 8,-272 8,-272 8,-266 14,-260 20,-260"/>
<text text-anchor="middle" x="94.5" y="-337.8" font-family="Helvetica,sans-Serif" font-size="14.00">Authenticated Role</text>
</g>
<g id="clust5" class="cluster">
<title>cluster_5</title>
<path fill="aliceblue" stroke="aliceblue" d="M267,-109C267,-109 356,-109 356,-109 362,-109 368,-115 368,-121 368,-121 368,-190 368,-190 368,-196 362,-202 356,-202 356,-202 267,-202 267,-202 261,-202 255,-196 255,-190 255,-190 255,-121 255,-121 255,-115 261,-109 267,-109"/>
<text text-anchor="middle" x="311.5" y="-186.8" font-family="Helvetica,sans-Serif" font-size="14.00">Function</text>
</g>
<g id="clust6" class="cluster">
<title>cluster_6</title>
<path fill="aliceblue" stroke="aliceblue" d="M258,-210C258,-210 365,-210 365,-210 371,-210 377,-216 377,-222 377,-222 377,-291 377,-291 377,-297 371,-303 365,-303 365,-303 258,-303 258,-303 252,-303 246,-297 246,-291 246,-291 246,-222 246,-222 246,-216 252,-210 258,-210"/>
<text text-anchor="middle" x="311.5" y="-287.8" font-family="Helvetica,sans-Serif" font-size="14.00">Function</text>
</g>
<g id="clust7" class="cluster">
<title>cluster_7</title>
<path fill="aliceblue" stroke="aliceblue" d="M580,-144C580,-144 663,-144 663,-144 669,-144 675,-150 675,-156 675,-156 675,-225 675,-225 675,-231 669,-237 663,-237 663,-237 580,-237 580,-237 574,-237 568,-231 568,-225 568,-225 568,-156 568,-156 568,-150 574,-144 580,-144"/>
<text text-anchor="middle" x="621.5" y="-221.8" font-family="Helvetica,sans-Serif" font-size="14.00">Internal Calls</text>
</g>
<g id="clust8" class="cluster">
<title>cluster_8</title>
<path fill="aliceblue" stroke="aliceblue" d="M240.5,-311C240.5,-311 382.5,-311 382.5,-311 388.5,-311 394.5,-317 394.5,-323 394.5,-323 394.5,-392 394.5,-392 394.5,-398 388.5,-404 382.5,-404 382.5,-404 240.5,-404 240.5,-404 234.5,-404 228.5,-398 228.5,-392 228.5,-392 228.5,-323 228.5,-323 228.5,-317 234.5,-311 240.5,-311"/>
<text text-anchor="middle" x="311.5" y="-388.8" font-family="Helvetica,sans-Serif" font-size="14.00">Function</text>
</g>
<g id="clust9" class="cluster">
<title>cluster_9</title>
<path fill="aliceblue" stroke="aliceblue" d="M493.5,-567C493.5,-567 748.5,-567 748.5,-567 754.5,-567 760.5,-573 760.5,-579 760.5,-579 760.5,-648 760.5,-648 760.5,-654 754.5,-660 748.5,-660 748.5,-660 493.5,-660 493.5,-660 487.5,-660 481.5,-654 481.5,-648 481.5,-648 481.5,-579 481.5,-579 481.5,-573 487.5,-567 493.5,-567"/>
<text text-anchor="middle" x="621" y="-644.8" font-family="Helvetica,sans-Serif" font-size="14.00">External Calls</text>
</g>
<g id="clust10" class="cluster">
<title>cluster_10</title>
<path fill="aliceblue" stroke="aliceblue" d="M241,-8C241,-8 382,-8 382,-8 388,-8 394,-14 394,-20 394,-20 394,-89 394,-89 394,-95 388,-101 382,-101 382,-101 241,-101 241,-101 235,-101 229,-95 229,-89 229,-89 229,-20 229,-20 229,-14 235,-8 241,-8"/>
<text text-anchor="middle" x="311.5" y="-85.8" font-family="Helvetica,sans-Serif" font-size="14.00">Function</text>
</g>
<g id="clust11" class="cluster">
<title>cluster_function_10_state_vars</title>
<path fill="aliceblue" stroke="aliceblue" d="M573.5,-8C573.5,-8 669.5,-8 669.5,-8 675.5,-8 681.5,-14 681.5,-20 681.5,-20 681.5,-89 681.5,-89 681.5,-95 675.5,-101 669.5,-101 669.5,-101 573.5,-101 573.5,-101 567.5,-101 561.5,-95 561.5,-89 561.5,-89 561.5,-20 561.5,-20 561.5,-14 567.5,-8 573.5,-8"/>
<text text-anchor="middle" x="621.5" y="-85.8" font-family="Helvetica,sans-Serif" font-size="14.00">State Variables</text>
</g>
<g id="clust12" class="cluster">
<title>cluster_12</title>
<path fill="aliceblue" stroke="aliceblue" d="M490,-264C490,-264 752,-264 752,-264 758,-264 764,-270 764,-276 764,-276 764,-345 764,-345 764,-351 758,-357 752,-357 752,-357 490,-357 490,-357 484,-357 478,-351 478,-345 478,-345 478,-276 478,-276 478,-270 484,-264 490,-264"/>
<text text-anchor="middle" x="621" y="-341.8" font-family="Helvetica,sans-Serif" font-size="14.00">External Calls</text>
</g>
<g id="clust13" class="cluster">
<title>cluster_13</title>
<path fill="aliceblue" stroke="aliceblue" d="M483,-365C483,-365 759,-365 759,-365 765,-365 771,-371 771,-377 771,-377 771,-446 771,-446 771,-452 765,-458 759,-458 759,-458 483,-458 483,-458 477,-458 471,-452 471,-446 471,-446 471,-377 471,-377 471,-371 477,-365 483,-365"/>
<text text-anchor="middle" x="621" y="-442.8" font-family="Helvetica,sans-Serif" font-size="14.00">External Calls</text>
</g>
<!-- processRequest -->
<g id="node1" class="node">
<title>processRequest</title>
<path fill="#bfefff" stroke="#bfefff" d="M260.5,-530C260.5,-530 362.5,-530 362.5,-530 368.5,-530 374.5,-536 374.5,-542 374.5,-542 374.5,-554 374.5,-554 374.5,-560 368.5,-566 362.5,-566 362.5,-566 260.5,-566 260.5,-566 254.5,-566 248.5,-560 248.5,-554 248.5,-554 248.5,-542 248.5,-542 248.5,-536 254.5,-530 260.5,-530"/>
<text text-anchor="middle" x="311.5" y="-544.3" font-family="Helvetica,sans-Serif" font-size="14.00">processRequest</text>
</g>
<!-- ILayer2Manager.candidateAddOnOfOperator -->
<g id="node2" class="node">
<title>ILayer2Manager.candidateAddOnOfOperator</title>
<path fill="#d1eeee" stroke="#d1eeee" d="M470,-483C470,-483 772,-483 772,-483 778,-483 784,-489 784,-495 784,-495 784,-507 784,-507 784,-513 778,-519 772,-519 772,-519 470,-519 470,-519 464,-519 458,-513 458,-507 458,-507 458,-495 458,-495 458,-489 464,-483 470,-483"/>
<text text-anchor="middle" x="621" y="-497.3" font-family="Helvetica,sans-Serif" font-size="14.00">ILayer2Manager.candidateAddOnOfOperator</text>
</g>
<!-- processRequest&#45;&gt;ILayer2Manager.candidateAddOnOfOperator -->
<g id="edge1" class="edge">
<title>processRequest&#45;&gt;ILayer2Manager.candidateAddOnOfOperator</title>
<path fill="none" stroke="lightskyblue" d="M398.53,-534.85C409.18,-533.22 420.37,-531.51 431.83,-529.76"/>
<ellipse fill="none" stroke="lightskyblue" cx="394.45" cy="-535.47" rx="4" ry="4"/>
<polygon fill="lightskyblue" stroke="lightskyblue" points="432.65,-533.18 442,-528.21 431.59,-526.26 432.65,-533.18"/>
</g>
<!-- IDepositManager.processRequest -->
<g id="node9" class="node">
<title>IDepositManager.processRequest</title>
<path fill="#d1eeee" stroke="#d1eeee" d="M509.5,-584C509.5,-584 732.5,-584 732.5,-584 738.5,-584 744.5,-590 744.5,-596 744.5,-596 744.5,-608 744.5,-608 744.5,-614 738.5,-620 732.5,-620 732.5,-620 509.5,-620 509.5,-620 503.5,-620 497.5,-614 497.5,-608 497.5,-608 497.5,-596 497.5,-596 497.5,-590 503.5,-584 509.5,-584"/>
<text text-anchor="middle" x="621" y="-598.3" font-family="Helvetica,sans-Serif" font-size="14.00">IDepositManager.processRequest</text>
</g>
<!-- processRequest&#45;&gt;IDepositManager.processRequest -->
<g id="edge8" class="edge">
<title>processRequest&#45;&gt;IDepositManager.processRequest</title>
<path fill="none" stroke="lightskyblue" d="M398.44,-563.09C421.2,-567.09 446.45,-571.52 471.5,-575.92"/>
<ellipse fill="none" stroke="lightskyblue" cx="394.44" cy="-562.39" rx="4" ry="4"/>
<polygon fill="lightskyblue" stroke="lightskyblue" points="471.05,-579.4 481.5,-577.68 472.26,-572.5 471.05,-579.4"/>
</g>
<!-- requestWithdrawal -->
<g id="node3" class="node">
<title>requestWithdrawal</title>
<path fill="#bfefff" stroke="#bfefff" d="M250,-429C250,-429 373,-429 373,-429 379,-429 385,-435 385,-441 385,-441 385,-453 385,-453 385,-459 379,-465 373,-465 373,-465 250,-465 250,-465 244,-465 238,-459 238,-453 238,-453 238,-441 238,-441 238,-435 244,-429 250,-429"/>
<text text-anchor="middle" x="311.5" y="-443.3" font-family="Helvetica,sans-Serif" font-size="14.00">requestWithdrawal</text>
</g>
<!-- requestWithdrawal&#45;&gt;ILayer2Manager.candidateAddOnOfOperator -->
<g id="edge2" class="edge">
<title>requestWithdrawal&#45;&gt;ILayer2Manager.candidateAddOnOfOperator</title>
<path fill="none" stroke="lightskyblue" d="M409.06,-463.96C416.58,-465.28 424.3,-466.63 432.15,-468.01"/>
<ellipse fill="none" stroke="lightskyblue" cx="404.94" cy="-463.23" rx="4" ry="4"/>
<polygon fill="lightskyblue" stroke="lightskyblue" points="431.55,-471.46 442,-469.74 432.76,-464.57 431.55,-471.46"/>
</g>
<!-- IDepositManager.requestWithdrawal -->
<g id="node13" class="node">
<title>IDepositManager.requestWithdrawal</title>
<path fill="#d1eeee" stroke="#d1eeee" d="M499,-382C499,-382 743,-382 743,-382 749,-382 755,-388 755,-394 755,-394 755,-406 755,-406 755,-412 749,-418 743,-418 743,-418 499,-418 499,-418 493,-418 487,-412 487,-406 487,-406 487,-394 487,-394 487,-388 493,-382 499,-382"/>
<text text-anchor="middle" x="621" y="-396.3" font-family="Helvetica,sans-Serif" font-size="14.00">IDepositManager.requestWithdrawal</text>
</g>
<!-- requestWithdrawal&#45;&gt;IDepositManager.requestWithdrawal -->
<g id="edge14" class="edge">
<title>requestWithdrawal&#45;&gt;IDepositManager.requestWithdrawal</title>
<path fill="none" stroke="lightskyblue" d="M409.06,-432.24C425.65,-429.71 443.28,-427.01 461,-424.3"/>
<ellipse fill="none" stroke="lightskyblue" cx="404.95" cy="-432.87" rx="4" ry="4"/>
<polygon fill="lightskyblue" stroke="lightskyblue" points="461.65,-427.74 471,-422.77 460.59,-420.82 461.65,-427.74"/>
</g>
<!-- _ownerormanager -->
<g id="node4" class="node">
<title>_ownerormanager</title>
<path fill="lightgrey" stroke="lightgrey" d="M36,-277C36,-277 153,-277 153,-277 159,-277 165,-283 165,-289 165,-289 165,-301 165,-301 165,-307 159,-313 153,-313 153,-313 36,-313 36,-313 30,-313 24,-307 24,-301 24,-301 24,-289 24,-289 24,-283 30,-277 36,-277"/>
<text text-anchor="middle" x="94.5" y="-291.3" font-family="Helvetica,sans-Serif" font-size="14.00">_ownerormanager</text>
</g>
<!-- _ownerormanager&#45;&gt;processRequest -->
<g id="edge10" class="edge">
<title>_ownerormanager&#45;&gt;processRequest</title>
<path fill="none" stroke="lightskyblue" d="M121.16,-360.35C142.28,-406.95 176.18,-468.32 222,-509 222.82,-509.73 223.65,-510.44 224.5,-511.15"/>
<ellipse fill="none" stroke="lightskyblue" cx="119.52" cy="-356.65" rx="4" ry="4"/>
<polygon fill="lightskyblue" stroke="lightskyblue" points="222.41,-513.95 232.5,-517.17 226.62,-508.36 222.41,-513.95"/>
</g>
<!-- _ownerormanager&#45;&gt;requestWithdrawal -->
<g id="edge6" class="edge">
<title>_ownerormanager&#45;&gt;requestWithdrawal</title>
<path fill="none" stroke="lightskyblue" d="M158.79,-358.39C176.74,-374.41 197.56,-391.34 220.13,-406.52"/>
<ellipse fill="none" stroke="lightskyblue" cx="155.79" cy="-355.68" rx="4" ry="4"/>
<polygon fill="lightskyblue" stroke="lightskyblue" points="218.21,-409.44 228.49,-412 222.05,-403.59 218.21,-409.44"/>
</g>
<!-- claimETH -->
<g id="node5" class="node">
<title>claimETH</title>
<path fill="#bfefff" stroke="#bfefff" d="M283,-126C283,-126 340,-126 340,-126 346,-126 352,-132 352,-138 352,-138 352,-150 352,-150 352,-156 346,-162 340,-162 340,-162 283,-162 283,-162 277,-162 271,-156 271,-150 271,-150 271,-138 271,-138 271,-132 277,-126 283,-126"/>
<text text-anchor="middle" x="311.5" y="-140.3" font-family="Helvetica,sans-Serif" font-size="14.00">claimETH</text>
</g>
<!-- _ownerormanager&#45;&gt;claimETH -->
<g id="edge3" class="edge">
<title>_ownerormanager&#45;&gt;claimETH</title>
<path fill="none" stroke="lightskyblue" d="M151.87,-255.3C173.76,-239.9 199.04,-222.12 222,-206 230,-200.38 238.41,-194.49 246.73,-188.65"/>
<ellipse fill="none" stroke="lightskyblue" cx="148.47" cy="-257.7" rx="4" ry="4"/>
<polygon fill="lightskyblue" stroke="lightskyblue" points="248.82,-191.46 255,-182.85 244.8,-185.73 248.82,-191.46"/>
</g>
<!-- claimERC20 -->
<g id="node6" class="node">
<title>claimERC20</title>
<path fill="#bfefff" stroke="#bfefff" d="M274,-227C274,-227 349,-227 349,-227 355,-227 361,-233 361,-239 361,-239 361,-251 361,-251 361,-257 355,-263 349,-263 349,-263 274,-263 274,-263 268,-263 262,-257 262,-251 262,-251 262,-239 262,-239 262,-233 268,-227 274,-227"/>
<text text-anchor="middle" x="311.5" y="-241.3" font-family="Helvetica,sans-Serif" font-size="14.00">claimERC20</text>
</g>
<!-- _ownerormanager&#45;&gt;claimERC20 -->
<g id="edge11" class="edge">
<title>_ownerormanager&#45;&gt;claimERC20</title>
<path fill="none" stroke="lightskyblue" d="M189.17,-273.22C204.88,-269.56 220.99,-265.82 236.13,-262.3"/>
<ellipse fill="none" stroke="lightskyblue" cx="184.9" cy="-274.21" rx="4" ry="4"/>
<polygon fill="lightskyblue" stroke="lightskyblue" points="237.05,-265.67 246,-260 235.47,-258.86 237.05,-265.67"/>
</g>
<!-- processRequests -->
<g id="node8" class="node">
<title>processRequests</title>
<path fill="#bfefff" stroke="#bfefff" d="M256.5,-328C256.5,-328 366.5,-328 366.5,-328 372.5,-328 378.5,-334 378.5,-340 378.5,-340 378.5,-352 378.5,-352 378.5,-358 372.5,-364 366.5,-364 366.5,-364 256.5,-364 256.5,-364 250.5,-364 244.5,-358 244.5,-352 244.5,-352 244.5,-340 244.5,-340 244.5,-334 250.5,-328 256.5,-328"/>
<text text-anchor="middle" x="311.5" y="-342.3" font-family="Helvetica,sans-Serif" font-size="14.00">processRequests</text>
</g>
<!-- _ownerormanager&#45;&gt;processRequests -->
<g id="edge7" class="edge">
<title>_ownerormanager&#45;&gt;processRequests</title>
<path fill="none" stroke="lightskyblue" d="M188.86,-317.15C198.71,-319.48 208.73,-321.86 218.56,-324.19"/>
<ellipse fill="none" stroke="lightskyblue" cx="184.89" cy="-316.2" rx="4" ry="4"/>
<polygon fill="lightskyblue" stroke="lightskyblue" points="217.96,-327.65 228.5,-326.55 219.58,-320.84 217.96,-327.65"/>
</g>
<!-- transferManager -->
<g id="node10" class="node">
<title>transferManager</title>
<path fill="#bfefff" stroke="#bfefff" d="M257,-25C257,-25 366,-25 366,-25 372,-25 378,-31 378,-37 378,-37 378,-49 378,-49 378,-55 372,-61 366,-61 366,-61 257,-61 257,-61 251,-61 245,-55 245,-49 245,-49 245,-37 245,-37 245,-31 251,-25 257,-25"/>
<text text-anchor="middle" x="311.5" y="-39.3" font-family="Helvetica,sans-Serif" font-size="14.00">transferManager</text>
</g>
<!-- _ownerormanager&#45;&gt;transferManager -->
<g id="edge15" class="edge">
<title>_ownerormanager&#45;&gt;transferManager</title>
<path fill="none" stroke="lightskyblue" d="M117.43,-252.96C139.06,-213.99 175.36,-154.98 222,-105.47"/>
<ellipse fill="none" stroke="lightskyblue" cx="115.49" cy="-256.5" rx="4" ry="4"/>
<polygon fill="lightskyblue" stroke="lightskyblue" points="224.59,-107.83 229,-98.2 219.55,-102.98 224.59,-107.83"/>
</g>
<!-- _claim -->
<g id="node7" class="node">
<title>_claim</title>
<path fill="#d1eeee" stroke="#d1eeee" d="M603,-161C603,-161 639,-161 639,-161 645,-161 651,-167 651,-173 651,-173 651,-185 651,-185 651,-191 645,-197 639,-197 639,-197 603,-197 603,-197 597,-197 591,-191 591,-185 591,-185 591,-173 591,-173 591,-167 597,-161 603,-161"/>
<text text-anchor="middle" x="621" y="-175.3" font-family="Helvetica,sans-Serif" font-size="14.00">_claim</text>
</g>
<!-- claimETH&#45;&gt;_claim -->
<g id="edge13" class="edge">
<title>claimETH&#45;&gt;_claim</title>
<path fill="none" stroke="lightskyblue" d="M376.02,-151.23C429.28,-157.29 504.9,-165.9 557.79,-171.92"/>
<ellipse fill="none" stroke="lightskyblue" cx="371.97" cy="-150.77" rx="4" ry="4"/>
<polygon fill="lightskyblue" stroke="lightskyblue" points="557.67,-175.43 568,-173.08 558.46,-168.47 557.67,-175.43"/>
</g>
<!-- claimERC20&#45;&gt;_claim -->
<g id="edge4" class="edge">
<title>claimERC20&#45;&gt;_claim</title>
<path fill="none" stroke="lightskyblue" d="M384.95,-229.45C437.56,-218.16 508,-203.04 558.01,-192.31"/>
<ellipse fill="none" stroke="lightskyblue" cx="380.91" cy="-230.32" rx="4" ry="4"/>
<polygon fill="lightskyblue" stroke="lightskyblue" points="558.96,-195.68 568,-190.16 557.49,-188.84 558.96,-195.68"/>
</g>
<!-- processRequests&#45;&gt;ILayer2Manager.candidateAddOnOfOperator -->
<g id="edge5" class="edge">
<title>processRequests&#45;&gt;ILayer2Manager.candidateAddOnOfOperator</title>
<path fill="none" stroke="lightskyblue" d="M400.61,-407.62C400.74,-407.75 400.87,-407.87 401,-408 420.59,-426.86 417.53,-442.44 440.26,-460.17"/>
<ellipse fill="none" stroke="lightskyblue" cx="397.44" cy="-404.7" rx="4" ry="4"/>
<polygon fill="lightskyblue" stroke="lightskyblue" points="438.41,-463.14 448.61,-466 442.42,-457.4 438.41,-463.14"/>
</g>
<!-- IDepositManager.processRequests -->
<g id="node12" class="node">
<title>IDepositManager.processRequests</title>
<path fill="#d1eeee" stroke="#d1eeee" d="M506,-281C506,-281 736,-281 736,-281 742,-281 748,-287 748,-293 748,-293 748,-305 748,-305 748,-311 742,-317 736,-317 736,-317 506,-317 506,-317 500,-317 494,-311 494,-305 494,-305 494,-293 494,-293 494,-287 500,-281 506,-281"/>
<text text-anchor="middle" x="621" y="-295.3" font-family="Helvetica,sans-Serif" font-size="14.00">IDepositManager.processRequests</text>
</g>
<!-- processRequests&#45;&gt;IDepositManager.processRequests -->
<g id="edge12" class="edge">
<title>processRequests&#45;&gt;IDepositManager.processRequests</title>
<path fill="none" stroke="lightskyblue" d="M402.6,-332.23C423.2,-329.08 445.64,-325.65 468.04,-322.23"/>
<ellipse fill="none" stroke="lightskyblue" cx="398.45" cy="-332.86" rx="4" ry="4"/>
<polygon fill="lightskyblue" stroke="lightskyblue" points="468.65,-325.67 478,-320.7 467.59,-318.75 468.65,-325.67"/>
</g>
<!-- function_10_state_vars_node -->
<g id="node11" class="node">
<title>function_10_state_vars_node</title>
<path fill="#d1eeee" stroke="#d1eeee" d="M593.5,-25C593.5,-25 648.5,-25 648.5,-25 654.5,-25 660.5,-31 660.5,-37 660.5,-37 660.5,-49 660.5,-49 660.5,-55 654.5,-61 648.5,-61 648.5,-61 593.5,-61 593.5,-61 587.5,-61 581.5,-55 581.5,-49 581.5,-49 581.5,-37 581.5,-37 581.5,-31 587.5,-25 593.5,-25"/>
<text text-anchor="start" x="589.5" y="-39.3" font-family="Helvetica,sans-Serif" font-size="14.00">manager</text>
</g>
<!-- transferManager&#45;&gt;function_10_state_vars_node -->
<g id="edge9" class="edge">
<title>transferManager&#45;&gt;function_10_state_vars_node</title>
<path fill="none" stroke="lightskyblue" d="M402.15,-43C449.74,-43 507.3,-43 551.3,-43"/>
<ellipse fill="none" stroke="lightskyblue" cx="398" cy="-43" rx="4" ry="4"/>
<polygon fill="lightskyblue" stroke="lightskyblue" points="551.5,-46.5 561.5,-43 551.5,-39.5 551.5,-46.5"/>
</g>
</g>
</svg>
