<?xml version="1.0" encoding="UTF-8" standalone="no"?>
<!DOCTYPE svg PUBLIC "-//W3C//DTD SVG 1.1//EN"
 "http://www.w3.org/Graphics/SVG/1.1/DTD/svg11.dtd">
<!-- Generated by graphviz version 2.43.0 (0)
 -->
<!-- Title: L1BridgeRegistryV1_1&#45;L1BridgeRegistryV1_1&#45;seigniorageCommittee Pages: 1 -->
<svg width="867pt" height="622pt"
 viewBox="0.00 0.00 867.00 622.00" xmlns="http://www.w3.org/2000/svg" xmlns:xlink="http://www.w3.org/1999/xlink">
<g id="graph0" class="graph" transform="scale(1 1) rotate(0) translate(4 618)">
<title>L1BridgeRegistryV1_1&#45;L1BridgeRegistryV1_1&#45;seigniorageCommittee</title>
<polygon fill="white" stroke="transparent" points="-4,4 -4,-618 863,-618 863,4 -4,4"/>
<g id="clust1" class="cluster">
<title>cluster_1</title>
<path fill="aliceblue" stroke="aliceblue" d="M270.5,-346C270.5,-346 451.5,-346 451.5,-346 457.5,-346 463.5,-352 463.5,-358 463.5,-358 463.5,-427 463.5,-427 463.5,-433 457.5,-439 451.5,-439 451.5,-439 270.5,-439 270.5,-439 264.5,-439 258.5,-433 258.5,-427 258.5,-427 258.5,-358 258.5,-358 258.5,-352 264.5,-346 270.5,-346"/>
<text text-anchor="middle" x="361" y="-423.8" font-family="Helvetica,sans-Serif" font-size="14.00">Function</text>
</g>
<g id="clust2" class="cluster">
<title>cluster_function_1_state_vars</title>
<path fill="aliceblue" stroke="aliceblue" d="M632.5,-513C632.5,-513 728.5,-513 728.5,-513 734.5,-513 740.5,-519 740.5,-525 740.5,-525 740.5,-594 740.5,-594 740.5,-600 734.5,-606 728.5,-606 728.5,-606 632.5,-606 632.5,-606 626.5,-606 620.5,-600 620.5,-594 620.5,-594 620.5,-525 620.5,-525 620.5,-519 626.5,-513 632.5,-513"/>
<text text-anchor="middle" x="680.5" y="-590.8" font-family="Helvetica,sans-Serif" font-size="14.00">State Variables</text>
</g>
<g id="clust3" class="cluster">
<title>cluster_2</title>
<path fill="aliceblue" stroke="aliceblue" d="M621.5,-412C621.5,-412 738.5,-412 738.5,-412 744.5,-412 750.5,-418 750.5,-424 750.5,-424 750.5,-493 750.5,-493 750.5,-499 744.5,-505 738.5,-505 738.5,-505 621.5,-505 621.5,-505 615.5,-505 609.5,-499 609.5,-493 609.5,-493 609.5,-424 609.5,-424 609.5,-418 615.5,-412 621.5,-412"/>
<text text-anchor="middle" x="680" y="-489.8" font-family="Helvetica,sans-Serif" font-size="14.00">Internal Calls</text>
</g>
<g id="clust4" class="cluster">
<title>cluster_3</title>
<path fill="aliceblue" stroke="aliceblue" d="M20,-281C20,-281 201,-281 201,-281 207,-281 213,-287 213,-293 213,-293 213,-362 213,-362 213,-368 207,-374 201,-374 201,-374 20,-374 20,-374 14,-374 8,-368 8,-362 8,-362 8,-293 8,-293 8,-287 14,-281 20,-281"/>
<text text-anchor="middle" x="110.5" y="-358.8" font-family="Helvetica,sans-Serif" font-size="14.00">Authenticated Role</text>
</g>
<g id="clust5" class="cluster">
<title>cluster_4</title>
<path fill="aliceblue" stroke="aliceblue" d="M266,-148C266,-148 456,-148 456,-148 462,-148 468,-154 468,-160 468,-160 468,-229 468,-229 468,-235 462,-241 456,-241 456,-241 266,-241 266,-241 260,-241 254,-235 254,-229 254,-229 254,-160 254,-160 254,-154 260,-148 266,-148"/>
<text text-anchor="middle" x="361" y="-225.8" font-family="Helvetica,sans-Serif" font-size="14.00">Function</text>
</g>
<g id="clust6" class="cluster">
<title>cluster_function_4_state_vars</title>
<path fill="aliceblue" stroke="aliceblue" d="M632.5,-210C632.5,-210 728.5,-210 728.5,-210 734.5,-210 740.5,-216 740.5,-222 740.5,-222 740.5,-291 740.5,-291 740.5,-297 734.5,-303 728.5,-303 728.5,-303 632.5,-303 632.5,-303 626.5,-303 620.5,-297 620.5,-291 620.5,-291 620.5,-222 620.5,-222 620.5,-216 626.5,-210 632.5,-210"/>
<text text-anchor="middle" x="680.5" y="-287.8" font-family="Helvetica,sans-Serif" font-size="14.00">State Variables</text>
</g>
<g id="clust7" class="cluster">
<title>cluster_5</title>
<path fill="aliceblue" stroke="aliceblue" d="M576,-109C576,-109 784,-109 784,-109 790,-109 796,-115 796,-121 796,-121 796,-190 796,-190 796,-196 790,-202 784,-202 784,-202 576,-202 576,-202 570,-202 564,-196 564,-190 564,-190 564,-121 564,-121 564,-115 570,-109 576,-109"/>
<text text-anchor="middle" x="680" y="-186.8" font-family="Helvetica,sans-Serif" font-size="14.00">Internal Calls</text>
</g>
<g id="clust8" class="cluster">
<title>cluster_7</title>
<path fill="aliceblue" stroke="aliceblue" d="M521,-8C521,-8 839,-8 839,-8 845,-8 851,-14 851,-20 851,-20 851,-89 851,-89 851,-95 845,-101 839,-101 839,-101 521,-101 521,-101 515,-101 509,-95 509,-89 509,-89 509,-20 509,-20 509,-14 515,-8 521,-8"/>
<text text-anchor="middle" x="680" y="-85.8" font-family="Helvetica,sans-Serif" font-size="14.00">External Calls</text>
</g>
<g id="clust9" class="cluster">
<title>cluster_8</title>
<path fill="aliceblue" stroke="aliceblue" d="M530,-311C530,-311 830,-311 830,-311 836,-311 842,-317 842,-323 842,-323 842,-392 842,-392 842,-398 836,-404 830,-404 830,-404 530,-404 530,-404 524,-404 518,-398 518,-392 518,-392 518,-323 518,-323 518,-317 524,-311 530,-311"/>
<text text-anchor="middle" x="680" y="-388.8" font-family="Helvetica,sans-Serif" font-size="14.00">External Calls</text>
</g>
<!-- rejectCandidateAddOn -->
<g id="node1" class="node">
<title>rejectCandidateAddOn</title>
<path fill="#bfefff" stroke="#bfefff" d="M286.5,-363C286.5,-363 435.5,-363 435.5,-363 441.5,-363 447.5,-369 447.5,-375 447.5,-375 447.5,-387 447.5,-387 447.5,-393 441.5,-399 435.5,-399 435.5,-399 286.5,-399 286.5,-399 280.5,-399 274.5,-393 274.5,-387 274.5,-387 274.5,-375 274.5,-375 274.5,-369 280.5,-363 286.5,-363"/>
<text text-anchor="middle" x="361" y="-377.3" font-family="Helvetica,sans-Serif" font-size="14.00">rejectCandidateAddOn</text>
</g>
<!-- function_1_state_vars_node -->
<g id="node2" class="node">
<title>function_1_state_vars_node</title>
<path fill="#d1eeee" stroke="#d1eeee" d="M650.5,-530C650.5,-530 709.5,-530 709.5,-530 715.5,-530 721.5,-536 721.5,-542 721.5,-542 721.5,-554 721.5,-554 721.5,-560 715.5,-566 709.5,-566 709.5,-566 650.5,-566 650.5,-566 644.5,-566 638.5,-560 638.5,-554 638.5,-554 638.5,-542 638.5,-542 638.5,-536 644.5,-530 650.5,-530"/>
<text text-anchor="start" x="646.5" y="-544.3" font-family="Helvetica,sans-Serif" font-size="14.00">rollupInfo</text>
</g>
<!-- rejectCandidateAddOn&#45;&gt;function_1_state_vars_node -->
<g id="edge6" class="edge">
<title>rejectCandidateAddOn&#45;&gt;function_1_state_vars_node</title>
<path fill="none" stroke="lightskyblue" d="M421.36,-444.59C446.36,-468 477.04,-492.73 509,-509 540.35,-524.96 578.26,-534.47 610.31,-540.09"/>
<ellipse fill="none" stroke="lightskyblue" cx="418.36" cy="-441.75" rx="4" ry="4"/>
<polygon fill="lightskyblue" stroke="lightskyblue" points="610.06,-543.6 620.5,-541.78 611.21,-536.69 610.06,-543.6"/>
</g>
<!-- _nonRejected -->
<g id="node3" class="node">
<title>_nonRejected</title>
<path fill="#d1eeee" stroke="#d1eeee" d="M637.5,-429C637.5,-429 722.5,-429 722.5,-429 728.5,-429 734.5,-435 734.5,-441 734.5,-441 734.5,-453 734.5,-453 734.5,-459 728.5,-465 722.5,-465 722.5,-465 637.5,-465 637.5,-465 631.5,-465 625.5,-459 625.5,-453 625.5,-453 625.5,-441 625.5,-441 625.5,-435 631.5,-429 637.5,-429"/>
<text text-anchor="middle" x="680" y="-443.3" font-family="Helvetica,sans-Serif" font-size="14.00">_nonRejected</text>
</g>
<!-- rejectCandidateAddOn&#45;&gt;_nonRejected -->
<g id="edge1" class="edge">
<title>rejectCandidateAddOn&#45;&gt;_nonRejected</title>
<path fill="none" stroke="lightskyblue" d="M471.56,-403.81C513.63,-412.57 560.8,-422.39 599.51,-430.45"/>
<ellipse fill="none" stroke="lightskyblue" cx="467.41" cy="-402.95" rx="4" ry="4"/>
<polygon fill="lightskyblue" stroke="lightskyblue" points="599,-433.92 609.5,-432.53 600.43,-427.07 599,-433.92"/>
</g>
<!-- ILayer2Manager.pauseCandidateAddOn -->
<g id="node9" class="node">
<title>ILayer2Manager.pauseCandidateAddOn</title>
<path fill="#d1eeee" stroke="#d1eeee" d="M546,-328C546,-328 814,-328 814,-328 820,-328 826,-334 826,-340 826,-340 826,-352 826,-352 826,-358 820,-364 814,-364 814,-364 546,-364 546,-364 540,-364 534,-358 534,-352 534,-352 534,-340 534,-340 534,-334 540,-328 546,-328"/>
<text text-anchor="middle" x="680" y="-342.3" font-family="Helvetica,sans-Serif" font-size="14.00">ILayer2Manager.pauseCandidateAddOn</text>
</g>
<!-- rejectCandidateAddOn&#45;&gt;ILayer2Manager.pauseCandidateAddOn -->
<g id="edge7" class="edge">
<title>rejectCandidateAddOn&#45;&gt;ILayer2Manager.pauseCandidateAddOn</title>
<path fill="none" stroke="lightskyblue" d="M471.63,-368.9C483.47,-367.59 495.71,-366.24 508.06,-364.87"/>
<ellipse fill="none" stroke="lightskyblue" cx="467.47" cy="-369.35" rx="4" ry="4"/>
<polygon fill="lightskyblue" stroke="lightskyblue" points="508.45,-368.35 518,-363.78 507.68,-361.39 508.45,-368.35"/>
</g>
<!-- seigniorageCommittee -->
<g id="node4" class="node">
<title>seigniorageCommittee</title>
<path fill="lightgrey" stroke="lightgrey" d="M36,-298C36,-298 185,-298 185,-298 191,-298 197,-304 197,-310 197,-310 197,-322 197,-322 197,-328 191,-334 185,-334 185,-334 36,-334 36,-334 30,-334 24,-328 24,-322 24,-322 24,-310 24,-310 24,-304 30,-298 36,-298"/>
<text text-anchor="middle" x="110.5" y="-312.3" font-family="Helvetica,sans-Serif" font-size="14.00">seigniorageCommittee</text>
</g>
<!-- seigniorageCommittee&#45;&gt;rejectCandidateAddOn -->
<g id="edge8" class="edge">
<title>seigniorageCommittee&#45;&gt;rejectCandidateAddOn</title>
<path fill="none" stroke="lightskyblue" d="M220.78,-344.58C230.08,-347.02 239.5,-349.48 248.82,-351.92"/>
<ellipse fill="none" stroke="lightskyblue" cx="216.86" cy="-343.56" rx="4" ry="4"/>
<polygon fill="lightskyblue" stroke="lightskyblue" points="247.94,-355.31 258.5,-354.45 249.71,-348.53 247.94,-355.31"/>
</g>
<!-- restoreCandidateAddOn -->
<g id="node5" class="node">
<title>restoreCandidateAddOn</title>
<path fill="#bfefff" stroke="#bfefff" d="M282,-165C282,-165 440,-165 440,-165 446,-165 452,-171 452,-177 452,-177 452,-189 452,-189 452,-195 446,-201 440,-201 440,-201 282,-201 282,-201 276,-201 270,-195 270,-189 270,-189 270,-177 270,-177 270,-171 276,-165 282,-165"/>
<text text-anchor="middle" x="361" y="-179.3" font-family="Helvetica,sans-Serif" font-size="14.00">restoreCandidateAddOn</text>
</g>
<!-- seigniorageCommittee&#45;&gt;restoreCandidateAddOn -->
<g id="edge2" class="edge">
<title>seigniorageCommittee&#45;&gt;restoreCandidateAddOn</title>
<path fill="none" stroke="lightskyblue" d="M184.12,-277.13C203.25,-266.89 224.37,-255.59 245.14,-244.47"/>
<ellipse fill="none" stroke="lightskyblue" cx="180.41" cy="-279.12" rx="4" ry="4"/>
<polygon fill="lightskyblue" stroke="lightskyblue" points="246.84,-247.54 254,-239.73 243.54,-241.36 246.84,-247.54"/>
</g>
<!-- function_4_state_vars_node -->
<g id="node6" class="node">
<title>function_4_state_vars_node</title>
<path fill="#d1eeee" stroke="#d1eeee" d="M650.5,-227C650.5,-227 709.5,-227 709.5,-227 715.5,-227 721.5,-233 721.5,-239 721.5,-239 721.5,-251 721.5,-251 721.5,-257 715.5,-263 709.5,-263 709.5,-263 650.5,-263 650.5,-263 644.5,-263 638.5,-257 638.5,-251 638.5,-251 638.5,-239 638.5,-239 638.5,-233 644.5,-227 650.5,-227"/>
<text text-anchor="start" x="646.5" y="-241.3" font-family="Helvetica,sans-Serif" font-size="14.00">rollupInfo</text>
</g>
<!-- restoreCandidateAddOn&#45;&gt;function_4_state_vars_node -->
<g id="edge4" class="edge">
<title>restoreCandidateAddOn&#45;&gt;function_4_state_vars_node</title>
<path fill="none" stroke="lightskyblue" d="M476.05,-205.31C521.07,-214.11 571.3,-223.93 610.52,-231.61"/>
<ellipse fill="none" stroke="lightskyblue" cx="471.92" cy="-204.5" rx="4" ry="4"/>
<polygon fill="lightskyblue" stroke="lightskyblue" points="610.02,-235.07 620.5,-233.56 611.36,-228.2 610.02,-235.07"/>
</g>
<!-- _onlyRejectedRollupConfig -->
<g id="node7" class="node">
<title>_onlyRejectedRollupConfig</title>
<path fill="#d1eeee" stroke="#d1eeee" d="M592,-126C592,-126 768,-126 768,-126 774,-126 780,-132 780,-138 780,-138 780,-150 780,-150 780,-156 774,-162 768,-162 768,-162 592,-162 592,-162 586,-162 580,-156 580,-150 580,-150 580,-138 580,-138 580,-132 586,-126 592,-126"/>
<text text-anchor="middle" x="680" y="-140.3" font-family="Helvetica,sans-Serif" font-size="14.00">_onlyRejectedRollupConfig</text>
</g>
<!-- restoreCandidateAddOn&#45;&gt;_onlyRejectedRollupConfig -->
<g id="edge3" class="edge">
<title>restoreCandidateAddOn&#45;&gt;_onlyRejectedRollupConfig</title>
<path fill="none" stroke="lightskyblue" d="M476.14,-168.96C501.41,-165.85 528.31,-162.54 553.98,-159.38"/>
<ellipse fill="none" stroke="lightskyblue" cx="471.97" cy="-169.47" rx="4" ry="4"/>
<polygon fill="lightskyblue" stroke="lightskyblue" points="554.51,-162.84 564,-158.15 553.65,-155.9 554.51,-162.84"/>
</g>
<!-- ILayer2Manager.unpauseCandidateAddOn -->
<g id="node8" class="node">
<title>ILayer2Manager.unpauseCandidateAddOn</title>
<path fill="#d1eeee" stroke="#d1eeee" d="M537,-25C537,-25 823,-25 823,-25 829,-25 835,-31 835,-37 835,-37 835,-49 835,-49 835,-55 829,-61 823,-61 823,-61 537,-61 537,-61 531,-61 525,-55 525,-49 525,-49 525,-37 525,-37 525,-31 531,-25 537,-25"/>
<text text-anchor="middle" x="680" y="-39.3" font-family="Helvetica,sans-Serif" font-size="14.00">ILayer2Manager.unpauseCandidateAddOn</text>
</g>
<!-- restoreCandidateAddOn&#45;&gt;ILayer2Manager.unpauseCandidateAddOn -->
<g id="edge5" class="edge">
<title>restoreCandidateAddOn&#45;&gt;ILayer2Manager.unpauseCandidateAddOn</title>
<path fill="none" stroke="lightskyblue" d="M430.6,-144.11C453.25,-131.93 479.9,-118.34 508.83,-105.18"/>
<ellipse fill="none" stroke="lightskyblue" cx="426.91" cy="-146.1" rx="4" ry="4"/>
<polygon fill="lightskyblue" stroke="lightskyblue" points="510.46,-108.29 518.14,-101 507.59,-101.9 510.46,-108.29"/>
</g>
</g>
</svg>
