<?xml version="1.0" encoding="UTF-8" standalone="no"?>
<!DOCTYPE svg PUBLIC "-//W3C//DTD SVG 1.1//EN"
 "http://www.w3.org/Graphics/SVG/1.1/DTD/svg11.dtd">
<!-- Generated by graphviz version 2.43.0 (0)
 -->
<!-- Title: L1BridgeRegistryV1_1&#45;L1BridgeRegistryV1_1&#45;DEFAULT_ADMIN_ROLE Pages: 1 -->
<svg width="747pt" height="351pt"
 viewBox="0.00 0.00 747.00 351.00" xmlns="http://www.w3.org/2000/svg" xmlns:xlink="http://www.w3.org/1999/xlink">
<g id="graph0" class="graph" transform="scale(1 1) rotate(0) translate(4 347)">
<title>L1BridgeRegistryV1_1&#45;L1BridgeRegistryV1_1&#45;DEFAULT_ADMIN_ROLE</title>
<polygon fill="white" stroke="transparent" points="-4,4 -4,-347 743,-347 743,4 -4,4"/>
<g id="clust1" class="cluster">
<title>cluster_1</title>
<path fill="aliceblue" stroke="aliceblue" d="M20,-188C20,-188 204,-188 204,-188 210,-188 216,-194 216,-200 216,-200 216,-269 216,-269 216,-275 210,-281 204,-281 204,-281 20,-281 20,-281 14,-281 8,-275 8,-269 8,-269 8,-200 8,-200 8,-194 14,-188 20,-188"/>
<text text-anchor="middle" x="112" y="-265.8" font-family="Helvetica,sans-Serif" font-size="14.00">Authenticated Role</text>
</g>
<g id="clust2" class="cluster">
<title>cluster_2</title>
<path fill="aliceblue" stroke="aliceblue" d="M269,-234C269,-234 473,-234 473,-234 479,-234 485,-240 485,-246 485,-246 485,-315 485,-315 485,-321 479,-327 473,-327 473,-327 269,-327 269,-327 263,-327 257,-321 257,-315 257,-315 257,-246 257,-246 257,-240 263,-234 269,-234"/>
<text text-anchor="middle" x="371" y="-311.8" font-family="Helvetica,sans-Serif" font-size="14.00">Function</text>
</g>
<g id="clust3" class="cluster">
<title>cluster_function_2_state_vars</title>
<path fill="aliceblue" stroke="aliceblue" d="M538,-242C538,-242 719,-242 719,-242 725,-242 731,-248 731,-254 731,-254 731,-323 731,-323 731,-329 725,-335 719,-335 719,-335 538,-335 538,-335 532,-335 526,-329 526,-323 526,-323 526,-254 526,-254 526,-248 532,-242 538,-242"/>
<text text-anchor="middle" x="628.5" y="-319.8" font-family="Helvetica,sans-Serif" font-size="14.00">State Variables</text>
</g>
<g id="clust4" class="cluster">
<title>cluster_3</title>
<path fill="aliceblue" stroke="aliceblue" d="M312.5,-125C312.5,-125 429.5,-125 429.5,-125 435.5,-125 441.5,-131 441.5,-137 441.5,-137 441.5,-206 441.5,-206 441.5,-212 435.5,-218 429.5,-218 429.5,-218 312.5,-218 312.5,-218 306.5,-218 300.5,-212 300.5,-206 300.5,-206 300.5,-137 300.5,-137 300.5,-131 306.5,-125 312.5,-125"/>
<text text-anchor="middle" x="371" y="-202.8" font-family="Helvetica,sans-Serif" font-size="14.00">Function</text>
</g>
<g id="clust5" class="cluster">
<title>cluster_function_3_state_vars</title>
<path fill="aliceblue" stroke="aliceblue" d="M564,-109C564,-109 693,-109 693,-109 699,-109 705,-115 705,-121 705,-121 705,-222 705,-222 705,-228 699,-234 693,-234 693,-234 564,-234 564,-234 558,-234 552,-228 552,-222 552,-222 552,-121 552,-121 552,-115 558,-109 564,-109"/>
<text text-anchor="middle" x="628.5" y="-218.8" font-family="Helvetica,sans-Serif" font-size="14.00">State Variables</text>
</g>
<g id="clust6" class="cluster">
<title>cluster_8</title>
<path fill="aliceblue" stroke="aliceblue" d="M556,-8C556,-8 701,-8 701,-8 707,-8 713,-14 713,-20 713,-20 713,-89 713,-89 713,-95 707,-101 701,-101 701,-101 556,-101 556,-101 550,-101 544,-95 544,-89 544,-89 544,-20 544,-20 544,-14 550,-8 556,-8"/>
<text text-anchor="middle" x="628.5" y="-85.8" font-family="Helvetica,sans-Serif" font-size="14.00">Internal Calls</text>
</g>
<!-- DEFAULT_ADMIN_ROLE -->
<g id="node1" class="node">
<title>DEFAULT_ADMIN_ROLE</title>
<path fill="lightgrey" stroke="lightgrey" d="M36,-205C36,-205 188,-205 188,-205 194,-205 200,-211 200,-217 200,-217 200,-229 200,-229 200,-235 194,-241 188,-241 188,-241 36,-241 36,-241 30,-241 24,-235 24,-229 24,-229 24,-217 24,-217 24,-211 30,-205 36,-205"/>
<text text-anchor="middle" x="112" y="-219.3" font-family="Helvetica,sans-Serif" font-size="14.00">DEFAULT_ADMIN_ROLE</text>
</g>
<!-- setSeigniorageCommittee -->
<g id="node2" class="node">
<title>setSeigniorageCommittee</title>
<path fill="#bfefff" stroke="#bfefff" d="M285,-251C285,-251 457,-251 457,-251 463,-251 469,-257 469,-263 469,-263 469,-275 469,-275 469,-281 463,-287 457,-287 457,-287 285,-287 285,-287 279,-287 273,-281 273,-275 273,-275 273,-263 273,-263 273,-257 279,-251 285,-251"/>
<text text-anchor="middle" x="371" y="-265.3" font-family="Helvetica,sans-Serif" font-size="14.00">setSeigniorageCommittee</text>
</g>
<!-- DEFAULT_ADMIN_ROLE&#45;&gt;setSeigniorageCommittee -->
<g id="edge1" class="edge">
<title>DEFAULT_ADMIN_ROLE&#45;&gt;setSeigniorageCommittee</title>
<path fill="none" stroke="lightskyblue" d="M224.17,-242.9C231.74,-244.25 239.39,-245.62 247.01,-246.99"/>
<ellipse fill="none" stroke="lightskyblue" cx="219.94" cy="-242.14" rx="4" ry="4"/>
<polygon fill="lightskyblue" stroke="lightskyblue" points="246.54,-250.46 257,-248.77 247.77,-243.57 246.54,-250.46"/>
</g>
<!-- setAddresses -->
<g id="node4" class="node">
<title>setAddresses</title>
<path fill="#bfefff" stroke="#bfefff" d="M328.5,-142C328.5,-142 413.5,-142 413.5,-142 419.5,-142 425.5,-148 425.5,-154 425.5,-154 425.5,-166 425.5,-166 425.5,-172 419.5,-178 413.5,-178 413.5,-178 328.5,-178 328.5,-178 322.5,-178 316.5,-172 316.5,-166 316.5,-166 316.5,-154 316.5,-154 316.5,-148 322.5,-142 328.5,-142"/>
<text text-anchor="middle" x="371" y="-156.3" font-family="Helvetica,sans-Serif" font-size="14.00">setAddresses</text>
</g>
<!-- DEFAULT_ADMIN_ROLE&#45;&gt;setAddresses -->
<g id="edge2" class="edge">
<title>DEFAULT_ADMIN_ROLE&#45;&gt;setAddresses</title>
<path fill="none" stroke="lightskyblue" d="M223.92,-195.81C246.4,-190.3 269.62,-184.61 290.75,-179.43"/>
<ellipse fill="none" stroke="lightskyblue" cx="219.88" cy="-196.8" rx="4" ry="4"/>
<polygon fill="lightskyblue" stroke="lightskyblue" points="291.62,-182.82 300.5,-177.04 289.96,-176.02 291.62,-182.82"/>
</g>
<!-- function_2_state_vars_node -->
<g id="node3" class="node">
<title>function_2_state_vars_node</title>
<path fill="#d1eeee" stroke="#d1eeee" d="M554,-259C554,-259 703,-259 703,-259 709,-259 715,-265 715,-271 715,-271 715,-283 715,-283 715,-289 709,-295 703,-295 703,-295 554,-295 554,-295 548,-295 542,-289 542,-283 542,-283 542,-271 542,-271 542,-265 548,-259 554,-259"/>
<text text-anchor="start" x="550" y="-273.3" font-family="Helvetica,sans-Serif" font-size="14.00">seigniorageCommittee</text>
</g>
<!-- setSeigniorageCommittee&#45;&gt;function_2_state_vars_node -->
<g id="edge4" class="edge">
<title>setSeigniorageCommittee&#45;&gt;function_2_state_vars_node</title>
<path fill="none" stroke="lightskyblue" d="M493.18,-272.79C500.74,-273.03 508.33,-273.27 515.84,-273.5"/>
<ellipse fill="none" stroke="lightskyblue" cx="489" cy="-272.66" rx="4" ry="4"/>
<polygon fill="lightskyblue" stroke="lightskyblue" points="515.9,-277.01 526,-273.82 516.12,-270.01 515.9,-277.01"/>
</g>
<!-- function_3_state_vars_node -->
<g id="node5" class="node">
<title>function_3_state_vars_node</title>
<path fill="#d1eeee" stroke="#d1eeee" d="M580,-125.5C580,-125.5 677,-125.5 677,-125.5 683,-125.5 689,-131.5 689,-137.5 689,-137.5 689,-182.5 689,-182.5 689,-188.5 683,-194.5 677,-194.5 677,-194.5 580,-194.5 580,-194.5 574,-194.5 568,-188.5 568,-182.5 568,-182.5 568,-137.5 568,-137.5 568,-131.5 574,-125.5 580,-125.5"/>
<text text-anchor="start" x="576" y="-179.3" font-family="Helvetica,sans-Serif" font-size="14.00">layer2Manager</text>
<polyline fill="none" stroke="#d1eeee" points="568,-171.5 689,-171.5 "/>
<text text-anchor="start" x="576" y="-156.3" font-family="Helvetica,sans-Serif" font-size="14.00">seigManager</text>
<polyline fill="none" stroke="#d1eeee" points="568,-148.5 689,-148.5 "/>
<text text-anchor="start" x="576" y="-133.3" font-family="Helvetica,sans-Serif" font-size="14.00">ton</text>
</g>
<!-- setAddresses&#45;&gt;function_3_state_vars_node -->
<g id="edge3" class="edge">
<title>setAddresses&#45;&gt;function_3_state_vars_node</title>
<path fill="none" stroke="lightskyblue" d="M449.58,-160C478.68,-160 511.89,-160 541.69,-160"/>
<ellipse fill="none" stroke="lightskyblue" cx="445.5" cy="-160" rx="4" ry="4"/>
<polygon fill="lightskyblue" stroke="lightskyblue" points="542,-163.5 552,-160 542,-156.5 542,-163.5"/>
</g>
<!-- _nonZeroAddress -->
<g id="node6" class="node">
<title>_nonZeroAddress</title>
<path fill="#d1eeee" stroke="#d1eeee" d="M572,-25C572,-25 685,-25 685,-25 691,-25 697,-31 697,-37 697,-37 697,-49 697,-49 697,-55 691,-61 685,-61 685,-61 572,-61 572,-61 566,-61 560,-55 560,-49 560,-49 560,-37 560,-37 560,-31 566,-25 572,-25"/>
<text text-anchor="middle" x="628.5" y="-39.3" font-family="Helvetica,sans-Serif" font-size="14.00">_nonZeroAddress</text>
</g>
<!-- setAddresses&#45;&gt;_nonZeroAddress -->
<g id="edge5" class="edge">
<title>setAddresses&#45;&gt;_nonZeroAddress</title>
<path fill="none" stroke="lightskyblue" d="M449,-124.74C475.96,-112.39 506.53,-98.4 534.65,-85.52"/>
<ellipse fill="none" stroke="lightskyblue" cx="445.13" cy="-126.51" rx="4" ry="4"/>
<polygon fill="lightskyblue" stroke="lightskyblue" points="536.37,-88.58 544,-81.24 533.45,-82.22 536.37,-88.58"/>
</g>
</g>
</svg>
