<?xml version="1.0" encoding="UTF-8" standalone="no"?>
<!DOCTYPE svg PUBLIC "-//W3C//DTD SVG 1.1//EN"
 "http://www.w3.org/Graphics/SVG/1.1/DTD/svg11.dtd">
<!-- Generated by graphviz version 2.43.0 (0)
 -->
<!-- Title: L1BridgeRegistryV1_1&#45;L1BridgeRegistryV1_1&#45;REGISTRANT_ROLE Pages: 1 -->
<svg width="673pt" height="319pt"
 viewBox="0.00 0.00 673.00 319.00" xmlns="http://www.w3.org/2000/svg" xmlns:xlink="http://www.w3.org/1999/xlink">
<g id="graph0" class="graph" transform="scale(1 1) rotate(0) translate(4 315)">
<title>L1BridgeRegistryV1_1&#45;L1BridgeRegistryV1_1&#45;REGISTRANT_ROLE</title>
<polygon fill="white" stroke="transparent" points="-4,4 -4,-315 669,-315 669,4 -4,4"/>
<g id="clust1" class="cluster">
<title>cluster_1</title>
<path fill="aliceblue" stroke="aliceblue" d="M20,-139C20,-139 177,-139 177,-139 183,-139 189,-145 189,-151 189,-151 189,-220 189,-220 189,-226 183,-232 177,-232 177,-232 20,-232 20,-232 14,-232 8,-226 8,-220 8,-220 8,-151 8,-151 8,-145 14,-139 20,-139"/>
<text text-anchor="middle" x="98.5" y="-216.8" font-family="Helvetica,sans-Serif" font-size="14.00">Authenticated Role</text>
</g>
<g id="clust2" class="cluster">
<title>cluster_2</title>
<path fill="aliceblue" stroke="aliceblue" d="M242,-139C242,-139 408,-139 408,-139 414,-139 420,-145 420,-151 420,-151 420,-220 420,-220 420,-226 414,-232 408,-232 408,-232 242,-232 242,-232 236,-232 230,-226 230,-220 230,-220 230,-151 230,-151 230,-145 236,-139 242,-139"/>
<text text-anchor="middle" x="325" y="-216.8" font-family="Helvetica,sans-Serif" font-size="14.00">Function</text>
</g>
<g id="clust3" class="cluster">
<title>cluster_3</title>
<path fill="aliceblue" stroke="aliceblue" d="M500.5,-210C500.5,-210 617.5,-210 617.5,-210 623.5,-210 629.5,-216 629.5,-222 629.5,-222 629.5,-291 629.5,-291 629.5,-297 623.5,-303 617.5,-303 617.5,-303 500.5,-303 500.5,-303 494.5,-303 488.5,-297 488.5,-291 488.5,-291 488.5,-222 488.5,-222 488.5,-216 494.5,-210 500.5,-210"/>
<text text-anchor="middle" x="559" y="-287.8" font-family="Helvetica,sans-Serif" font-size="14.00">Internal Calls</text>
</g>
<g id="clust4" class="cluster">
<title>cluster_4</title>
<path fill="aliceblue" stroke="aliceblue" d="M271.5,-38C271.5,-38 378.5,-38 378.5,-38 384.5,-38 390.5,-44 390.5,-50 390.5,-50 390.5,-119 390.5,-119 390.5,-125 384.5,-131 378.5,-131 378.5,-131 271.5,-131 271.5,-131 265.5,-131 259.5,-125 259.5,-119 259.5,-119 259.5,-50 259.5,-50 259.5,-44 265.5,-38 271.5,-38"/>
<text text-anchor="middle" x="325" y="-115.8" font-family="Helvetica,sans-Serif" font-size="14.00">Function</text>
</g>
<g id="clust5" class="cluster">
<title>cluster_5</title>
<path fill="aliceblue" stroke="aliceblue" d="M473,-109C473,-109 645,-109 645,-109 651,-109 657,-115 657,-121 657,-121 657,-190 657,-190 657,-196 651,-202 645,-202 645,-202 473,-202 473,-202 467,-202 461,-196 461,-190 461,-190 461,-121 461,-121 461,-115 467,-109 473,-109"/>
<text text-anchor="middle" x="559" y="-186.8" font-family="Helvetica,sans-Serif" font-size="14.00">Internal Calls</text>
</g>
<g id="clust6" class="cluster">
<title>cluster_6</title>
<path fill="aliceblue" stroke="aliceblue" d="M482,-8C482,-8 636,-8 636,-8 642,-8 648,-14 648,-20 648,-20 648,-89 648,-89 648,-95 642,-101 636,-101 636,-101 482,-101 482,-101 476,-101 470,-95 470,-89 470,-89 470,-20 470,-20 470,-14 476,-8 482,-8"/>
<text text-anchor="middle" x="559" y="-85.8" font-family="Helvetica,sans-Serif" font-size="14.00">Internal Calls</text>
</g>
<!-- REGISTRANT_ROLE -->
<g id="node1" class="node">
<title>REGISTRANT_ROLE</title>
<path fill="lightgrey" stroke="lightgrey" d="M36,-156C36,-156 161,-156 161,-156 167,-156 173,-162 173,-168 173,-168 173,-180 173,-180 173,-186 167,-192 161,-192 161,-192 36,-192 36,-192 30,-192 24,-186 24,-180 24,-180 24,-168 24,-168 24,-162 30,-156 36,-156"/>
<text text-anchor="middle" x="98.5" y="-170.3" font-family="Helvetica,sans-Serif" font-size="14.00">REGISTRANT_ROLE</text>
</g>
<!-- registerRollupConfig -->
<g id="node2" class="node">
<title>registerRollupConfig</title>
<path fill="#bfefff" stroke="#bfefff" d="M258,-156C258,-156 392,-156 392,-156 398,-156 404,-162 404,-168 404,-168 404,-180 404,-180 404,-186 398,-192 392,-192 392,-192 258,-192 258,-192 252,-192 246,-186 246,-180 246,-180 246,-168 246,-168 246,-162 252,-156 258,-156"/>
<text text-anchor="middle" x="325" y="-170.3" font-family="Helvetica,sans-Serif" font-size="14.00">registerRollupConfig</text>
</g>
<!-- REGISTRANT_ROLE&#45;&gt;registerRollupConfig -->
<g id="edge1" class="edge">
<title>REGISTRANT_ROLE&#45;&gt;registerRollupConfig</title>
<path fill="none" stroke="lightskyblue" d="M197.07,-167.3C204.55,-167.25 212.12,-167.24 219.64,-167.26"/>
<ellipse fill="none" stroke="lightskyblue" cx="193" cy="-167.34" rx="4" ry="4"/>
<polygon fill="lightskyblue" stroke="lightskyblue" points="219.98,-170.77 230,-167.33 220.02,-163.77 219.98,-170.77"/>
</g>
<!-- REGISTRANT_ROLE&#45;&gt;registerRollupConfig -->
<g id="edge8" class="edge">
<title>REGISTRANT_ROLE&#45;&gt;registerRollupConfig</title>
<path fill="none" stroke="lightskyblue" d="M197.31,-180.7C210.01,-180.79 222.97,-180.76 235.51,-180.61"/>
<ellipse fill="none" stroke="lightskyblue" cx="193" cy="-180.66" rx="4" ry="4"/>
<polygon fill="lightskyblue" stroke="lightskyblue" points="235.74,-184.11 245.69,-180.47 235.64,-177.11 235.74,-184.11"/>
</g>
<!-- changeType -->
<g id="node4" class="node">
<title>changeType</title>
<path fill="#bfefff" stroke="#bfefff" d="M287.5,-55C287.5,-55 362.5,-55 362.5,-55 368.5,-55 374.5,-61 374.5,-67 374.5,-67 374.5,-79 374.5,-79 374.5,-85 368.5,-91 362.5,-91 362.5,-91 287.5,-91 287.5,-91 281.5,-91 275.5,-85 275.5,-79 275.5,-79 275.5,-67 275.5,-67 275.5,-61 281.5,-55 287.5,-55"/>
<text text-anchor="middle" x="325" y="-69.3" font-family="Helvetica,sans-Serif" font-size="14.00">changeType</text>
</g>
<!-- REGISTRANT_ROLE&#45;&gt;changeType -->
<g id="edge3" class="edge">
<title>REGISTRANT_ROLE&#45;&gt;changeType</title>
<path fill="none" stroke="lightskyblue" d="M184.83,-135.61C206.32,-125.94 229.21,-115.65 250.09,-106.25"/>
<ellipse fill="none" stroke="lightskyblue" cx="180.94" cy="-137.36" rx="4" ry="4"/>
<polygon fill="lightskyblue" stroke="lightskyblue" points="251.82,-109.31 259.5,-102.02 248.95,-102.93 251.82,-109.31"/>
</g>
<!-- _nonRejected -->
<g id="node3" class="node">
<title>_nonRejected</title>
<path fill="#d1eeee" stroke="#d1eeee" d="M516.5,-227C516.5,-227 601.5,-227 601.5,-227 607.5,-227 613.5,-233 613.5,-239 613.5,-239 613.5,-251 613.5,-251 613.5,-257 607.5,-263 601.5,-263 601.5,-263 516.5,-263 516.5,-263 510.5,-263 504.5,-257 504.5,-251 504.5,-251 504.5,-239 504.5,-239 504.5,-233 510.5,-227 516.5,-227"/>
<text text-anchor="middle" x="559" y="-241.3" font-family="Helvetica,sans-Serif" font-size="14.00">_nonRejected</text>
</g>
<!-- registerRollupConfig&#45;&gt;_nonRejected -->
<g id="edge2" class="edge">
<title>registerRollupConfig&#45;&gt;_nonRejected</title>
<path fill="none" stroke="lightskyblue" d="M427.81,-198.45C444.89,-203.57 462.39,-209.01 478.79,-214.32"/>
<ellipse fill="none" stroke="lightskyblue" cx="423.83" cy="-197.27" rx="4" ry="4"/>
<polygon fill="lightskyblue" stroke="lightskyblue" points="477.91,-217.71 488.5,-217.49 480.08,-211.06 477.91,-217.71"/>
</g>
<!-- registerRollupConfig&#45;&gt;_nonRejected -->
<g id="edge7" class="edge">
<title>registerRollupConfig&#45;&gt;_nonRejected</title>
<path fill="none" stroke="lightskyblue" d="M375.32,-194.73C405.3,-205.04 444.27,-217.23 478.51,-227.12"/>
<ellipse fill="none" stroke="lightskyblue" cx="371.26" cy="-193.32" rx="4" ry="4"/>
<polygon fill="lightskyblue" stroke="lightskyblue" points="477.93,-230.59 488.5,-229.97 479.85,-223.86 477.93,-230.59"/>
</g>
<!-- _registerRollupConfig -->
<g id="node5" class="node">
<title>_registerRollupConfig</title>
<path fill="#d1eeee" stroke="#d1eeee" d="M489,-126C489,-126 629,-126 629,-126 635,-126 641,-132 641,-138 641,-138 641,-150 641,-150 641,-156 635,-162 629,-162 629,-162 489,-162 489,-162 483,-162 477,-156 477,-150 477,-150 477,-138 477,-138 477,-132 483,-126 489,-126"/>
<text text-anchor="middle" x="559" y="-140.3" font-family="Helvetica,sans-Serif" font-size="14.00">_registerRollupConfig</text>
</g>
<!-- registerRollupConfig&#45;&gt;_registerRollupConfig -->
<g id="edge6" class="edge">
<title>registerRollupConfig&#45;&gt;_registerRollupConfig</title>
<path fill="none" stroke="lightskyblue" d="M428.1,-154.09C435.6,-153.07 443.18,-152.08 450.71,-151.14"/>
<ellipse fill="none" stroke="lightskyblue" cx="423.96" cy="-154.66" rx="4" ry="4"/>
<polygon fill="lightskyblue" stroke="lightskyblue" points="451.51,-154.57 461,-149.87 450.65,-147.62 451.51,-154.57"/>
</g>
<!-- registerRollupConfig&#45;&gt;_registerRollupConfig -->
<g id="edge9" class="edge">
<title>registerRollupConfig&#45;&gt;_registerRollupConfig</title>
<path fill="none" stroke="lightskyblue" d="M412.26,-169.39C424.79,-167.95 437.83,-166.32 450.71,-164.61"/>
<ellipse fill="none" stroke="lightskyblue" cx="408.2" cy="-169.86" rx="4" ry="4"/>
<polygon fill="lightskyblue" stroke="lightskyblue" points="451.56,-168.02 461,-163.21 450.62,-161.09 451.56,-168.02"/>
</g>
<!-- changeType&#45;&gt;_registerRollupConfig -->
<g id="edge4" class="edge">
<title>changeType&#45;&gt;_registerRollupConfig</title>
<path fill="none" stroke="lightskyblue" d="M398.58,-95.21C415.29,-100.33 433.41,-105.87 451.23,-111.33"/>
<ellipse fill="none" stroke="lightskyblue" cx="394.32" cy="-93.91" rx="4" ry="4"/>
<polygon fill="lightskyblue" stroke="lightskyblue" points="450.42,-114.74 461,-114.32 452.46,-108.04 450.42,-114.74"/>
</g>
<!-- _resetRollupConfig -->
<g id="node6" class="node">
<title>_resetRollupConfig</title>
<path fill="#d1eeee" stroke="#d1eeee" d="M498,-25C498,-25 620,-25 620,-25 626,-25 632,-31 632,-37 632,-37 632,-49 632,-49 632,-55 626,-61 620,-61 620,-61 498,-61 498,-61 492,-61 486,-55 486,-49 486,-49 486,-37 486,-37 486,-31 492,-25 498,-25"/>
<text text-anchor="middle" x="559" y="-39.3" font-family="Helvetica,sans-Serif" font-size="14.00">_resetRollupConfig</text>
</g>
<!-- changeType&#45;&gt;_resetRollupConfig -->
<g id="edge5" class="edge">
<title>changeType&#45;&gt;_resetRollupConfig</title>
<path fill="none" stroke="lightskyblue" d="M398.44,-63.63C417.93,-61.11 439.34,-58.34 459.98,-55.68"/>
<ellipse fill="none" stroke="lightskyblue" cx="394.47" cy="-64.15" rx="4" ry="4"/>
<polygon fill="lightskyblue" stroke="lightskyblue" points="460.53,-59.13 470,-54.38 459.63,-52.19 460.53,-59.13"/>
</g>
</g>
</svg>
