<?xml version="1.0" encoding="UTF-8" standalone="no"?>
<!DOCTYPE svg PUBLIC "-//W3C//DTD SVG 1.1//EN"
 "http://www.w3.org/Graphics/SVG/1.1/DTD/svg11.dtd">
<!-- Generated by graphviz version 2.43.0 (0)
 -->
<!-- Title: Layer2ManagerV1_1&#45;Layer2ManagerV1_1&#45;DEFAULT_ADMIN_ROLE Pages: 1 -->
<svg width="854pt" height="466pt"
 viewBox="0.00 0.00 854.00 466.00" xmlns="http://www.w3.org/2000/svg" xmlns:xlink="http://www.w3.org/1999/xlink">
<g id="graph0" class="graph" transform="scale(1 1) rotate(0) translate(4 462)">
<title>Layer2ManagerV1_1&#45;Layer2ManagerV1_1&#45;DEFAULT_ADMIN_ROLE</title>
<polygon fill="white" stroke="transparent" points="-4,4 -4,-462 850,-462 850,4 -4,4"/>
<g id="clust1" class="cluster">
<title>cluster_1</title>
<path fill="aliceblue" stroke="aliceblue" d="M20,-182C20,-182 204,-182 204,-182 210,-182 216,-188 216,-194 216,-194 216,-263 216,-263 216,-269 210,-275 204,-275 204,-275 20,-275 20,-275 14,-275 8,-269 8,-263 8,-263 8,-194 8,-194 8,-188 14,-182 20,-182"/>
<text text-anchor="middle" x="112" y="-259.8" font-family="Helvetica,sans-Serif" font-size="14.00">Authenticated Role</text>
</g>
<g id="clust2" class="cluster">
<title>cluster_2</title>
<path fill="aliceblue" stroke="aliceblue" d="M287.5,-320C287.5,-320 506.5,-320 506.5,-320 512.5,-320 518.5,-326 518.5,-332 518.5,-332 518.5,-401 518.5,-401 518.5,-407 512.5,-413 506.5,-413 506.5,-413 287.5,-413 287.5,-413 281.5,-413 275.5,-407 275.5,-401 275.5,-401 275.5,-332 275.5,-332 275.5,-326 281.5,-320 287.5,-320"/>
<text text-anchor="middle" x="397" y="-397.8" font-family="Helvetica,sans-Serif" font-size="14.00">Function</text>
</g>
<g id="clust3" class="cluster">
<title>cluster_function_2_state_vars</title>
<path fill="aliceblue" stroke="aliceblue" d="M610.5,-357C610.5,-357 805.5,-357 805.5,-357 811.5,-357 817.5,-363 817.5,-369 817.5,-369 817.5,-438 817.5,-438 817.5,-444 811.5,-450 805.5,-450 805.5,-450 610.5,-450 610.5,-450 604.5,-450 598.5,-444 598.5,-438 598.5,-438 598.5,-369 598.5,-369 598.5,-363 604.5,-357 610.5,-357"/>
<text text-anchor="middle" x="708" y="-434.8" font-family="Helvetica,sans-Serif" font-size="14.00">State Variables</text>
</g>
<g id="clust4" class="cluster">
<title>cluster_3</title>
<path fill="aliceblue" stroke="aliceblue" d="M338.5,-182C338.5,-182 455.5,-182 455.5,-182 461.5,-182 467.5,-188 467.5,-194 467.5,-194 467.5,-263 467.5,-263 467.5,-269 461.5,-275 455.5,-275 455.5,-275 338.5,-275 338.5,-275 332.5,-275 326.5,-269 326.5,-263 326.5,-263 326.5,-194 326.5,-194 326.5,-188 332.5,-182 338.5,-182"/>
<text text-anchor="middle" x="397" y="-259.8" font-family="Helvetica,sans-Serif" font-size="14.00">Function</text>
</g>
<g id="clust5" class="cluster">
<title>cluster_function_3_state_vars</title>
<path fill="aliceblue" stroke="aliceblue" d="M610.5,-109C610.5,-109 805.5,-109 805.5,-109 811.5,-109 817.5,-115 817.5,-121 817.5,-121 817.5,-337 817.5,-337 817.5,-343 811.5,-349 805.5,-349 805.5,-349 610.5,-349 610.5,-349 604.5,-349 598.5,-343 598.5,-337 598.5,-337 598.5,-121 598.5,-121 598.5,-115 604.5,-109 610.5,-109"/>
<text text-anchor="middle" x="708" y="-333.8" font-family="Helvetica,sans-Serif" font-size="14.00">State Variables</text>
</g>
<g id="clust6" class="cluster">
<title>cluster_9</title>
<path fill="aliceblue" stroke="aliceblue" d="M269,-45C269,-45 525,-45 525,-45 531,-45 537,-51 537,-57 537,-57 537,-126 537,-126 537,-132 531,-138 525,-138 525,-138 269,-138 269,-138 263,-138 257,-132 257,-126 257,-126 257,-57 257,-57 257,-51 263,-45 269,-45"/>
<text text-anchor="middle" x="397" y="-122.8" font-family="Helvetica,sans-Serif" font-size="14.00">Function</text>
</g>
<g id="clust7" class="cluster">
<title>cluster_function_9_state_vars</title>
<path fill="aliceblue" stroke="aliceblue" d="M590,-8C590,-8 826,-8 826,-8 832,-8 838,-14 838,-20 838,-20 838,-89 838,-89 838,-95 832,-101 826,-101 826,-101 590,-101 590,-101 584,-101 578,-95 578,-89 578,-89 578,-20 578,-20 578,-14 584,-8 590,-8"/>
<text text-anchor="middle" x="708" y="-85.8" font-family="Helvetica,sans-Serif" font-size="14.00">State Variables</text>
</g>
<!-- DEFAULT_ADMIN_ROLE -->
<g id="node1" class="node">
<title>DEFAULT_ADMIN_ROLE</title>
<path fill="lightgrey" stroke="lightgrey" d="M36,-199C36,-199 188,-199 188,-199 194,-199 200,-205 200,-211 200,-211 200,-223 200,-223 200,-229 194,-235 188,-235 188,-235 36,-235 36,-235 30,-235 24,-229 24,-223 24,-223 24,-211 24,-211 24,-205 30,-199 36,-199"/>
<text text-anchor="middle" x="112" y="-213.3" font-family="Helvetica,sans-Serif" font-size="14.00">DEFAULT_ADMIN_ROLE</text>
</g>
<!-- setOperatorManagerFactory -->
<g id="node2" class="node">
<title>setOperatorManagerFactory</title>
<path fill="#bfefff" stroke="#bfefff" d="M303.5,-337C303.5,-337 490.5,-337 490.5,-337 496.5,-337 502.5,-343 502.5,-349 502.5,-349 502.5,-361 502.5,-361 502.5,-367 496.5,-373 490.5,-373 490.5,-373 303.5,-373 303.5,-373 297.5,-373 291.5,-367 291.5,-361 291.5,-361 291.5,-349 291.5,-349 291.5,-343 297.5,-337 303.5,-337"/>
<text text-anchor="middle" x="397" y="-351.3" font-family="Helvetica,sans-Serif" font-size="14.00">setOperatorManagerFactory</text>
</g>
<!-- DEFAULT_ADMIN_ROLE&#45;&gt;setOperatorManagerFactory -->
<g id="edge1" class="edge">
<title>DEFAULT_ADMIN_ROLE&#45;&gt;setOperatorManagerFactory</title>
<path fill="none" stroke="lightskyblue" d="M223.31,-270.79C253.91,-285.71 286.56,-301.63 315.14,-315.57"/>
<ellipse fill="none" stroke="lightskyblue" cx="219.59" cy="-268.98" rx="4" ry="4"/>
<polygon fill="lightskyblue" stroke="lightskyblue" points="313.71,-318.77 324.23,-320 316.78,-312.48 313.71,-318.77"/>
</g>
<!-- setAddresses -->
<g id="node4" class="node">
<title>setAddresses</title>
<path fill="#bfefff" stroke="#bfefff" d="M354.5,-199C354.5,-199 439.5,-199 439.5,-199 445.5,-199 451.5,-205 451.5,-211 451.5,-211 451.5,-223 451.5,-223 451.5,-229 445.5,-235 439.5,-235 439.5,-235 354.5,-235 354.5,-235 348.5,-235 342.5,-229 342.5,-223 342.5,-223 342.5,-211 342.5,-211 342.5,-205 348.5,-199 354.5,-199"/>
<text text-anchor="middle" x="397" y="-213.3" font-family="Helvetica,sans-Serif" font-size="14.00">setAddresses</text>
</g>
<!-- DEFAULT_ADMIN_ROLE&#45;&gt;setAddresses -->
<g id="edge3" class="edge">
<title>DEFAULT_ADMIN_ROLE&#45;&gt;setAddresses</title>
<path fill="none" stroke="lightskyblue" d="M224.19,-217C254.95,-217 287.72,-217 316.3,-217"/>
<ellipse fill="none" stroke="lightskyblue" cx="220" cy="-217" rx="4" ry="4"/>
<polygon fill="lightskyblue" stroke="lightskyblue" points="316.5,-220.5 326.5,-217 316.5,-213.5 316.5,-220.5"/>
</g>
<!-- setMinimumInitialDepositAmount -->
<g id="node6" class="node">
<title>setMinimumInitialDepositAmount</title>
<path fill="#bfefff" stroke="#bfefff" d="M285,-62C285,-62 509,-62 509,-62 515,-62 521,-68 521,-74 521,-74 521,-86 521,-86 521,-92 515,-98 509,-98 509,-98 285,-98 285,-98 279,-98 273,-92 273,-86 273,-86 273,-74 273,-74 273,-68 279,-62 285,-62"/>
<text text-anchor="middle" x="397" y="-76.3" font-family="Helvetica,sans-Serif" font-size="14.00">setMinimumInitialDepositAmount</text>
</g>
<!-- DEFAULT_ADMIN_ROLE&#45;&gt;setMinimumInitialDepositAmount -->
<g id="edge6" class="edge">
<title>DEFAULT_ADMIN_ROLE&#45;&gt;setMinimumInitialDepositAmount</title>
<path fill="none" stroke="lightskyblue" d="M192.68,-178.43C215.74,-167.26 241.53,-154.78 266.8,-142.55"/>
<ellipse fill="none" stroke="lightskyblue" cx="188.89" cy="-180.26" rx="4" ry="4"/>
<polygon fill="lightskyblue" stroke="lightskyblue" points="268.72,-145.5 276.2,-138 265.67,-139.2 268.72,-145.5"/>
</g>
<!-- function_2_state_vars_node -->
<g id="node3" class="node">
<title>function_2_state_vars_node</title>
<path fill="#d1eeee" stroke="#d1eeee" d="M626.5,-374C626.5,-374 789.5,-374 789.5,-374 795.5,-374 801.5,-380 801.5,-386 801.5,-386 801.5,-398 801.5,-398 801.5,-404 795.5,-410 789.5,-410 789.5,-410 626.5,-410 626.5,-410 620.5,-410 614.5,-404 614.5,-398 614.5,-398 614.5,-386 614.5,-386 614.5,-380 620.5,-374 626.5,-374"/>
<text text-anchor="start" x="622.5" y="-388.3" font-family="Helvetica,sans-Serif" font-size="14.00">operatorManagerFactory</text>
</g>
<!-- setOperatorManagerFactory&#45;&gt;function_2_state_vars_node -->
<g id="edge4" class="edge">
<title>setOperatorManagerFactory&#45;&gt;function_2_state_vars_node</title>
<path fill="none" stroke="lightskyblue" d="M526.61,-370.4C547.09,-372.85 568.19,-375.38 588.42,-377.8"/>
<ellipse fill="none" stroke="lightskyblue" cx="522.47" cy="-369.9" rx="4" ry="4"/>
<polygon fill="lightskyblue" stroke="lightskyblue" points="588.16,-381.29 598.5,-379.01 588.99,-374.34 588.16,-381.29"/>
</g>
<!-- function_3_state_vars_node -->
<g id="node5" class="node">
<title>function_3_state_vars_node</title>
<path fill="#d1eeee" stroke="#d1eeee" d="M626.5,-125C626.5,-125 789.5,-125 789.5,-125 795.5,-125 801.5,-131 801.5,-137 801.5,-137 801.5,-297 801.5,-297 801.5,-303 795.5,-309 789.5,-309 789.5,-309 626.5,-309 626.5,-309 620.5,-309 614.5,-303 614.5,-297 614.5,-297 614.5,-137 614.5,-137 614.5,-131 620.5,-125 626.5,-125"/>
<text text-anchor="start" x="622.5" y="-293.8" font-family="Helvetica,sans-Serif" font-size="14.00">wton</text>
<polyline fill="none" stroke="#d1eeee" points="614.5,-286 801.5,-286 "/>
<text text-anchor="start" x="622.5" y="-270.8" font-family="Helvetica,sans-Serif" font-size="14.00">dao</text>
<polyline fill="none" stroke="#d1eeee" points="614.5,-263 801.5,-263 "/>
<text text-anchor="start" x="622.5" y="-247.8" font-family="Helvetica,sans-Serif" font-size="14.00">seigManager</text>
<polyline fill="none" stroke="#d1eeee" points="614.5,-240 801.5,-240 "/>
<text text-anchor="start" x="622.5" y="-224.8" font-family="Helvetica,sans-Serif" font-size="14.00">l1BridgeRegistry</text>
<polyline fill="none" stroke="#d1eeee" points="614.5,-217 801.5,-217 "/>
<text text-anchor="start" x="622.5" y="-201.8" font-family="Helvetica,sans-Serif" font-size="14.00">operatorManagerFactory</text>
<polyline fill="none" stroke="#d1eeee" points="614.5,-194 801.5,-194 "/>
<text text-anchor="start" x="622.5" y="-178.8" font-family="Helvetica,sans-Serif" font-size="14.00">ton</text>
<polyline fill="none" stroke="#d1eeee" points="614.5,-171 801.5,-171 "/>
<text text-anchor="start" x="622.5" y="-155.8" font-family="Helvetica,sans-Serif" font-size="14.00">depositManager</text>
<polyline fill="none" stroke="#d1eeee" points="614.5,-148 801.5,-148 "/>
<text text-anchor="start" x="622.5" y="-132.8" font-family="Helvetica,sans-Serif" font-size="14.00">swapProxy</text>
</g>
<!-- setAddresses&#45;&gt;function_3_state_vars_node -->
<g id="edge2" class="edge">
<title>setAddresses&#45;&gt;function_3_state_vars_node</title>
<path fill="none" stroke="lightskyblue" d="M475.57,-217C509.69,-217 550.54,-217 588.35,-217"/>
<ellipse fill="none" stroke="lightskyblue" cx="471.5" cy="-217" rx="4" ry="4"/>
<polygon fill="lightskyblue" stroke="lightskyblue" points="588.5,-220.5 598.5,-217 588.5,-213.5 588.5,-220.5"/>
</g>
<!-- function_9_state_vars_node -->
<g id="node7" class="node">
<title>function_9_state_vars_node</title>
<path fill="#d1eeee" stroke="#d1eeee" d="M606,-25C606,-25 810,-25 810,-25 816,-25 822,-31 822,-37 822,-37 822,-49 822,-49 822,-55 816,-61 810,-61 810,-61 606,-61 606,-61 600,-61 594,-55 594,-49 594,-49 594,-37 594,-37 594,-31 600,-25 606,-25"/>
<text text-anchor="start" x="602" y="-39.3" font-family="Helvetica,sans-Serif" font-size="14.00">minimumInitialDepositAmount</text>
</g>
<!-- setMinimumInitialDepositAmount&#45;&gt;function_9_state_vars_node -->
<g id="edge5" class="edge">
<title>setMinimumInitialDepositAmount&#45;&gt;function_9_state_vars_node</title>
<path fill="none" stroke="lightskyblue" d="M545.16,-62.38C552.69,-61.48 560.25,-60.57 567.76,-59.67"/>
<ellipse fill="none" stroke="lightskyblue" cx="540.97" cy="-62.88" rx="4" ry="4"/>
<polygon fill="lightskyblue" stroke="lightskyblue" points="568.49,-63.11 578,-58.45 567.66,-56.16 568.49,-63.11"/>
</g>
</g>
</svg>
