<?xml version="1.0" encoding="UTF-8" standalone="no"?>
<!DOCTYPE svg PUBLIC "-//W3C//DTD SVG 1.1//EN"
 "http://www.w3.org/Graphics/SVG/1.1/DTD/svg11.dtd">
<!-- Generated by graphviz version 2.43.0 (0)
 -->
<!-- Title: DAOCommittee_V1&#45;DAOCommittee_V1&#45;DEFAULT_ADMIN_ROLE Pages: 1 -->
<svg width="934pt" height="1137pt"
 viewBox="0.00 0.00 934.00 1137.00" xmlns="http://www.w3.org/2000/svg" xmlns:xlink="http://www.w3.org/1999/xlink">
<g id="graph0" class="graph" transform="scale(1 1) rotate(0) translate(4 1133)">
<title>DAOCommittee_V1&#45;DAOCommittee_V1&#45;DEFAULT_ADMIN_ROLE</title>
<polygon fill="white" stroke="transparent" points="-4,4 -4,-1133 930,-1133 930,4 -4,4"/>
<g id="clust1" class="cluster">
<title>cluster_1</title>
<path fill="aliceblue" stroke="aliceblue" d="M20,-664C20,-664 204,-664 204,-664 210,-664 216,-670 216,-676 216,-676 216,-745 216,-745 216,-751 210,-757 204,-757 204,-757 20,-757 20,-757 14,-757 8,-751 8,-745 8,-745 8,-676 8,-676 8,-670 14,-664 20,-664"/>
<text text-anchor="middle" x="112" y="-741.8" font-family="Helvetica,sans-Serif" font-size="14.00">Authenticated Role</text>
</g>
<g id="clust2" class="cluster">
<title>cluster_2</title>
<path fill="aliceblue" stroke="aliceblue" d="M269,-790C269,-790 528,-790 528,-790 534,-790 540,-796 540,-802 540,-802 540,-871 540,-871 540,-877 534,-883 528,-883 528,-883 269,-883 269,-883 263,-883 257,-877 257,-871 257,-871 257,-802 257,-802 257,-796 263,-790 269,-790"/>
<text text-anchor="middle" x="398.5" y="-867.8" font-family="Helvetica,sans-Serif" font-size="14.00">Function</text>
</g>
<g id="clust3" class="cluster">
<title>cluster_3</title>
<path fill="aliceblue" stroke="aliceblue" d="M306.5,-664C306.5,-664 490.5,-664 490.5,-664 496.5,-664 502.5,-670 502.5,-676 502.5,-676 502.5,-745 502.5,-745 502.5,-751 496.5,-757 490.5,-757 490.5,-757 306.5,-757 306.5,-757 300.5,-757 294.5,-751 294.5,-745 294.5,-745 294.5,-676 294.5,-676 294.5,-670 300.5,-664 306.5,-664"/>
<text text-anchor="middle" x="398.5" y="-741.8" font-family="Helvetica,sans-Serif" font-size="14.00">Function</text>
</g>
<g id="clust4" class="cluster">
<title>cluster_function_3_state_vars</title>
<path fill="aliceblue" stroke="aliceblue" d="M671,-917C671,-917 828,-917 828,-917 834,-917 840,-923 840,-929 840,-929 840,-1008 840,-1008 840,-1014 834,-1020 828,-1020 828,-1020 671,-1020 671,-1020 665,-1020 659,-1014 659,-1008 659,-1008 659,-929 659,-929 659,-923 665,-917 671,-917"/>
<text text-anchor="middle" x="749.5" y="-1004.8" font-family="Helvetica,sans-Serif" font-size="14.00">State Variables</text>
</g>
<g id="clust5" class="cluster">
<title>cluster_4</title>
<path fill="aliceblue" stroke="aliceblue" d="M593,-816C593,-816 906,-816 906,-816 912,-816 918,-822 918,-828 918,-828 918,-897 918,-897 918,-903 912,-909 906,-909 906,-909 593,-909 593,-909 587,-909 581,-903 581,-897 581,-897 581,-828 581,-828 581,-822 587,-816 593,-816"/>
<text text-anchor="middle" x="749.5" y="-893.8" font-family="Helvetica,sans-Serif" font-size="14.00">External Calls</text>
</g>
<g id="clust6" class="cluster">
<title>cluster_5</title>
<path fill="aliceblue" stroke="aliceblue" d="M327,-210C327,-210 470,-210 470,-210 476,-210 482,-216 482,-222 482,-222 482,-291 482,-291 482,-297 476,-303 470,-303 470,-303 327,-303 327,-303 321,-303 315,-297 315,-291 315,-291 315,-222 315,-222 315,-216 321,-210 327,-210"/>
<text text-anchor="middle" x="398.5" y="-287.8" font-family="Helvetica,sans-Serif" font-size="14.00">Function</text>
</g>
<g id="clust7" class="cluster">
<title>cluster_6</title>
<path fill="aliceblue" stroke="aliceblue" d="M647.5,-311C647.5,-311 851.5,-311 851.5,-311 857.5,-311 863.5,-317 863.5,-323 863.5,-323 863.5,-392 863.5,-392 863.5,-398 857.5,-404 851.5,-404 851.5,-404 647.5,-404 647.5,-404 641.5,-404 635.5,-398 635.5,-392 635.5,-392 635.5,-323 635.5,-323 635.5,-317 641.5,-311 647.5,-311"/>
<text text-anchor="middle" x="749.5" y="-388.8" font-family="Helvetica,sans-Serif" font-size="14.00">External Calls</text>
</g>
<g id="clust8" class="cluster">
<title>cluster_8</title>
<path fill="aliceblue" stroke="aliceblue" d="M688.5,-715C688.5,-715 810.5,-715 810.5,-715 816.5,-715 822.5,-721 822.5,-727 822.5,-727 822.5,-796 822.5,-796 822.5,-802 816.5,-808 810.5,-808 810.5,-808 688.5,-808 688.5,-808 682.5,-808 676.5,-802 676.5,-796 676.5,-796 676.5,-727 676.5,-727 676.5,-721 682.5,-715 688.5,-715"/>
<text text-anchor="middle" x="749.5" y="-792.8" font-family="Helvetica,sans-Serif" font-size="14.00">Internal Calls</text>
</g>
<g id="clust9" class="cluster">
<title>cluster_9</title>
<path fill="aliceblue" stroke="aliceblue" d="M649.5,-210C649.5,-210 849.5,-210 849.5,-210 855.5,-210 861.5,-216 861.5,-222 861.5,-222 861.5,-291 861.5,-291 861.5,-297 855.5,-303 849.5,-303 849.5,-303 649.5,-303 649.5,-303 643.5,-303 637.5,-297 637.5,-291 637.5,-291 637.5,-222 637.5,-222 637.5,-216 643.5,-210 649.5,-210"/>
<text text-anchor="middle" x="749.5" y="-287.8" font-family="Helvetica,sans-Serif" font-size="14.00">External Calls</text>
</g>
<g id="clust10" class="cluster">
<title>cluster_10</title>
<path fill="aliceblue" stroke="aliceblue" d="M684,-614C684,-614 815,-614 815,-614 821,-614 827,-620 827,-626 827,-626 827,-695 827,-695 827,-701 821,-707 815,-707 815,-707 684,-707 684,-707 678,-707 672,-701 672,-695 672,-695 672,-626 672,-626 672,-620 678,-614 684,-614"/>
<text text-anchor="middle" x="749.5" y="-691.8" font-family="Helvetica,sans-Serif" font-size="14.00">Internal Calls</text>
</g>
<g id="clust11" class="cluster">
<title>cluster_11</title>
<path fill="aliceblue" stroke="aliceblue" d="M647,-109C647,-109 852,-109 852,-109 858,-109 864,-115 864,-121 864,-121 864,-190 864,-190 864,-196 858,-202 852,-202 852,-202 647,-202 647,-202 641,-202 635,-196 635,-190 635,-190 635,-121 635,-121 635,-115 641,-109 647,-109"/>
<text text-anchor="middle" x="749.5" y="-186.8" font-family="Helvetica,sans-Serif" font-size="14.00">External Calls</text>
</g>
<g id="clust12" class="cluster">
<title>cluster_12</title>
<path fill="aliceblue" stroke="aliceblue" d="M650,-8C650,-8 849,-8 849,-8 855,-8 861,-14 861,-20 861,-20 861,-89 861,-89 861,-95 855,-101 849,-101 849,-101 650,-101 650,-101 644,-101 638,-95 638,-89 638,-89 638,-20 638,-20 638,-14 644,-8 650,-8"/>
<text text-anchor="middle" x="749.5" y="-85.8" font-family="Helvetica,sans-Serif" font-size="14.00">External Calls</text>
</g>
<g id="clust13" class="cluster">
<title>cluster_13</title>
<path fill="aliceblue" stroke="aliceblue" d="M653.5,-513C653.5,-513 845.5,-513 845.5,-513 851.5,-513 857.5,-519 857.5,-525 857.5,-525 857.5,-594 857.5,-594 857.5,-600 851.5,-606 845.5,-606 845.5,-606 653.5,-606 653.5,-606 647.5,-606 641.5,-600 641.5,-594 641.5,-594 641.5,-525 641.5,-525 641.5,-519 647.5,-513 653.5,-513"/>
<text text-anchor="middle" x="749.5" y="-590.8" font-family="Helvetica,sans-Serif" font-size="14.00">External Calls</text>
</g>
<g id="clust14" class="cluster">
<title>cluster_15</title>
<path fill="aliceblue" stroke="aliceblue" d="M680,-412C680,-412 819,-412 819,-412 825,-412 831,-418 831,-424 831,-424 831,-493 831,-493 831,-499 825,-505 819,-505 819,-505 680,-505 680,-505 674,-505 668,-499 668,-493 668,-493 668,-424 668,-424 668,-418 674,-412 680,-412"/>
<text text-anchor="middle" x="749.5" y="-489.8" font-family="Helvetica,sans-Serif" font-size="14.00">External Calls</text>
</g>
<g id="clust15" class="cluster">
<title>cluster_16</title>
<path fill="aliceblue" stroke="aliceblue" d="M648.5,-1028C648.5,-1028 850.5,-1028 850.5,-1028 856.5,-1028 862.5,-1034 862.5,-1040 862.5,-1040 862.5,-1109 862.5,-1109 862.5,-1115 856.5,-1121 850.5,-1121 850.5,-1121 648.5,-1121 648.5,-1121 642.5,-1121 636.5,-1115 636.5,-1109 636.5,-1109 636.5,-1040 636.5,-1040 636.5,-1034 642.5,-1028 648.5,-1028"/>
<text text-anchor="middle" x="749.5" y="-1105.8" font-family="Helvetica,sans-Serif" font-size="14.00">Internal Calls</text>
</g>
<!-- DEFAULT_ADMIN_ROLE -->
<g id="node1" class="node">
<title>DEFAULT_ADMIN_ROLE</title>
<path fill="lightgrey" stroke="lightgrey" d="M36,-681C36,-681 188,-681 188,-681 194,-681 200,-687 200,-693 200,-693 200,-705 200,-705 200,-711 194,-717 188,-717 188,-717 36,-717 36,-717 30,-717 24,-711 24,-705 24,-705 24,-693 24,-693 24,-687 30,-681 36,-681"/>
<text text-anchor="middle" x="112" y="-695.3" font-family="Helvetica,sans-Serif" font-size="14.00">DEFAULT_ADMIN_ROLE</text>
</g>
<!-- registerLayer2CandidateByOwner -->
<g id="node2" class="node">
<title>registerLayer2CandidateByOwner</title>
<path fill="#bfefff" stroke="#bfefff" d="M285,-807C285,-807 512,-807 512,-807 518,-807 524,-813 524,-819 524,-819 524,-831 524,-831 524,-837 518,-843 512,-843 512,-843 285,-843 285,-843 279,-843 273,-837 273,-831 273,-831 273,-819 273,-819 273,-813 279,-807 285,-807"/>
<text text-anchor="middle" x="398.5" y="-821.3" font-family="Helvetica,sans-Serif" font-size="14.00">registerLayer2CandidateByOwner</text>
</g>
<!-- DEFAULT_ADMIN_ROLE&#45;&gt;registerLayer2CandidateByOwner -->
<g id="edge1" class="edge">
<title>DEFAULT_ADMIN_ROLE&#45;&gt;registerLayer2CandidateByOwner</title>
<path fill="none" stroke="lightskyblue" d="M223.56,-747.96C251.94,-760.53 282.09,-773.89 309.18,-785.88"/>
<ellipse fill="none" stroke="lightskyblue" cx="219.65" cy="-746.24" rx="4" ry="4"/>
<polygon fill="lightskyblue" stroke="lightskyblue" points="307.92,-789.15 318.48,-790 310.75,-782.75 307.92,-789.15"/>
</g>
<!-- createCandidateOwner -->
<g id="node3" class="node">
<title>createCandidateOwner</title>
<path fill="#bfefff" stroke="#bfefff" d="M322.5,-681C322.5,-681 474.5,-681 474.5,-681 480.5,-681 486.5,-687 486.5,-693 486.5,-693 486.5,-705 486.5,-705 486.5,-711 480.5,-717 474.5,-717 474.5,-717 322.5,-717 322.5,-717 316.5,-717 310.5,-711 310.5,-705 310.5,-705 310.5,-693 310.5,-693 310.5,-687 316.5,-681 322.5,-681"/>
<text text-anchor="middle" x="398.5" y="-695.3" font-family="Helvetica,sans-Serif" font-size="14.00">createCandidateOwner</text>
</g>
<!-- DEFAULT_ADMIN_ROLE&#45;&gt;createCandidateOwner -->
<g id="edge9" class="edge">
<title>DEFAULT_ADMIN_ROLE&#45;&gt;createCandidateOwner</title>
<path fill="none" stroke="lightskyblue" d="M224.1,-699C243.84,-699 264.43,-699 284.22,-699"/>
<ellipse fill="none" stroke="lightskyblue" cx="220" cy="-699" rx="4" ry="4"/>
<polygon fill="lightskyblue" stroke="lightskyblue" points="284.5,-702.5 294.5,-699 284.5,-695.5 284.5,-702.5"/>
</g>
<!-- setAgendaStatus -->
<g id="node6" class="node">
<title>setAgendaStatus</title>
<path fill="#bfefff" stroke="#bfefff" d="M343,-227C343,-227 454,-227 454,-227 460,-227 466,-233 466,-239 466,-239 466,-251 466,-251 466,-257 460,-263 454,-263 454,-263 343,-263 343,-263 337,-263 331,-257 331,-251 331,-251 331,-239 331,-239 331,-233 337,-227 343,-227"/>
<text text-anchor="middle" x="398.5" y="-241.3" font-family="Helvetica,sans-Serif" font-size="14.00">setAgendaStatus</text>
</g>
<!-- DEFAULT_ADMIN_ROLE&#45;&gt;setAgendaStatus -->
<g id="edge6" class="edge">
<title>DEFAULT_ADMIN_ROLE&#45;&gt;setAgendaStatus</title>
<path fill="none" stroke="lightskyblue" d="M139.25,-657.11C188.73,-578.15 296.16,-406.72 355.69,-311.73"/>
<ellipse fill="none" stroke="lightskyblue" cx="137.05" cy="-660.61" rx="4" ry="4"/>
<polygon fill="lightskyblue" stroke="lightskyblue" points="358.81,-313.33 361.16,-303 352.88,-309.61 358.81,-313.33"/>
</g>
<!-- _registerLayer2Candidate -->
<g id="node15" class="node">
<title>_registerLayer2Candidate</title>
<path fill="#d1eeee" stroke="#d1eeee" d="M664.5,-1045C664.5,-1045 834.5,-1045 834.5,-1045 840.5,-1045 846.5,-1051 846.5,-1057 846.5,-1057 846.5,-1069 846.5,-1069 846.5,-1075 840.5,-1081 834.5,-1081 834.5,-1081 664.5,-1081 664.5,-1081 658.5,-1081 652.5,-1075 652.5,-1069 652.5,-1069 652.5,-1057 652.5,-1057 652.5,-1051 658.5,-1045 664.5,-1045"/>
<text text-anchor="middle" x="749.5" y="-1059.3" font-family="Helvetica,sans-Serif" font-size="14.00">_registerLayer2Candidate</text>
</g>
<!-- registerLayer2CandidateByOwner&#45;&gt;_registerLayer2Candidate -->
<g id="edge14" class="edge">
<title>registerLayer2CandidateByOwner&#45;&gt;_registerLayer2Candidate</title>
<path fill="none" stroke="lightskyblue" d="M442.22,-889.46C475.02,-933.89 524.22,-990.73 581,-1024 595.02,-1032.21 610.65,-1038.7 626.57,-1043.82"/>
<ellipse fill="none" stroke="lightskyblue" cx="439.86" cy="-886.23" rx="4" ry="4"/>
<polygon fill="lightskyblue" stroke="lightskyblue" points="625.92,-1047.28 636.5,-1046.83 627.95,-1040.58 625.92,-1047.28"/>
</g>
<!-- function_3_state_vars_node -->
<g id="node4" class="node">
<title>function_3_state_vars_node</title>
<path fill="#d1eeee" stroke="#d1eeee" d="M687,-934C687,-934 812,-934 812,-934 818,-934 824,-940 824,-946 824,-946 824,-968 824,-968 824,-974 818,-980 812,-980 812,-980 687,-980 687,-980 681,-980 675,-974 675,-968 675,-968 675,-946 675,-946 675,-940 681,-934 687,-934"/>
<text text-anchor="start" x="683" y="-964.8" font-family="Helvetica,sans-Serif" font-size="14.00">_candidateInfos</text>
<polyline fill="none" stroke="#d1eeee" points="675,-957 824,-957 "/>
<text text-anchor="start" x="683" y="-941.8" font-family="Helvetica,sans-Serif" font-size="14.00">_oldCandidateInfos</text>
</g>
<!-- createCandidateOwner&#45;&gt;function_3_state_vars_node -->
<g id="edge4" class="edge">
<title>createCandidateOwner&#45;&gt;function_3_state_vars_node</title>
<path fill="none" stroke="lightskyblue" d="M508.98,-755.51C520.49,-764.59 531.19,-774.75 540,-786 576.57,-832.7 537.91,-872.24 581,-913 599.61,-930.6 624.38,-941.36 649.15,-947.88"/>
<ellipse fill="none" stroke="lightskyblue" cx="505.68" cy="-753" rx="4" ry="4"/>
<polygon fill="lightskyblue" stroke="lightskyblue" points="648.46,-951.32 659,-950.26 650.1,-944.51 648.46,-951.32"/>
</g>
<!-- layer2Registry.registerAndDeployCoinage -->
<g id="node5" class="node">
<title>layer2Registry.registerAndDeployCoinage</title>
<path fill="#d1eeee" stroke="#d1eeee" d="M609,-833C609,-833 890,-833 890,-833 896,-833 902,-839 902,-845 902,-845 902,-857 902,-857 902,-863 896,-869 890,-869 890,-869 609,-869 609,-869 603,-869 597,-863 597,-857 597,-857 597,-845 597,-845 597,-839 603,-833 609,-833"/>
<text text-anchor="middle" x="749.5" y="-847.3" font-family="Helvetica,sans-Serif" font-size="14.00">layer2Registry.registerAndDeployCoinage</text>
</g>
<!-- createCandidateOwner&#45;&gt;layer2Registry.registerAndDeployCoinage -->
<g id="edge2" class="edge">
<title>createCandidateOwner&#45;&gt;layer2Registry.registerAndDeployCoinage</title>
<path fill="none" stroke="lightskyblue" d="M500.43,-761.31C513.75,-769.59 527.21,-777.99 540,-786 558.28,-797.46 561.1,-803.66 581,-812 581.21,-812.09 581.41,-812.17 581.62,-812.26"/>
<ellipse fill="none" stroke="lightskyblue" cx="496.87" cy="-759.11" rx="4" ry="4"/>
<polygon fill="lightskyblue" stroke="lightskyblue" points="580.43,-815.55 591.01,-816 583.02,-809.05 580.43,-815.55"/>
</g>
<!-- CandidateInfo -->
<g id="node8" class="node">
<title>CandidateInfo</title>
<path fill="#d1eeee" stroke="#d1eeee" d="M704.5,-732C704.5,-732 794.5,-732 794.5,-732 800.5,-732 806.5,-738 806.5,-744 806.5,-744 806.5,-756 806.5,-756 806.5,-762 800.5,-768 794.5,-768 794.5,-768 704.5,-768 704.5,-768 698.5,-768 692.5,-762 692.5,-756 692.5,-756 692.5,-744 692.5,-744 692.5,-738 698.5,-732 704.5,-732"/>
<text text-anchor="middle" x="749.5" y="-746.3" font-family="Helvetica,sans-Serif" font-size="14.00">CandidateInfo</text>
</g>
<!-- createCandidateOwner&#45;&gt;CandidateInfo -->
<g id="edge5" class="edge">
<title>createCandidateOwner&#45;&gt;CandidateInfo</title>
<path fill="none" stroke="lightskyblue" d="M510.54,-715.23C561.12,-722.62 619.92,-731.21 666.42,-738.01"/>
<ellipse fill="none" stroke="lightskyblue" cx="506.46" cy="-714.63" rx="4" ry="4"/>
<polygon fill="lightskyblue" stroke="lightskyblue" points="666.1,-741.5 676.5,-739.48 667.11,-734.57 666.1,-741.5"/>
</g>
<!-- CandidateInfo2 -->
<g id="node10" class="node">
<title>CandidateInfo2</title>
<path fill="#d1eeee" stroke="#d1eeee" d="M700,-631C700,-631 799,-631 799,-631 805,-631 811,-637 811,-643 811,-643 811,-655 811,-655 811,-661 805,-667 799,-667 799,-667 700,-667 700,-667 694,-667 688,-661 688,-655 688,-655 688,-643 688,-643 688,-637 694,-631 700,-631"/>
<text text-anchor="middle" x="749.5" y="-645.3" font-family="Helvetica,sans-Serif" font-size="14.00">CandidateInfo2</text>
</g>
<!-- createCandidateOwner&#45;&gt;CandidateInfo2 -->
<g id="edge8" class="edge">
<title>createCandidateOwner&#45;&gt;CandidateInfo2</title>
<path fill="none" stroke="lightskyblue" d="M510.6,-683.08C559.59,-676.07 616.28,-667.94 662.04,-661.39"/>
<ellipse fill="none" stroke="lightskyblue" cx="506.46" cy="-683.68" rx="4" ry="4"/>
<polygon fill="lightskyblue" stroke="lightskyblue" points="662.6,-664.84 672,-659.96 661.61,-657.91 662.6,-664.84"/>
</g>
<!-- candidateFactory.deploy -->
<g id="node13" class="node">
<title>candidateFactory.deploy</title>
<path fill="#d1eeee" stroke="#d1eeee" d="M669.5,-530C669.5,-530 829.5,-530 829.5,-530 835.5,-530 841.5,-536 841.5,-542 841.5,-542 841.5,-554 841.5,-554 841.5,-560 835.5,-566 829.5,-566 829.5,-566 669.5,-566 669.5,-566 663.5,-566 657.5,-560 657.5,-554 657.5,-554 657.5,-542 657.5,-542 657.5,-536 663.5,-530 669.5,-530"/>
<text text-anchor="middle" x="749.5" y="-544.3" font-family="Helvetica,sans-Serif" font-size="14.00">candidateFactory.deploy</text>
</g>
<!-- createCandidateOwner&#45;&gt;candidateFactory.deploy -->
<g id="edge12" class="edge">
<title>createCandidateOwner&#45;&gt;candidateFactory.deploy</title>
<path fill="none" stroke="lightskyblue" d="M474.01,-660.35C506.51,-644.04 545.29,-625.32 581,-610 597.34,-602.99 614.77,-596.01 631.97,-589.4"/>
<ellipse fill="none" stroke="lightskyblue" cx="470.32" cy="-662.2" rx="4" ry="4"/>
<polygon fill="lightskyblue" stroke="lightskyblue" points="633.4,-592.6 641.5,-585.76 630.91,-586.06 633.4,-592.6"/>
</g>
<!-- candidates.push -->
<g id="node14" class="node">
<title>candidates.push</title>
<path fill="#d1eeee" stroke="#d1eeee" d="M696,-429C696,-429 803,-429 803,-429 809,-429 815,-435 815,-441 815,-441 815,-453 815,-453 815,-459 809,-465 803,-465 803,-465 696,-465 696,-465 690,-465 684,-459 684,-453 684,-453 684,-441 684,-441 684,-435 690,-429 696,-429"/>
<text text-anchor="middle" x="749.5" y="-443.3" font-family="Helvetica,sans-Serif" font-size="14.00">candidates.push</text>
</g>
<!-- createCandidateOwner&#45;&gt;candidates.push -->
<g id="edge13" class="edge">
<title>createCandidateOwner&#45;&gt;candidates.push</title>
<path fill="none" stroke="lightskyblue" d="M429.75,-657.65C462.72,-615.17 519.11,-549.67 581,-509 604.47,-493.58 632.29,-481.31 658.45,-471.89"/>
<ellipse fill="none" stroke="lightskyblue" cx="427.3" cy="-660.83" rx="4" ry="4"/>
<polygon fill="lightskyblue" stroke="lightskyblue" points="659.72,-475.16 668,-468.55 657.41,-468.55 659.72,-475.16"/>
</g>
<!-- agendaManager.setResult -->
<g id="node7" class="node">
<title>agendaManager.setResult</title>
<path fill="#d1eeee" stroke="#d1eeee" d="M663.5,-328C663.5,-328 835.5,-328 835.5,-328 841.5,-328 847.5,-334 847.5,-340 847.5,-340 847.5,-352 847.5,-352 847.5,-358 841.5,-364 835.5,-364 835.5,-364 663.5,-364 663.5,-364 657.5,-364 651.5,-358 651.5,-352 651.5,-352 651.5,-340 651.5,-340 651.5,-334 657.5,-328 663.5,-328"/>
<text text-anchor="middle" x="749.5" y="-342.3" font-family="Helvetica,sans-Serif" font-size="14.00">agendaManager.setResult</text>
</g>
<!-- setAgendaStatus&#45;&gt;agendaManager.setResult -->
<g id="edge3" class="edge">
<title>setAgendaStatus&#45;&gt;agendaManager.setResult</title>
<path fill="none" stroke="lightskyblue" d="M489.68,-277.8C518.65,-287.8 551,-298.41 581,-307 595.37,-311.12 610.53,-315.11 625.61,-318.88"/>
<ellipse fill="none" stroke="lightskyblue" cx="485.77" cy="-276.45" rx="4" ry="4"/>
<polygon fill="lightskyblue" stroke="lightskyblue" points="624.95,-322.33 635.5,-321.32 626.63,-315.53 624.95,-322.33"/>
</g>
<!-- LibAgenda.AgendaStatus -->
<g id="node9" class="node">
<title>LibAgenda.AgendaStatus</title>
<path fill="#d1eeee" stroke="#d1eeee" d="M665.5,-227C665.5,-227 833.5,-227 833.5,-227 839.5,-227 845.5,-233 845.5,-239 845.5,-239 845.5,-251 845.5,-251 845.5,-257 839.5,-263 833.5,-263 833.5,-263 665.5,-263 665.5,-263 659.5,-263 653.5,-257 653.5,-251 653.5,-251 653.5,-239 653.5,-239 653.5,-233 659.5,-227 665.5,-227"/>
<text text-anchor="middle" x="749.5" y="-241.3" font-family="Helvetica,sans-Serif" font-size="14.00">LibAgenda.AgendaStatus</text>
</g>
<!-- setAgendaStatus&#45;&gt;LibAgenda.AgendaStatus -->
<g id="edge7" class="edge">
<title>setAgendaStatus&#45;&gt;LibAgenda.AgendaStatus</title>
<path fill="none" stroke="lightskyblue" d="M490.26,-245C532.12,-245 582.4,-245 627.44,-245"/>
<ellipse fill="none" stroke="lightskyblue" cx="486" cy="-245" rx="4" ry="4"/>
<polygon fill="lightskyblue" stroke="lightskyblue" points="627.5,-248.5 637.5,-245 627.5,-241.5 627.5,-248.5"/>
</g>
<!-- agendaManager.setStatus -->
<g id="node11" class="node">
<title>agendaManager.setStatus</title>
<path fill="#d1eeee" stroke="#d1eeee" d="M663,-126C663,-126 836,-126 836,-126 842,-126 848,-132 848,-138 848,-138 848,-150 848,-150 848,-156 842,-162 836,-162 836,-162 663,-162 663,-162 657,-162 651,-156 651,-150 651,-150 651,-138 651,-138 651,-132 657,-126 663,-126"/>
<text text-anchor="middle" x="749.5" y="-140.3" font-family="Helvetica,sans-Serif" font-size="14.00">agendaManager.setStatus</text>
</g>
<!-- setAgendaStatus&#45;&gt;agendaManager.setStatus -->
<g id="edge10" class="edge">
<title>setAgendaStatus&#45;&gt;agendaManager.setStatus</title>
<path fill="none" stroke="lightskyblue" d="M489.88,-218.85C531.17,-206.9 580.72,-192.56 625.35,-179.64"/>
<ellipse fill="none" stroke="lightskyblue" cx="485.84" cy="-220.01" rx="4" ry="4"/>
<polygon fill="lightskyblue" stroke="lightskyblue" points="626.37,-182.99 635,-176.85 624.42,-176.26 626.37,-182.99"/>
</g>
<!-- LibAgenda.AgendaResult -->
<g id="node12" class="node">
<title>LibAgenda.AgendaResult</title>
<path fill="#d1eeee" stroke="#d1eeee" d="M666,-25C666,-25 833,-25 833,-25 839,-25 845,-31 845,-37 845,-37 845,-49 845,-49 845,-55 839,-61 833,-61 833,-61 666,-61 666,-61 660,-61 654,-55 654,-49 654,-49 654,-37 654,-37 654,-31 660,-25 666,-25"/>
<text text-anchor="middle" x="749.5" y="-39.3" font-family="Helvetica,sans-Serif" font-size="14.00">LibAgenda.AgendaResult</text>
</g>
<!-- setAgendaStatus&#45;&gt;LibAgenda.AgendaResult -->
<g id="edge11" class="edge">
<title>setAgendaStatus&#45;&gt;LibAgenda.AgendaResult</title>
<path fill="none" stroke="lightskyblue" d="M444.02,-204.45C479.2,-173.99 530.62,-132.9 581,-105 595.9,-96.75 612.13,-89.18 628.41,-82.38"/>
<ellipse fill="none" stroke="lightskyblue" cx="440.66" cy="-207.38" rx="4" ry="4"/>
<polygon fill="lightskyblue" stroke="lightskyblue" points="630.06,-85.49 638,-78.47 627.42,-79.01 630.06,-85.49"/>
</g>
</g>
</svg>
