<?xml version="1.0" encoding="UTF-8" standalone="no"?>
<!DOCTYPE svg PUBLIC "-//W3C//DTD SVG 1.1//EN"
 "http://www.w3.org/Graphics/SVG/1.1/DTD/svg11.dtd">
<!-- Generated by graphviz version 2.43.0 (0)
 -->
<!-- Title: OperatorManagerV1_1&#45;OperatorManagerV1_1&#45;DEFAULT_ADMIN_ROLE Pages: 1 -->
<svg width="615pt" height="273pt"
 viewBox="0.00 0.00 615.00 273.00" xmlns="http://www.w3.org/2000/svg" xmlns:xlink="http://www.w3.org/1999/xlink">
<g id="graph0" class="graph" transform="scale(1 1) rotate(0) translate(4 269)">
<title>OperatorManagerV1_1&#45;OperatorManagerV1_1&#45;DEFAULT_ADMIN_ROLE</title>
<polygon fill="white" stroke="transparent" points="-4,4 -4,-269 611,-269 611,4 -4,4"/>
<g id="clust1" class="cluster">
<title>cluster_1</title>
<path fill="aliceblue" stroke="aliceblue" d="M20,-27C20,-27 204,-27 204,-27 210,-27 216,-33 216,-39 216,-39 216,-108 216,-108 216,-114 210,-120 204,-120 204,-120 20,-120 20,-120 14,-120 8,-114 8,-108 8,-108 8,-39 8,-39 8,-33 14,-27 20,-27"/>
<text text-anchor="middle" x="112" y="-104.8" font-family="Helvetica,sans-Serif" font-size="14.00">Authenticated Role</text>
</g>
<g id="clust2" class="cluster">
<title>cluster_2</title>
<path fill="aliceblue" stroke="aliceblue" d="M269,-27C269,-27 386,-27 386,-27 392,-27 398,-33 398,-39 398,-39 398,-108 398,-108 398,-114 392,-120 386,-120 386,-120 269,-120 269,-120 263,-120 257,-114 257,-108 257,-108 257,-39 257,-39 257,-33 263,-27 269,-27"/>
<text text-anchor="middle" x="327.5" y="-104.8" font-family="Helvetica,sans-Serif" font-size="14.00">Function</text>
</g>
<g id="clust3" class="cluster">
<title>cluster_function_2_state_vars</title>
<path fill="aliceblue" stroke="aliceblue" d="M451,-109C451,-109 587,-109 587,-109 593,-109 599,-115 599,-121 599,-121 599,-245 599,-245 599,-251 593,-257 587,-257 587,-257 451,-257 451,-257 445,-257 439,-251 439,-245 439,-245 439,-121 439,-121 439,-115 445,-109 451,-109"/>
<text text-anchor="middle" x="519" y="-241.8" font-family="Helvetica,sans-Serif" font-size="14.00">State Variables</text>
</g>
<g id="clust4" class="cluster">
<title>cluster_4</title>
<path fill="aliceblue" stroke="aliceblue" d="M466.5,-8C466.5,-8 571.5,-8 571.5,-8 577.5,-8 583.5,-14 583.5,-20 583.5,-20 583.5,-89 583.5,-89 583.5,-95 577.5,-101 571.5,-101 571.5,-101 466.5,-101 466.5,-101 460.5,-101 454.5,-95 454.5,-89 454.5,-89 454.5,-20 454.5,-20 454.5,-14 460.5,-8 466.5,-8"/>
<text text-anchor="middle" x="519" y="-85.8" font-family="Helvetica,sans-Serif" font-size="14.00">Internal Calls</text>
</g>
<!-- DEFAULT_ADMIN_ROLE -->
<g id="node1" class="node">
<title>DEFAULT_ADMIN_ROLE</title>
<path fill="lightgrey" stroke="lightgrey" d="M36,-44C36,-44 188,-44 188,-44 194,-44 200,-50 200,-56 200,-56 200,-68 200,-68 200,-74 194,-80 188,-80 188,-80 36,-80 36,-80 30,-80 24,-74 24,-68 24,-68 24,-56 24,-56 24,-50 30,-44 36,-44"/>
<text text-anchor="middle" x="112" y="-58.3" font-family="Helvetica,sans-Serif" font-size="14.00">DEFAULT_ADMIN_ROLE</text>
</g>
<!-- setAddresses -->
<g id="node2" class="node">
<title>setAddresses</title>
<path fill="#bfefff" stroke="#bfefff" d="M285,-44C285,-44 370,-44 370,-44 376,-44 382,-50 382,-56 382,-56 382,-68 382,-68 382,-74 376,-80 370,-80 370,-80 285,-80 285,-80 279,-80 273,-74 273,-68 273,-68 273,-56 273,-56 273,-50 279,-44 285,-44"/>
<text text-anchor="middle" x="327.5" y="-58.3" font-family="Helvetica,sans-Serif" font-size="14.00">setAddresses</text>
</g>
<!-- DEFAULT_ADMIN_ROLE&#45;&gt;setAddresses -->
<g id="edge1" class="edge">
<title>DEFAULT_ADMIN_ROLE&#45;&gt;setAddresses</title>
<path fill="none" stroke="lightskyblue" d="M224.2,-62C231.76,-62 239.29,-62 246.64,-62"/>
<ellipse fill="none" stroke="lightskyblue" cx="220" cy="-62" rx="4" ry="4"/>
<polygon fill="lightskyblue" stroke="lightskyblue" points="247,-65.5 257,-62 247,-58.5 247,-65.5"/>
</g>
<!-- function_2_state_vars_node -->
<g id="node3" class="node">
<title>function_2_state_vars_node</title>
<path fill="#d1eeee" stroke="#d1eeee" d="M467,-125C467,-125 571,-125 571,-125 577,-125 583,-131 583,-137 583,-137 583,-205 583,-205 583,-211 577,-217 571,-217 571,-217 467,-217 467,-217 461,-217 455,-211 455,-205 455,-205 455,-137 455,-137 455,-131 461,-125 467,-125"/>
<text text-anchor="start" x="463" y="-201.8" font-family="Helvetica,sans-Serif" font-size="14.00">ton</text>
<polyline fill="none" stroke="#d1eeee" points="455,-194 583,-194 "/>
<text text-anchor="start" x="463" y="-178.8" font-family="Helvetica,sans-Serif" font-size="14.00">layer2Manager</text>
<polyline fill="none" stroke="#d1eeee" points="455,-171 583,-171 "/>
<text text-anchor="start" x="463" y="-155.8" font-family="Helvetica,sans-Serif" font-size="14.00">wton</text>
<polyline fill="none" stroke="#d1eeee" points="455,-148 583,-148 "/>
<text text-anchor="start" x="463" y="-132.8" font-family="Helvetica,sans-Serif" font-size="14.00">depositManager</text>
</g>
<!-- setAddresses&#45;&gt;function_2_state_vars_node -->
<g id="edge2" class="edge">
<title>setAddresses&#45;&gt;function_2_state_vars_node</title>
<path fill="none" stroke="lightskyblue" d="M404.94,-105.97C413.28,-110.76 421.81,-115.67 430.26,-120.53"/>
<ellipse fill="none" stroke="lightskyblue" cx="401.46" cy="-103.97" rx="4" ry="4"/>
<polygon fill="lightskyblue" stroke="lightskyblue" points="428.59,-123.61 439,-125.56 432.08,-117.54 428.59,-123.61"/>
</g>
<!-- _alreadySet -->
<g id="node4" class="node">
<title>_alreadySet</title>
<path fill="#d1eeee" stroke="#d1eeee" d="M482.5,-25C482.5,-25 555.5,-25 555.5,-25 561.5,-25 567.5,-31 567.5,-37 567.5,-37 567.5,-49 567.5,-49 567.5,-55 561.5,-61 555.5,-61 555.5,-61 482.5,-61 482.5,-61 476.5,-61 470.5,-55 470.5,-49 470.5,-49 470.5,-37 470.5,-37 470.5,-31 476.5,-25 482.5,-25"/>
<text text-anchor="middle" x="519" y="-39.3" font-family="Helvetica,sans-Serif" font-size="14.00">_alreadySet</text>
</g>
<!-- setAddresses&#45;&gt;_alreadySet -->
<g id="edge3" class="edge">
<title>setAddresses&#45;&gt;_alreadySet</title>
<path fill="none" stroke="lightskyblue" d="M406.21,-54.21C418.82,-52.94 431.85,-51.64 444.36,-50.38"/>
<ellipse fill="none" stroke="lightskyblue" cx="401.98" cy="-54.63" rx="4" ry="4"/>
<polygon fill="lightskyblue" stroke="lightskyblue" points="444.9,-53.85 454.5,-49.37 444.21,-46.88 444.9,-53.85"/>
</g>
</g>
</svg>
