<?xml version="1.0" encoding="UTF-8" standalone="no"?>
<!DOCTYPE svg PUBLIC "-//W3C//DTD SVG 1.1//EN"
 "http://www.w3.org/Graphics/SVG/1.1/DTD/svg11.dtd">
<!-- Generated by graphviz version 2.43.0 (0)
 -->
<!-- Title: DAOCommittee_V1&#45;DAOCommittee_V1&#45;_membercontract Pages: 1 -->
<svg width="614pt" height="218pt"
 viewBox="0.00 0.00 614.00 218.00" xmlns="http://www.w3.org/2000/svg" xmlns:xlink="http://www.w3.org/1999/xlink">
<g id="graph0" class="graph" transform="scale(1 1) rotate(0) translate(4 214)">
<title>DAOCommittee_V1&#45;DAOCommittee_V1&#45;_membercontract</title>
<polygon fill="white" stroke="transparent" points="-4,4 -4,-214 610,-214 610,4 -4,4"/>
<g id="clust1" class="cluster">
<title>cluster_1</title>
<path fill="aliceblue" stroke="aliceblue" d="M231,-27C231,-27 349,-27 349,-27 355,-27 361,-33 361,-39 361,-39 361,-108 361,-108 361,-114 355,-120 349,-120 349,-120 231,-120 231,-120 225,-120 219,-114 219,-108 219,-108 219,-39 219,-39 219,-33 225,-27 231,-27"/>
<text text-anchor="middle" x="290" y="-104.8" font-family="Helvetica,sans-Serif" font-size="14.00">Function</text>
</g>
<g id="clust2" class="cluster">
<title>cluster_function_1_state_vars</title>
<path fill="aliceblue" stroke="aliceblue" d="M452.5,-109C452.5,-109 548.5,-109 548.5,-109 554.5,-109 560.5,-115 560.5,-121 560.5,-121 560.5,-190 560.5,-190 560.5,-196 554.5,-202 548.5,-202 548.5,-202 452.5,-202 452.5,-202 446.5,-202 440.5,-196 440.5,-190 440.5,-190 440.5,-121 440.5,-121 440.5,-115 446.5,-109 452.5,-109"/>
<text text-anchor="middle" x="500.5" y="-186.8" font-family="Helvetica,sans-Serif" font-size="14.00">State Variables</text>
</g>
<g id="clust3" class="cluster">
<title>cluster_2</title>
<path fill="aliceblue" stroke="aliceblue" d="M414,-8C414,-8 586,-8 586,-8 592,-8 598,-14 598,-20 598,-20 598,-89 598,-89 598,-95 592,-101 586,-101 586,-101 414,-101 414,-101 408,-101 402,-95 402,-89 402,-89 402,-20 402,-20 402,-14 408,-8 414,-8"/>
<text text-anchor="middle" x="500" y="-85.8" font-family="Helvetica,sans-Serif" font-size="14.00">External Calls</text>
</g>
<g id="clust4" class="cluster">
<title>cluster_4</title>
<path fill="aliceblue" stroke="aliceblue" d="M20,-27C20,-27 166,-27 166,-27 172,-27 178,-33 178,-39 178,-39 178,-108 178,-108 178,-114 172,-120 166,-120 166,-120 20,-120 20,-120 14,-120 8,-114 8,-108 8,-108 8,-39 8,-39 8,-33 14,-27 20,-27"/>
<text text-anchor="middle" x="93" y="-104.8" font-family="Helvetica,sans-Serif" font-size="14.00">Authenticated Role</text>
</g>
<!-- retireMember -->
<g id="node1" class="node">
<title>retireMember</title>
<path fill="#bfefff" stroke="#bfefff" d="M247,-44C247,-44 333,-44 333,-44 339,-44 345,-50 345,-56 345,-56 345,-68 345,-68 345,-74 339,-80 333,-80 333,-80 247,-80 247,-80 241,-80 235,-74 235,-68 235,-68 235,-56 235,-56 235,-50 241,-44 247,-44"/>
<text text-anchor="middle" x="290" y="-58.3" font-family="Helvetica,sans-Serif" font-size="14.00">retireMember</text>
</g>
<!-- function_1_state_vars_node -->
<g id="node2" class="node">
<title>function_1_state_vars_node</title>
<path fill="#d1eeee" stroke="#d1eeee" d="M470.5,-126C470.5,-126 529.5,-126 529.5,-126 535.5,-126 541.5,-132 541.5,-138 541.5,-138 541.5,-150 541.5,-150 541.5,-156 535.5,-162 529.5,-162 529.5,-162 470.5,-162 470.5,-162 464.5,-162 458.5,-156 458.5,-150 458.5,-150 458.5,-138 458.5,-138 458.5,-132 464.5,-126 470.5,-126"/>
<text text-anchor="start" x="466.5" y="-140.3" font-family="Helvetica,sans-Serif" font-size="14.00">members</text>
</g>
<!-- retireMember&#45;&gt;function_1_state_vars_node -->
<g id="edge2" class="edge">
<title>retireMember&#45;&gt;function_1_state_vars_node</title>
<path fill="none" stroke="lightskyblue" d="M368.51,-92.56C389.09,-100.67 411.15,-109.37 431.17,-117.26"/>
<ellipse fill="none" stroke="lightskyblue" cx="364.72" cy="-91.06" rx="4" ry="4"/>
<polygon fill="lightskyblue" stroke="lightskyblue" points="429.92,-120.53 440.5,-120.94 432.48,-114.02 429.92,-120.53"/>
</g>
<!-- ICandidate.candidate -->
<g id="node3" class="node">
<title>ICandidate.candidate</title>
<path fill="#d1eeee" stroke="#d1eeee" d="M430,-25C430,-25 570,-25 570,-25 576,-25 582,-31 582,-37 582,-37 582,-49 582,-49 582,-55 576,-61 570,-61 570,-61 430,-61 430,-61 424,-61 418,-55 418,-49 418,-49 418,-37 418,-37 418,-31 424,-25 430,-25"/>
<text text-anchor="middle" x="500" y="-39.3" font-family="Helvetica,sans-Serif" font-size="14.00">ICandidate.candidate</text>
</g>
<!-- retireMember&#45;&gt;ICandidate.candidate -->
<g id="edge1" class="edge">
<title>retireMember&#45;&gt;ICandidate.candidate</title>
<path fill="none" stroke="lightskyblue" d="M369.04,-54.87C376.52,-54.19 384.2,-53.49 391.9,-52.78"/>
<ellipse fill="none" stroke="lightskyblue" cx="364.98" cy="-55.24" rx="4" ry="4"/>
<polygon fill="lightskyblue" stroke="lightskyblue" points="392.36,-56.26 402,-51.86 391.73,-49.28 392.36,-56.26"/>
</g>
<!-- _membercontract -->
<g id="node4" class="node">
<title>_membercontract</title>
<path fill="lightgrey" stroke="lightgrey" d="M36,-44C36,-44 150,-44 150,-44 156,-44 162,-50 162,-56 162,-56 162,-68 162,-68 162,-74 156,-80 150,-80 150,-80 36,-80 36,-80 30,-80 24,-74 24,-68 24,-68 24,-56 24,-56 24,-50 30,-44 36,-44"/>
<text text-anchor="middle" x="93" y="-58.3" font-family="Helvetica,sans-Serif" font-size="14.00">_membercontract</text>
</g>
<!-- _membercontract&#45;&gt;retireMember -->
<g id="edge3" class="edge">
<title>_membercontract&#45;&gt;retireMember</title>
<path fill="none" stroke="lightskyblue" d="M186.2,-62C193.79,-62 201.41,-62 208.9,-62"/>
<ellipse fill="none" stroke="lightskyblue" cx="182" cy="-62" rx="4" ry="4"/>
<polygon fill="lightskyblue" stroke="lightskyblue" points="209,-65.5 219,-62 209,-58.5 209,-65.5"/>
</g>
</g>
</svg>
