<?xml version="1.0" encoding="UTF-8" standalone="no"?>
<!DOCTYPE svg PUBLIC "-//W3C//DTD SVG 1.1//EN"
 "http://www.w3.org/Graphics/SVG/1.1/DTD/svg11.dtd">
<!-- Generated by graphviz version 2.43.0 (0)
 -->
<!-- Title: Layer2ManagerV1_1&#45;Layer2ManagerV1_1&#45;seigManager Pages: 1 -->
<svg width="619pt" height="117pt"
 viewBox="0.00 0.00 619.00 117.00" xmlns="http://www.w3.org/2000/svg" xmlns:xlink="http://www.w3.org/1999/xlink">
<g id="graph0" class="graph" transform="scale(1 1) rotate(0) translate(4 113)">
<title>Layer2ManagerV1_1&#45;Layer2ManagerV1_1&#45;seigManager</title>
<polygon fill="white" stroke="transparent" points="-4,4 -4,-113 615,-113 615,4 -4,4"/>
<g id="clust1" class="cluster">
<title>cluster_1</title>
<path fill="aliceblue" stroke="aliceblue" d="M15,-8C15,-8 139,-8 139,-8 145,-8 151,-14 151,-20 151,-20 151,-89 151,-89 151,-95 145,-101 139,-101 139,-101 15,-101 15,-101 9,-101 3,-95 3,-89 3,-89 3,-20 3,-20 3,-14 9,-8 15,-8"/>
<text text-anchor="middle" x="77" y="-85.8" font-family="Helvetica,sans-Serif" font-size="14.00">Authenticated Role</text>
</g>
<g id="clust2" class="cluster">
<title>cluster_2</title>
<path fill="aliceblue" stroke="aliceblue" d="M204,-8C204,-8 360,-8 360,-8 366,-8 372,-14 372,-20 372,-20 372,-89 372,-89 372,-95 366,-101 360,-101 360,-101 204,-101 204,-101 198,-101 192,-95 192,-89 192,-89 192,-20 192,-20 192,-14 198,-8 204,-8"/>
<text text-anchor="middle" x="282" y="-85.8" font-family="Helvetica,sans-Serif" font-size="14.00">Function</text>
</g>
<g id="clust3" class="cluster">
<title>cluster_3</title>
<path fill="aliceblue" stroke="aliceblue" d="M425,-8C425,-8 591,-8 591,-8 597,-8 603,-14 603,-20 603,-20 603,-89 603,-89 603,-95 597,-101 591,-101 591,-101 425,-101 425,-101 419,-101 413,-95 413,-89 413,-89 413,-20 413,-20 413,-14 419,-8 425,-8"/>
<text text-anchor="middle" x="508" y="-85.8" font-family="Helvetica,sans-Serif" font-size="14.00">External Calls</text>
</g>
<!-- seigManager -->
<g id="node1" class="node">
<title>seigManager</title>
<path fill="lightgrey" stroke="lightgrey" d="M36,-25C36,-25 118,-25 118,-25 124,-25 130,-31 130,-37 130,-37 130,-49 130,-49 130,-55 124,-61 118,-61 118,-61 36,-61 36,-61 30,-61 24,-55 24,-49 24,-49 24,-37 24,-37 24,-31 30,-25 36,-25"/>
<text text-anchor="middle" x="77" y="-39.3" font-family="Helvetica,sans-Serif" font-size="14.00">seigManager</text>
</g>
<!-- updateSeigniorage -->
<g id="node2" class="node">
<title>updateSeigniorage</title>
<path fill="#bfefff" stroke="#bfefff" d="M220,-25C220,-25 344,-25 344,-25 350,-25 356,-31 356,-37 356,-37 356,-49 356,-49 356,-55 350,-61 344,-61 344,-61 220,-61 220,-61 214,-61 208,-55 208,-49 208,-49 208,-37 208,-37 208,-31 214,-25 220,-25"/>
<text text-anchor="middle" x="282" y="-39.3" font-family="Helvetica,sans-Serif" font-size="14.00">updateSeigniorage</text>
</g>
<!-- seigManager&#45;&gt;updateSeigniorage -->
<g id="edge1" class="edge">
<title>seigManager&#45;&gt;updateSeigniorage</title>
<path fill="none" stroke="lightskyblue" d="M159.03,-43C166.5,-43 174.13,-43 181.73,-43"/>
<ellipse fill="none" stroke="lightskyblue" cx="155" cy="-43" rx="4" ry="4"/>
<polygon fill="lightskyblue" stroke="lightskyblue" points="182,-46.5 192,-43 182,-39.5 182,-46.5"/>
</g>
<!-- IERC20.safeTransfer -->
<g id="node3" class="node">
<title>IERC20.safeTransfer</title>
<path fill="#d1eeee" stroke="#d1eeee" d="M441,-25C441,-25 575,-25 575,-25 581,-25 587,-31 587,-37 587,-37 587,-49 587,-49 587,-55 581,-61 575,-61 575,-61 441,-61 441,-61 435,-61 429,-55 429,-49 429,-49 429,-37 429,-37 429,-31 435,-25 441,-25"/>
<text text-anchor="middle" x="508" y="-39.3" font-family="Helvetica,sans-Serif" font-size="14.00">IERC20.safeTransfer</text>
</g>
<!-- updateSeigniorage&#45;&gt;IERC20.safeTransfer -->
<g id="edge2" class="edge">
<title>updateSeigniorage&#45;&gt;IERC20.safeTransfer</title>
<path fill="none" stroke="lightskyblue" d="M380.09,-43C387.58,-43 395.17,-43 402.71,-43"/>
<ellipse fill="none" stroke="lightskyblue" cx="376" cy="-43" rx="4" ry="4"/>
<polygon fill="lightskyblue" stroke="lightskyblue" points="403,-46.5 413,-43 403,-39.5 403,-46.5"/>
</g>
</g>
</svg>
