<?xml version="1.0" encoding="UTF-8" standalone="no"?>
<!DOCTYPE svg PUBLIC "-//W3C//DTD SVG 1.1//EN"
 "http://www.w3.org/Graphics/SVG/1.1/DTD/svg11.dtd">
<!-- Generated by graphviz version 2.43.0 (0)
 -->
<!-- Title: SeigManagerV1_3&#45;SeigManagerV1_3&#45;DEFAULT_ADMIN_ROLE Pages: 1 -->
<svg width="680pt" height="420pt"
 viewBox="0.00 0.00 680.00 420.00" xmlns="http://www.w3.org/2000/svg" xmlns:xlink="http://www.w3.org/1999/xlink">
<g id="graph0" class="graph" transform="scale(1 1) rotate(0) translate(4 416)">
<title>SeigManagerV1_3&#45;SeigManagerV1_3&#45;DEFAULT_ADMIN_ROLE</title>
<polygon fill="white" stroke="transparent" points="-4,4 -4,-416 676,-416 676,4 -4,4"/>
<g id="clust1" class="cluster">
<title>cluster_1</title>
<path fill="aliceblue" stroke="aliceblue" d="M281,-311C281,-311 435,-311 435,-311 441,-311 447,-317 447,-323 447,-323 447,-392 447,-392 447,-398 441,-404 435,-404 435,-404 281,-404 281,-404 275,-404 269,-398 269,-392 269,-392 269,-323 269,-323 269,-317 275,-311 281,-311"/>
<text text-anchor="middle" x="358" y="-388.8" font-family="Helvetica,sans-Serif" font-size="14.00">Function</text>
</g>
<g id="clust2" class="cluster">
<title>cluster_function_1_state_vars</title>
<path fill="aliceblue" stroke="aliceblue" d="M517.5,-311C517.5,-311 646.5,-311 646.5,-311 652.5,-311 658.5,-317 658.5,-323 658.5,-323 658.5,-392 658.5,-392 658.5,-398 652.5,-404 646.5,-404 646.5,-404 517.5,-404 517.5,-404 511.5,-404 505.5,-398 505.5,-392 505.5,-392 505.5,-323 505.5,-323 505.5,-317 511.5,-311 517.5,-311"/>
<text text-anchor="middle" x="582" y="-388.8" font-family="Helvetica,sans-Serif" font-size="14.00">State Variables</text>
</g>
<g id="clust3" class="cluster">
<title>cluster_3</title>
<path fill="aliceblue" stroke="aliceblue" d="M20,-159C20,-159 204,-159 204,-159 210,-159 216,-165 216,-171 216,-171 216,-240 216,-240 216,-246 210,-252 204,-252 204,-252 20,-252 20,-252 14,-252 8,-246 8,-240 8,-240 8,-171 8,-171 8,-165 14,-159 20,-159"/>
<text text-anchor="middle" x="112" y="-236.8" font-family="Helvetica,sans-Serif" font-size="14.00">Authenticated Role</text>
</g>
<g id="clust4" class="cluster">
<title>cluster_4</title>
<path fill="aliceblue" stroke="aliceblue" d="M269,-210C269,-210 447,-210 447,-210 453,-210 459,-216 459,-222 459,-222 459,-291 459,-291 459,-297 453,-303 447,-303 447,-303 269,-303 269,-303 263,-303 257,-297 257,-291 257,-291 257,-222 257,-222 257,-216 263,-210 269,-210"/>
<text text-anchor="middle" x="358" y="-287.8" font-family="Helvetica,sans-Serif" font-size="14.00">Function</text>
</g>
<g id="clust5" class="cluster">
<title>cluster_function_4_state_vars</title>
<path fill="aliceblue" stroke="aliceblue" d="M512.5,-210C512.5,-210 651.5,-210 651.5,-210 657.5,-210 663.5,-216 663.5,-222 663.5,-222 663.5,-291 663.5,-291 663.5,-297 657.5,-303 651.5,-303 651.5,-303 512.5,-303 512.5,-303 506.5,-303 500.5,-297 500.5,-291 500.5,-291 500.5,-222 500.5,-222 500.5,-216 506.5,-210 512.5,-210"/>
<text text-anchor="middle" x="582" y="-287.8" font-family="Helvetica,sans-Serif" font-size="14.00">State Variables</text>
</g>
<g id="clust6" class="cluster">
<title>cluster_5</title>
<path fill="aliceblue" stroke="aliceblue" d="M276,-109C276,-109 440,-109 440,-109 446,-109 452,-115 452,-121 452,-121 452,-190 452,-190 452,-196 446,-202 440,-202 440,-202 276,-202 276,-202 270,-202 264,-196 264,-190 264,-190 264,-121 264,-121 264,-115 270,-109 276,-109"/>
<text text-anchor="middle" x="358" y="-186.8" font-family="Helvetica,sans-Serif" font-size="14.00">Function</text>
</g>
<g id="clust7" class="cluster">
<title>cluster_function_5_state_vars</title>
<path fill="aliceblue" stroke="aliceblue" d="M512.5,-109C512.5,-109 651.5,-109 651.5,-109 657.5,-109 663.5,-115 663.5,-121 663.5,-121 663.5,-190 663.5,-190 663.5,-196 657.5,-202 651.5,-202 651.5,-202 512.5,-202 512.5,-202 506.5,-202 500.5,-196 500.5,-190 500.5,-190 500.5,-121 500.5,-121 500.5,-115 506.5,-109 512.5,-109"/>
<text text-anchor="middle" x="582" y="-186.8" font-family="Helvetica,sans-Serif" font-size="14.00">State Variables</text>
</g>
<g id="clust8" class="cluster">
<title>cluster_6</title>
<path fill="aliceblue" stroke="aliceblue" d="M275.5,-8C275.5,-8 440.5,-8 440.5,-8 446.5,-8 452.5,-14 452.5,-20 452.5,-20 452.5,-89 452.5,-89 452.5,-95 446.5,-101 440.5,-101 440.5,-101 275.5,-101 275.5,-101 269.5,-101 263.5,-95 263.5,-89 263.5,-89 263.5,-20 263.5,-20 263.5,-14 269.5,-8 275.5,-8"/>
<text text-anchor="middle" x="358" y="-85.8" font-family="Helvetica,sans-Serif" font-size="14.00">Function</text>
</g>
<g id="clust9" class="cluster">
<title>cluster_function_6_state_vars</title>
<path fill="aliceblue" stroke="aliceblue" d="M512,-8C512,-8 652,-8 652,-8 658,-8 664,-14 664,-20 664,-20 664,-89 664,-89 664,-95 658,-101 652,-101 652,-101 512,-101 512,-101 506,-101 500,-95 500,-89 500,-89 500,-20 500,-20 500,-14 506,-8 512,-8"/>
<text text-anchor="middle" x="582" y="-85.8" font-family="Helvetica,sans-Serif" font-size="14.00">State Variables</text>
</g>
<!-- setLayer2Manager -->
<g id="node1" class="node">
<title>setLayer2Manager</title>
<path fill="#bfefff" stroke="#bfefff" d="M297,-328C297,-328 419,-328 419,-328 425,-328 431,-334 431,-340 431,-340 431,-352 431,-352 431,-358 425,-364 419,-364 419,-364 297,-364 297,-364 291,-364 285,-358 285,-352 285,-352 285,-340 285,-340 285,-334 291,-328 297,-328"/>
<text text-anchor="middle" x="358" y="-342.3" font-family="Helvetica,sans-Serif" font-size="14.00">setLayer2Manager</text>
</g>
<!-- function_1_state_vars_node -->
<g id="node2" class="node">
<title>function_1_state_vars_node</title>
<path fill="#d1eeee" stroke="#d1eeee" d="M533.5,-328C533.5,-328 630.5,-328 630.5,-328 636.5,-328 642.5,-334 642.5,-340 642.5,-340 642.5,-352 642.5,-352 642.5,-358 636.5,-364 630.5,-364 630.5,-364 533.5,-364 533.5,-364 527.5,-364 521.5,-358 521.5,-352 521.5,-352 521.5,-340 521.5,-340 521.5,-334 527.5,-328 533.5,-328"/>
<text text-anchor="start" x="529.5" y="-342.3" font-family="Helvetica,sans-Serif" font-size="14.00">layer2Manager</text>
</g>
<!-- setLayer2Manager&#45;&gt;function_1_state_vars_node -->
<g id="edge1" class="edge">
<title>setLayer2Manager&#45;&gt;function_1_state_vars_node</title>
<path fill="none" stroke="lightskyblue" d="M455.26,-346C468.61,-346 482.25,-346 495.39,-346"/>
<ellipse fill="none" stroke="lightskyblue" cx="451" cy="-346" rx="4" ry="4"/>
<polygon fill="lightskyblue" stroke="lightskyblue" points="495.5,-349.5 505.5,-346 495.5,-342.5 495.5,-349.5"/>
</g>
<!-- DEFAULT_ADMIN_ROLE -->
<g id="node3" class="node">
<title>DEFAULT_ADMIN_ROLE</title>
<path fill="lightgrey" stroke="lightgrey" d="M36,-176C36,-176 188,-176 188,-176 194,-176 200,-182 200,-188 200,-188 200,-200 200,-200 200,-206 194,-212 188,-212 188,-212 36,-212 36,-212 30,-212 24,-206 24,-200 24,-200 24,-188 24,-188 24,-182 30,-176 36,-176"/>
<text text-anchor="middle" x="112" y="-190.3" font-family="Helvetica,sans-Serif" font-size="14.00">DEFAULT_ADMIN_ROLE</text>
</g>
<!-- DEFAULT_ADMIN_ROLE&#45;&gt;setLayer2Manager -->
<g id="edge2" class="edge">
<title>DEFAULT_ADMIN_ROLE&#45;&gt;setLayer2Manager</title>
<path fill="none" stroke="lightskyblue" d="M184.96,-257.18C207.12,-274.74 232.23,-292.86 257,-307 257.97,-307.55 258.95,-308.1 259.93,-308.64"/>
<ellipse fill="none" stroke="lightskyblue" cx="181.61" cy="-254.5" rx="4" ry="4"/>
<polygon fill="lightskyblue" stroke="lightskyblue" points="258.52,-311.86 269,-313.41 261.78,-305.66 258.52,-311.86"/>
</g>
<!-- resetL2RewardPerUint -->
<g id="node4" class="node">
<title>resetL2RewardPerUint</title>
<path fill="#bfefff" stroke="#bfefff" d="M285,-227C285,-227 431,-227 431,-227 437,-227 443,-233 443,-239 443,-239 443,-251 443,-251 443,-257 437,-263 431,-263 431,-263 285,-263 285,-263 279,-263 273,-257 273,-251 273,-251 273,-239 273,-239 273,-233 279,-227 285,-227"/>
<text text-anchor="middle" x="358" y="-241.3" font-family="Helvetica,sans-Serif" font-size="14.00">resetL2RewardPerUint</text>
</g>
<!-- DEFAULT_ADMIN_ROLE&#45;&gt;resetL2RewardPerUint -->
<g id="edge3" class="edge">
<title>DEFAULT_ADMIN_ROLE&#45;&gt;resetL2RewardPerUint</title>
<path fill="none" stroke="lightskyblue" d="M224.18,-217.24C231.74,-218.82 239.36,-220.41 246.92,-221.99"/>
<ellipse fill="none" stroke="lightskyblue" cx="219.91" cy="-216.35" rx="4" ry="4"/>
<polygon fill="lightskyblue" stroke="lightskyblue" points="246.5,-225.48 257,-224.1 247.93,-218.63 246.5,-225.48"/>
</g>
<!-- setLayer2StartBlock -->
<g id="node6" class="node">
<title>setLayer2StartBlock</title>
<path fill="#bfefff" stroke="#bfefff" d="M292,-126C292,-126 424,-126 424,-126 430,-126 436,-132 436,-138 436,-138 436,-150 436,-150 436,-156 430,-162 424,-162 424,-162 292,-162 292,-162 286,-162 280,-156 280,-150 280,-150 280,-138 280,-138 280,-132 286,-126 292,-126"/>
<text text-anchor="middle" x="358" y="-140.3" font-family="Helvetica,sans-Serif" font-size="14.00">setLayer2StartBlock</text>
</g>
<!-- DEFAULT_ADMIN_ROLE&#45;&gt;setLayer2StartBlock -->
<g id="edge4" class="edge">
<title>DEFAULT_ADMIN_ROLE&#45;&gt;setLayer2StartBlock</title>
<path fill="none" stroke="lightskyblue" d="M224,-171.25C234,-169.2 244.11,-167.13 254.05,-165.1"/>
<ellipse fill="none" stroke="lightskyblue" cx="219.92" cy="-172.09" rx="4" ry="4"/>
<polygon fill="lightskyblue" stroke="lightskyblue" points="254.91,-168.49 264,-163.06 253.5,-161.64 254.91,-168.49"/>
</g>
<!-- setL1BridgeRegistry -->
<g id="node8" class="node">
<title>setL1BridgeRegistry</title>
<path fill="#bfefff" stroke="#bfefff" d="M291.5,-25C291.5,-25 424.5,-25 424.5,-25 430.5,-25 436.5,-31 436.5,-37 436.5,-37 436.5,-49 436.5,-49 436.5,-55 430.5,-61 424.5,-61 424.5,-61 291.5,-61 291.5,-61 285.5,-61 279.5,-55 279.5,-49 279.5,-49 279.5,-37 279.5,-37 279.5,-31 285.5,-25 291.5,-25"/>
<text text-anchor="middle" x="358" y="-39.3" font-family="Helvetica,sans-Serif" font-size="14.00">setL1BridgeRegistry</text>
</g>
<!-- DEFAULT_ADMIN_ROLE&#45;&gt;setL1BridgeRegistry -->
<g id="edge5" class="edge">
<title>DEFAULT_ADMIN_ROLE&#45;&gt;setL1BridgeRegistry</title>
<path fill="none" stroke="lightskyblue" d="M176.49,-154.71C200.33,-139.95 228.08,-122.78 254.56,-106.39"/>
<ellipse fill="none" stroke="lightskyblue" cx="172.95" cy="-156.9" rx="4" ry="4"/>
<polygon fill="lightskyblue" stroke="lightskyblue" points="256.84,-109.1 263.5,-100.86 253.16,-103.15 256.84,-109.1"/>
</g>
<!-- function_4_state_vars_node -->
<g id="node5" class="node">
<title>function_4_state_vars_node</title>
<path fill="#d1eeee" stroke="#d1eeee" d="M528.5,-227C528.5,-227 635.5,-227 635.5,-227 641.5,-227 647.5,-233 647.5,-239 647.5,-239 647.5,-251 647.5,-251 647.5,-257 641.5,-263 635.5,-263 635.5,-263 528.5,-263 528.5,-263 522.5,-263 516.5,-257 516.5,-251 516.5,-251 516.5,-239 516.5,-239 516.5,-233 522.5,-227 528.5,-227"/>
<text text-anchor="start" x="524.5" y="-241.3" font-family="Helvetica,sans-Serif" font-size="14.00">l2RewardPerUint</text>
</g>
<!-- resetL2RewardPerUint&#45;&gt;function_4_state_vars_node -->
<g id="edge7" class="edge">
<title>resetL2RewardPerUint&#45;&gt;function_4_state_vars_node</title>
<path fill="none" stroke="lightskyblue" d="M467.34,-245C475.03,-245 482.75,-245 490.33,-245"/>
<ellipse fill="none" stroke="lightskyblue" cx="463" cy="-245" rx="4" ry="4"/>
<polygon fill="lightskyblue" stroke="lightskyblue" points="490.5,-248.5 500.5,-245 490.5,-241.5 490.5,-248.5"/>
</g>
<!-- function_5_state_vars_node -->
<g id="node7" class="node">
<title>function_5_state_vars_node</title>
<path fill="#d1eeee" stroke="#d1eeee" d="M528.5,-126C528.5,-126 635.5,-126 635.5,-126 641.5,-126 647.5,-132 647.5,-138 647.5,-138 647.5,-150 647.5,-150 647.5,-156 641.5,-162 635.5,-162 635.5,-162 528.5,-162 528.5,-162 522.5,-162 516.5,-156 516.5,-150 516.5,-150 516.5,-138 516.5,-138 516.5,-132 522.5,-126 528.5,-126"/>
<text text-anchor="start" x="524.5" y="-140.3" font-family="Helvetica,sans-Serif" font-size="14.00">layer2StartBlock</text>
</g>
<!-- setLayer2StartBlock&#45;&gt;function_5_state_vars_node -->
<g id="edge8" class="edge">
<title>setLayer2StartBlock&#45;&gt;function_5_state_vars_node</title>
<path fill="none" stroke="lightskyblue" d="M460.01,-144C470.03,-144 480.16,-144 490.07,-144"/>
<ellipse fill="none" stroke="lightskyblue" cx="456" cy="-144" rx="4" ry="4"/>
<polygon fill="lightskyblue" stroke="lightskyblue" points="490.5,-147.5 500.5,-144 490.5,-140.5 490.5,-147.5"/>
</g>
<!-- function_6_state_vars_node -->
<g id="node9" class="node">
<title>function_6_state_vars_node</title>
<path fill="#d1eeee" stroke="#d1eeee" d="M528,-25C528,-25 636,-25 636,-25 642,-25 648,-31 648,-37 648,-37 648,-49 648,-49 648,-55 642,-61 636,-61 636,-61 528,-61 528,-61 522,-61 516,-55 516,-49 516,-49 516,-37 516,-37 516,-31 522,-25 528,-25"/>
<text text-anchor="start" x="524" y="-39.3" font-family="Helvetica,sans-Serif" font-size="14.00">l1BridgeRegistry</text>
</g>
<!-- setL1BridgeRegistry&#45;&gt;function_6_state_vars_node -->
<g id="edge6" class="edge">
<title>setL1BridgeRegistry&#45;&gt;function_6_state_vars_node</title>
<path fill="none" stroke="lightskyblue" d="M460.64,-43C470.37,-43 480.19,-43 489.81,-43"/>
<ellipse fill="none" stroke="lightskyblue" cx="456.5" cy="-43" rx="4" ry="4"/>
<polygon fill="lightskyblue" stroke="lightskyblue" points="490,-46.5 500,-43 490,-39.5 490,-46.5"/>
</g>
</g>
</svg>
