<?xml version="1.0" encoding="UTF-8" standalone="no"?>
<!DOCTYPE svg PUBLIC "-//W3C//DTD SVG 1.1//EN"
 "http://www.w3.org/Graphics/SVG/1.1/DTD/svg11.dtd">
<!-- Generated by graphviz version 2.43.0 (0)
 -->
<!-- Title: DAOCommitteeProxy2&#45;DAOCommitteeProxy2&#45;DEFAULT_ADMIN_ROLE Pages: 1 -->
<svg width="795pt" height="420pt"
 viewBox="0.00 0.00 795.00 420.00" xmlns="http://www.w3.org/2000/svg" xmlns:xlink="http://www.w3.org/1999/xlink">
<g id="graph0" class="graph" transform="scale(1 1) rotate(0) translate(4 416)">
<title>DAOCommitteeProxy2&#45;DAOCommitteeProxy2&#45;DEFAULT_ADMIN_ROLE</title>
<polygon fill="white" stroke="transparent" points="-4,4 -4,-416 791,-416 791,4 -4,4"/>
<g id="clust1" class="cluster">
<title>cluster_1</title>
<path fill="aliceblue" stroke="aliceblue" d="M330,-311C330,-311 436,-311 436,-311 442,-311 448,-317 448,-323 448,-323 448,-392 448,-392 448,-398 442,-404 436,-404 436,-404 330,-404 330,-404 324,-404 318,-398 318,-392 318,-392 318,-323 318,-323 318,-317 324,-311 330,-311"/>
<text text-anchor="middle" x="383" y="-388.8" font-family="Helvetica,sans-Serif" font-size="14.00">Function</text>
</g>
<g id="clust2" class="cluster">
<title>cluster_2</title>
<path fill="aliceblue" stroke="aliceblue" d="M590,-311C590,-311 739,-311 739,-311 745,-311 751,-317 751,-323 751,-323 751,-392 751,-392 751,-398 745,-404 739,-404 739,-404 590,-404 590,-404 584,-404 578,-398 578,-392 578,-392 578,-323 578,-323 578,-317 584,-311 590,-311"/>
<text text-anchor="middle" x="664.5" y="-388.8" font-family="Helvetica,sans-Serif" font-size="14.00">Internal Calls</text>
</g>
<g id="clust3" class="cluster">
<title>cluster_3</title>
<path fill="aliceblue" stroke="aliceblue" d="M20,-160C20,-160 204,-160 204,-160 210,-160 216,-166 216,-172 216,-172 216,-241 216,-241 216,-247 210,-253 204,-253 204,-253 20,-253 20,-253 14,-253 8,-247 8,-241 8,-241 8,-172 8,-172 8,-166 14,-160 20,-160"/>
<text text-anchor="middle" x="112" y="-237.8" font-family="Helvetica,sans-Serif" font-size="14.00">Authenticated Role</text>
</g>
<g id="clust4" class="cluster">
<title>cluster_4</title>
<path fill="aliceblue" stroke="aliceblue" d="M301,-210C301,-210 465,-210 465,-210 471,-210 477,-216 477,-222 477,-222 477,-291 477,-291 477,-297 471,-303 465,-303 465,-303 301,-303 301,-303 295,-303 289,-297 289,-291 289,-291 289,-222 289,-222 289,-216 295,-210 301,-210"/>
<text text-anchor="middle" x="383" y="-287.8" font-family="Helvetica,sans-Serif" font-size="14.00">Function</text>
</g>
<g id="clust5" class="cluster">
<title>cluster_5</title>
<path fill="aliceblue" stroke="aliceblue" d="M579,-210C579,-210 750,-210 750,-210 756,-210 762,-216 762,-222 762,-222 762,-291 762,-291 762,-297 756,-303 750,-303 750,-303 579,-303 579,-303 573,-303 567,-297 567,-291 567,-291 567,-222 567,-222 567,-216 573,-210 579,-210"/>
<text text-anchor="middle" x="664.5" y="-287.8" font-family="Helvetica,sans-Serif" font-size="14.00">Internal Calls</text>
</g>
<g id="clust6" class="cluster">
<title>cluster_6</title>
<path fill="aliceblue" stroke="aliceblue" d="M284,-109C284,-109 482,-109 482,-109 488,-109 494,-115 494,-121 494,-121 494,-190 494,-190 494,-196 488,-202 482,-202 482,-202 284,-202 284,-202 278,-202 272,-196 272,-190 272,-190 272,-121 272,-121 272,-115 278,-109 284,-109"/>
<text text-anchor="middle" x="383" y="-186.8" font-family="Helvetica,sans-Serif" font-size="14.00">Function</text>
</g>
<g id="clust7" class="cluster">
<title>cluster_7</title>
<path fill="aliceblue" stroke="aliceblue" d="M562,-109C562,-109 767,-109 767,-109 773,-109 779,-115 779,-121 779,-121 779,-190 779,-190 779,-196 773,-202 767,-202 767,-202 562,-202 562,-202 556,-202 550,-196 550,-190 550,-190 550,-121 550,-121 550,-115 556,-109 562,-109"/>
<text text-anchor="middle" x="664.5" y="-186.8" font-family="Helvetica,sans-Serif" font-size="14.00">Internal Calls</text>
</g>
<g id="clust8" class="cluster">
<title>cluster_8</title>
<path fill="aliceblue" stroke="aliceblue" d="M269,-8C269,-8 497,-8 497,-8 503,-8 509,-14 509,-20 509,-20 509,-89 509,-89 509,-95 503,-101 497,-101 497,-101 269,-101 269,-101 263,-101 257,-95 257,-89 257,-89 257,-20 257,-20 257,-14 263,-8 269,-8"/>
<text text-anchor="middle" x="383" y="-85.8" font-family="Helvetica,sans-Serif" font-size="14.00">Function</text>
</g>
<g id="clust9" class="cluster">
<title>cluster_function_8_state_vars</title>
<path fill="aliceblue" stroke="aliceblue" d="M570,-8C570,-8 759,-8 759,-8 765,-8 771,-14 771,-20 771,-20 771,-89 771,-89 771,-95 765,-101 759,-101 759,-101 570,-101 570,-101 564,-101 558,-95 558,-89 558,-89 558,-20 558,-20 558,-14 564,-8 570,-8"/>
<text text-anchor="middle" x="664.5" y="-85.8" font-family="Helvetica,sans-Serif" font-size="14.00">State Variables</text>
</g>
<!-- upgradeTo2 -->
<g id="node1" class="node">
<title>upgradeTo2</title>
<path fill="#bfefff" stroke="#bfefff" d="M346,-328C346,-328 420,-328 420,-328 426,-328 432,-334 432,-340 432,-340 432,-352 432,-352 432,-358 426,-364 420,-364 420,-364 346,-364 346,-364 340,-364 334,-358 334,-352 334,-352 334,-340 334,-340 334,-334 340,-328 346,-328"/>
<text text-anchor="middle" x="383" y="-342.3" font-family="Helvetica,sans-Serif" font-size="14.00">upgradeTo2</text>
</g>
<!-- _implementation2 -->
<g id="node2" class="node">
<title>_implementation2</title>
<path fill="#d1eeee" stroke="#d1eeee" d="M606,-328C606,-328 723,-328 723,-328 729,-328 735,-334 735,-340 735,-340 735,-352 735,-352 735,-358 729,-364 723,-364 723,-364 606,-364 606,-364 600,-364 594,-358 594,-352 594,-352 594,-340 594,-340 594,-334 600,-328 606,-328"/>
<text text-anchor="middle" x="664.5" y="-342.3" font-family="Helvetica,sans-Serif" font-size="14.00">_implementation2</text>
</g>
<!-- upgradeTo2&#45;&gt;_implementation2 -->
<g id="edge1" class="edge">
<title>upgradeTo2&#45;&gt;_implementation2</title>
<path fill="none" stroke="lightskyblue" d="M456.05,-346C490.11,-346 531.26,-346 567.89,-346"/>
<ellipse fill="none" stroke="lightskyblue" cx="452" cy="-346" rx="4" ry="4"/>
<polygon fill="lightskyblue" stroke="lightskyblue" points="568,-349.5 578,-346 568,-342.5 568,-349.5"/>
</g>
<!-- _setImplementation2 -->
<g id="node5" class="node">
<title>_setImplementation2</title>
<path fill="#d1eeee" stroke="#d1eeee" d="M595,-227C595,-227 734,-227 734,-227 740,-227 746,-233 746,-239 746,-239 746,-251 746,-251 746,-257 740,-263 734,-263 734,-263 595,-263 595,-263 589,-263 583,-257 583,-251 583,-251 583,-239 583,-239 583,-233 589,-227 595,-227"/>
<text text-anchor="middle" x="664.5" y="-241.3" font-family="Helvetica,sans-Serif" font-size="14.00">_setImplementation2</text>
</g>
<!-- upgradeTo2&#45;&gt;_setImplementation2 -->
<g id="edge3" class="edge">
<title>upgradeTo2&#45;&gt;_setImplementation2</title>
<path fill="none" stroke="lightskyblue" d="M455.93,-324.63C473.39,-319.14 491.94,-313.07 509,-307 524.79,-301.38 541.35,-295.12 557.53,-288.81"/>
<ellipse fill="none" stroke="lightskyblue" cx="451.82" cy="-325.91" rx="4" ry="4"/>
<polygon fill="lightskyblue" stroke="lightskyblue" points="558.97,-292 567,-285.09 556.41,-285.49 558.97,-292"/>
</g>
<!-- DEFAULT_ADMIN_ROLE -->
<g id="node3" class="node">
<title>DEFAULT_ADMIN_ROLE</title>
<path fill="lightgrey" stroke="lightgrey" d="M36,-177C36,-177 188,-177 188,-177 194,-177 200,-183 200,-189 200,-189 200,-201 200,-201 200,-207 194,-213 188,-213 188,-213 36,-213 36,-213 30,-213 24,-207 24,-201 24,-201 24,-189 24,-189 24,-183 30,-177 36,-177"/>
<text text-anchor="middle" x="112" y="-191.3" font-family="Helvetica,sans-Serif" font-size="14.00">DEFAULT_ADMIN_ROLE</text>
</g>
<!-- DEFAULT_ADMIN_ROLE&#45;&gt;upgradeTo2 -->
<g id="edge9" class="edge">
<title>DEFAULT_ADMIN_ROLE&#45;&gt;upgradeTo2</title>
<path fill="none" stroke="lightskyblue" d="M183.81,-258.19C206.1,-275.79 231.57,-293.7 257,-307 272.85,-315.29 290.76,-322.16 307.97,-327.71"/>
<ellipse fill="none" stroke="lightskyblue" cx="180.43" cy="-255.49" rx="4" ry="4"/>
<polygon fill="lightskyblue" stroke="lightskyblue" points="307.42,-331.21 318,-330.83 309.49,-324.52 307.42,-331.21"/>
</g>
<!-- setImplementation2 -->
<g id="node4" class="node">
<title>setImplementation2</title>
<path fill="#bfefff" stroke="#bfefff" d="M317,-227C317,-227 449,-227 449,-227 455,-227 461,-233 461,-239 461,-239 461,-251 461,-251 461,-257 455,-263 449,-263 449,-263 317,-263 317,-263 311,-263 305,-257 305,-251 305,-251 305,-239 305,-239 305,-233 311,-227 317,-227"/>
<text text-anchor="middle" x="383" y="-241.3" font-family="Helvetica,sans-Serif" font-size="14.00">setImplementation2</text>
</g>
<!-- DEFAULT_ADMIN_ROLE&#45;&gt;setImplementation2 -->
<g id="edge2" class="edge">
<title>DEFAULT_ADMIN_ROLE&#45;&gt;setImplementation2</title>
<path fill="none" stroke="lightskyblue" d="M224.29,-215.69C242.44,-219.06 261.18,-222.54 279.12,-225.88"/>
<ellipse fill="none" stroke="lightskyblue" cx="219.93" cy="-214.88" rx="4" ry="4"/>
<polygon fill="lightskyblue" stroke="lightskyblue" points="278.53,-229.33 289,-227.71 279.81,-222.45 278.53,-229.33"/>
</g>
<!-- setAliveImplementation2 -->
<g id="node6" class="node">
<title>setAliveImplementation2</title>
<path fill="#bfefff" stroke="#bfefff" d="M300,-126C300,-126 466,-126 466,-126 472,-126 478,-132 478,-138 478,-138 478,-150 478,-150 478,-156 472,-162 466,-162 466,-162 300,-162 300,-162 294,-162 288,-156 288,-150 288,-150 288,-138 288,-138 288,-132 294,-126 300,-126"/>
<text text-anchor="middle" x="383" y="-140.3" font-family="Helvetica,sans-Serif" font-size="14.00">setAliveImplementation2</text>
</g>
<!-- DEFAULT_ADMIN_ROLE&#45;&gt;setAliveImplementation2 -->
<g id="edge5" class="edge">
<title>DEFAULT_ADMIN_ROLE&#45;&gt;setAliveImplementation2</title>
<path fill="none" stroke="lightskyblue" d="M224.17,-173.92C236.66,-171.55 249.44,-169.13 262.04,-166.74"/>
<ellipse fill="none" stroke="lightskyblue" cx="219.93" cy="-174.73" rx="4" ry="4"/>
<polygon fill="lightskyblue" stroke="lightskyblue" points="262.83,-170.16 272,-164.85 261.52,-163.28 262.83,-170.16"/>
</g>
<!-- setSelectorImplementations2 -->
<g id="node8" class="node">
<title>setSelectorImplementations2</title>
<path fill="#bfefff" stroke="#bfefff" d="M285,-25C285,-25 481,-25 481,-25 487,-25 493,-31 493,-37 493,-37 493,-49 493,-49 493,-55 487,-61 481,-61 481,-61 285,-61 285,-61 279,-61 273,-55 273,-49 273,-49 273,-37 273,-37 273,-31 279,-25 285,-25"/>
<text text-anchor="middle" x="383" y="-39.3" font-family="Helvetica,sans-Serif" font-size="14.00">setSelectorImplementations2</text>
</g>
<!-- DEFAULT_ADMIN_ROLE&#45;&gt;setSelectorImplementations2 -->
<g id="edge7" class="edge">
<title>DEFAULT_ADMIN_ROLE&#45;&gt;setSelectorImplementations2</title>
<path fill="none" stroke="lightskyblue" d="M173.08,-155.63C196.73,-140.59 225.25,-123.06 255.45,-105.94"/>
<ellipse fill="none" stroke="lightskyblue" cx="169.59" cy="-157.85" rx="4" ry="4"/>
<polygon fill="lightskyblue" stroke="lightskyblue" points="257.24,-108.95 264.24,-101 253.81,-102.85 257.24,-108.95"/>
</g>
<!-- setImplementation2&#45;&gt;_setImplementation2 -->
<g id="edge4" class="edge">
<title>setImplementation2&#45;&gt;_setImplementation2</title>
<path fill="none" stroke="lightskyblue" d="M485.17,-245C508.47,-245 533.32,-245 556.84,-245"/>
<ellipse fill="none" stroke="lightskyblue" cx="481" cy="-245" rx="4" ry="4"/>
<polygon fill="lightskyblue" stroke="lightskyblue" points="557,-248.5 567,-245 557,-241.5 557,-248.5"/>
</g>
<!-- _setAliveImplementation2 -->
<g id="node7" class="node">
<title>_setAliveImplementation2</title>
<path fill="#d1eeee" stroke="#d1eeee" d="M578,-126C578,-126 751,-126 751,-126 757,-126 763,-132 763,-138 763,-138 763,-150 763,-150 763,-156 757,-162 751,-162 751,-162 578,-162 578,-162 572,-162 566,-156 566,-150 566,-150 566,-138 566,-138 566,-132 572,-126 578,-126"/>
<text text-anchor="middle" x="664.5" y="-140.3" font-family="Helvetica,sans-Serif" font-size="14.00">_setAliveImplementation2</text>
</g>
<!-- setAliveImplementation2&#45;&gt;_setAliveImplementation2 -->
<g id="edge6" class="edge">
<title>setAliveImplementation2&#45;&gt;_setAliveImplementation2</title>
<path fill="none" stroke="lightskyblue" d="M502.1,-144C514.49,-144 527.11,-144 539.56,-144"/>
<ellipse fill="none" stroke="lightskyblue" cx="498" cy="-144" rx="4" ry="4"/>
<polygon fill="lightskyblue" stroke="lightskyblue" points="540,-147.5 550,-144 540,-140.5 540,-147.5"/>
</g>
<!-- function_8_state_vars_node -->
<g id="node9" class="node">
<title>function_8_state_vars_node</title>
<path fill="#d1eeee" stroke="#d1eeee" d="M586,-25C586,-25 743,-25 743,-25 749,-25 755,-31 755,-37 755,-37 755,-49 755,-49 755,-55 749,-61 743,-61 743,-61 586,-61 586,-61 580,-61 574,-55 574,-49 574,-49 574,-37 574,-37 574,-31 580,-25 586,-25"/>
<text text-anchor="start" x="582" y="-39.3" font-family="Helvetica,sans-Serif" font-size="14.00">selectorImplementation</text>
</g>
<!-- setSelectorImplementations2&#45;&gt;function_8_state_vars_node -->
<g id="edge8" class="edge">
<title>setSelectorImplementations2&#45;&gt;function_8_state_vars_node</title>
<path fill="none" stroke="lightskyblue" d="M517.22,-43C527.5,-43 537.82,-43 547.97,-43"/>
<ellipse fill="none" stroke="lightskyblue" cx="513" cy="-43" rx="4" ry="4"/>
<polygon fill="lightskyblue" stroke="lightskyblue" points="548,-46.5 558,-43 548,-39.5 548,-46.5"/>
</g>
</g>
</svg>
